<?xml version="1.0" encoding="utf-8"?>
<!-- Generator: Adobe Illustrator 23.0.1, SVG Export Plug-In . SVG Version: 6.00 Build 0)  -->
<svg version="1.1" id="Capa_1" xmlns="http://www.w3.org/2000/svg" xmlns:xlink="http://www.w3.org/1999/xlink" x="0px" y="0px"
	 viewBox="0 0 418.1 418.1" style="enable-background:new 0 0 418.1 418.1;" xml:space="preserve">
<style type="text/css">
	.st0{fill:#FFFFFF;}
</style>
<g>
	<g>
		<path class="st0" d="M406.1,292.7L317.6,199L239.2,3.4c-1-2.6-4.1-4.1-6.7-3.1c-2.6,1-4.1,4.1-3.1,6.7L298,179L148,20.8
			c-2-2-5.1-2-7.2,0s-2,5.1,0,7.2l167.9,177.2l67.6,170c1,2,2.6,3.1,4.6,3.1c0.5,0,1,0,2-0.5c2.6-1,4.1-4.1,3.1-6.7l-58.4-146.4
			l71.2,74.8c1,1,2.6,1.5,3.6,1.5s2.6-0.5,3.6-1.5C407.7,297.8,408.2,294.7,406.1,292.7z"/>
	</g>
</g>
<g>
	<g>
		<path class="st0" d="M96.4,268.1c-21,0-38.4,17.4-38.4,38.4s17.4,38.4,38.4,38.4s38.4-17.4,38.4-38.4S117.9,268.1,96.4,268.1z
			 M74.4,323.9c-3.6-4.6-6.1-10.8-6.1-17.4s2.6-12.8,6.1-17.4V323.9z M91.3,334.1c-2.6-0.5-4.6-1-6.7-2v-51.2c2-1,4.1-1.5,6.7-2
			V334.1z M108.2,332.1c-2,1-4.1,1.5-6.7,2v-55.3c2.6,0.5,4.6,1,6.7,2V332.1z M118.4,323.9v-34.8c3.6,4.6,6.1,10.8,6.1,17.4
			C125.1,313.2,122.5,319.3,118.4,323.9z"/>
	</g>
</g>
<g>
	<g>
		<path class="st0" d="M257.7,189.2l-43.5-43.5c-7.2-7.2-16.9-11.3-27.1-11.3s-20,4.1-27.1,11.3l-44,43.5
			c-12.8,12.8-14.8,33.3-4.6,48.1H65.7c-21,0-37.9,16.9-37.9,37.9v62c0,21,16.9,37.9,37.9,37.9h62c21,0,37.9-16.9,37.9-37.9v-45.6
			c6.1,4.1,13.3,6.1,21,6.1c10.2,0,20-4.1,27.1-11.3l44-43.5C272.5,228.2,272.5,204.1,257.7,189.2z M155.3,337.2L155.3,337.2
			c0,15.4-12.3,27.6-27.6,27.6h-62c-15.4,0-27.6-12.3-27.6-27.6v-61.4c0-15.4,12.3-27.6,27.6-27.6h62c15.4,0,27.6,12.3,27.6,27.6
			V337.2z M250.5,236.4L207,279.9c-5.6,5.1-12.8,8.2-20,8.2c-7.7,0-14.3-3.1-20-8.2l-1.5-1.5v-2.6c0-21-16.9-37.9-37.9-37.9H125
			l-1.5-1.5c-10.8-10.8-10.8-28.7,0-39.4l43.5-43.5c5.1-5.1,12.3-8.2,20-8.2s14.3,3.1,20,8.2l43.5,43.5
			C261.2,207.7,261.2,225.6,250.5,236.4z"/>
	</g>
</g>
<g>
	<g>
		<path class="st0" d="M214.1,189.2c-15.4-15.4-39.4-15.4-54.3,0c-7.2,7.2-11.3,16.9-11.3,27.1s4.1,20,11.3,27.1
			c7.2,7.2,16.9,11.3,27.1,11.3s20-4.1,27.1-11.3c7.2-7.2,11.3-16.9,11.3-27.1S221.3,196.4,214.1,189.2z M167,236.4
			c-4.6-4.6-7.2-10.2-8.2-16.4l24.6,24.6C177.3,243.5,171.6,241,167,236.4z M196.7,242.5l-36.4-36.4c1-2,2-4.1,3.1-6.1l39.4,39.4
			C200.8,241,198.8,242,196.7,242.5z M210,232.3l-38.9-38.9c2-1.5,4.1-2.6,6.1-3.1l36.4,36.4C212.6,228.2,211.6,230.2,210,232.3z
			 M190.1,188.2c6.1,0.5,11.8,3.1,16.4,7.7c4.6,4.6,7.2,10.2,8.2,16.4L190.1,188.2z"/>
	</g>
</g>
<g>
	<g>
		<path class="st0" d="M124,95L92.3,63.3C81,52,62.6,52,50.8,63.3L19.1,95c-11.3,11.3-11.3,29.7,0,41.5l31.7,31.7
			c6.1,5.6,13.3,8.7,21,8.7s14.8-3.1,20.5-8.7l31.7-31.7C135.3,125.2,135.3,106.8,124,95z M116.3,129.3L85.1,161
			c-7.2,7.2-19.5,7.2-26.6,0l-31.7-31.7c-7.7-7.7-7.7-19.5-0.5-26.6L58,71c3.6-3.6,8.7-5.6,13.3-5.6s9.7,2,13.3,5.6l31.7,31.7
			C123.5,109.9,123.5,122.2,116.3,129.3z"/>
	</g>
</g>
<g>
	<g>
		<path class="st0" d="M92.3,95c-5.6-5.6-12.8-8.7-21-8.7c-7.7,0-15.4,3.1-21,8.7c-11.3,11.3-11.3,30.2,0,41.5
			c5.6,5.6,12.8,8.7,21,8.7s15.9-3.1,21-8.7C103.5,125.2,103.5,106.3,92.3,95z M58,102.2c3.6-3.6,8.2-5.6,13.3-5.6
			c3.6,0,6.7,1,9.2,2.6l-26.1,26.1C50.8,118.1,51.8,108.4,58,102.2z M85.6,129.3c-6.1,6.1-15.9,7.2-23,3.1l26.1-26.1
			C92.8,113.5,91.8,123.2,85.6,129.3z"/>
	</g>
</g>
<g>
	<g>
		<path class="st0" d="M310.4,336.2l-31.2-31.7c-11.3-11.3-29.7-11.3-41.5,0L206,336.2c-11.3,11.3-11.3,29.7,0,41.5l31.7,31.7
			c5.6,5.6,13.3,8.7,20.5,8.7c7.7,0,14.8-3.1,20.5-8.7l31.7-31.7C321.7,366.4,321.7,348,310.4,336.2z M303.7,370.5L272,402.2
			c-7.2,7.2-19.5,7.2-26.6,0l-31.7-31.7c-7.2-7.2-7.2-19.5,0-26.6l31.7-31.7c3.6-3.6,8.7-5.6,13.3-5.6c4.6,0,9.7,2,13.3,5.6
			l31.7,31.7C311.4,351,311.4,362.8,303.7,370.5z"/>
	</g>
</g>
<g>
	<g>
		<path class="st0" d="M279.7,336.7c-11.8-11.8-30.2-11.8-42-0.5c-5.6,5.6-8.7,12.8-8.7,21c0,7.7,3.1,15.4,8.7,21
			c5.6,5.6,13.3,8.7,21,8.7c7.7,0,14.8-3.1,21-8.7C290.9,366.9,290.9,348,279.7,336.7z M239.7,357.2c0-5.1,2-9.7,5.6-13.3
			s8.7-5.6,13.3-5.6c3.1,0,6.7,1,9.2,2.6L241.7,367C240.3,363.3,239.7,360.3,239.7,357.2z M272,370.5c-6.1,6.1-15.4,7.2-23,3.1
			l26.1-26.1C279.2,354.6,278.1,364.4,272,370.5z"/>
	</g>
</g>
</svg>
