<?xml version="1.0" encoding="utf-8"?>
<!-- Generator: Adobe Illustrator 23.0.1, SVG Export Plug-In . SVG Version: 6.00 Build 0)  -->
<svg version="1.1" id="Слой_1" xmlns="http://www.w3.org/2000/svg" xmlns:xlink="http://www.w3.org/1999/xlink" x="0px" y="0px"
	 viewBox="0 0 1000 1000" style="enable-background:new 0 0 1000 1000;" xml:space="preserve">
<style type="text/css">
	.st0{fill-rule:evenodd;clip-rule:evenodd;}
	.st1{fill:#FEF802;}
	.st2{font-family:'Lobster';}
	.st3{font-size:44.3858px;}
	.st4{fill-rule:evenodd;clip-rule:evenodd;fill:#FFFFFF;}
	.st5{fill:#FFA100;}
	.st6{fill-rule:evenodd;clip-rule:evenodd;fill:#D9261F;}
</style>
<path class="st0" d="M424.33,185.56c36.36-1.93,67.4,25.98,69.33,62.34c1.93,36.36-25.98,67.4-62.34,69.33
	c-36.36,1.93-67.4-25.98-69.33-62.34C360.06,218.53,387.97,187.49,424.33,185.56"/>
<text transform="matrix(1.1447 -0.3918 0.3239 0.9461 378.5972 280.8587)" class="st1 st2 st3">кафе</text>
<path class="st0" d="M327.01,374.97c-0.91-5.37-1.67-10.64-2.43-15.85c-1.67-11.46-3.3-22.67-6.37-34.25
	c-6.31,0.03-12.35,0.25-18.09,0.46c-9.77,0.36-18.69,0.68-27.01,0.02c-9.21-0.73-17.6-3.32-25.11-7.32
	c-8.1-4.31-15.2-10.25-21.25-17.28c-5.71-6.63-10.48-14.21-14.28-22.25c-4-8.48-6.94-17.52-8.76-26.54
	c-2.41-11.89-2.5-23.64-0.62-34.91c1.33-8,3.66-15.76,6.86-23.15c2.95-6.83,6.64-13.36,10.97-19.48c2.72-3.85,5.7-7.53,8.9-11.03
	c5.85-6.4,12.47-12.19,19.7-17.23c6.11-4.26,12.66-7.97,19.55-11.07c3.48-1.56,7.04-2.96,10.69-4.19c3.34-1.13,6.75-2.11,10.21-2.94
	c0.98-2.83,2.03-5.58,3.14-8.27c1.6-3.84,3.33-7.53,5.21-11.07c2.43-4.57,5.09-8.89,8-12.97c2.43-3.41,5.03-6.64,7.8-9.71
	c1.92-2.13,3.93-4.18,6.03-6.16c1.89-1.78,3.85-3.5,5.87-5.15c3.57-2.91,7.36-5.63,11.37-8.15c3.91-2.46,8.03-4.74,12.37-6.84
	c7.14-3.45,14.87-6.42,23.2-8.92c2.73-0.82,5.51-1.56,8.32-2.23c4.04-0.96,8.15-1.76,12.31-2.39c4.1-0.63,8.25-1.09,12.42-1.38
	c6.01-0.42,12.07-0.5,18.12-0.2c6.34,0.31,12.67,1.03,18.88,2.19c4.86,0.9,9.66,2.08,14.36,3.53c2.56,0.79,5.1,1.66,7.59,2.62
	c4.13,1.58,8.16,3.4,12.05,5.46c2.82,1.49,5.57,3.1,8.24,4.84c2.3,1.5,4.55,3.1,6.73,4.79c2.08,1.61,4.09,3.31,6.04,5.11
	c4.11-2.05,8.12-3.92,12.07-5.58c4.76-2,9.44-3.69,14.12-5.01c5.43-1.53,10.87-2.54,16.45-2.94c4.79-0.34,9.67-0.23,14.71,0.41
	c4.63,0.58,9.4,1.61,14.38,3.13c6.56,2.01,13.48,4.88,20.9,8.73c4.37,2.27,8.66,4.89,12.86,7.83c3.71,2.6,7.33,5.45,10.84,8.51
	c3.7,3.22,7.27,6.68,10.68,10.34c2.56,2.74,5.03,5.6,7.39,8.56c2.34,2.93,4.59,5.95,6.72,9.05c3.53,5.14,6.74,10.5,9.58,16.02
	c2.34,4.55,4.43,9.21,6.23,13.93c1.44,3.77,2.69,7.58,3.74,11.41c1.32,4.81,2.32,9.66,2.97,14.51c0.76,5.7,1.04,11.39,0.76,17.02
	c-0.3,6.18-1.25,12.28-2.94,18.21c-1.36,4.8-3.2,9.5-5.56,14.04c-1.97,3.8-4.3,7.48-7.01,11.04c-2.71,3.55-5.8,6.96-9.29,10.22
	c-2.5,2.33-5.06,4.57-7.68,6.71c-3.52,2.87-7.14,5.58-10.88,8.07c-2.97,1.99-6.01,3.84-9.12,5.56c-2.44,1.35-4.93,2.61-7.46,3.78
	c-3.56,1.64-7.2,3.1-10.92,4.35c-2.76,0.93-5.57,1.74-8.42,2.44c0.58,2.98,1.2,6.03,1.83,9.1c0.51,2.47,1.02,4.97,1.51,7.47
	c0.63,3.17,1.23,6.34,1.76,9.49c0.53,3.13,1,6.23,1.36,9.27c0.27,2.28,0.47,3.82,0.7,5.65c0.11,0.86,0.23,1.77,0.35,2.73l8.07-1.14
	l4.95-0.7l3.54-0.5h0.89c3.82-0.33,7.56-0.36,11.21-0.12c5.32,0.35,10.43,1.27,15.31,2.73c3.89,1.16,7.63,2.66,11.19,4.47
	c3.99,2.03,7.76,4.44,11.3,7.21c0.27,0.21,0.54,0.43,0.8,0.64c2.02-1.83,4.12-3.58,6.31-5.27c2.1-1.62,4.28-3.19,6.52-4.68
	c3.79-2.53,7.71-4.81,11.73-6.86c4.89-2.49,9.92-4.65,15.04-6.53c5.45-2,10.99-3.69,16.55-5.14c6.15-1.6,12.33-2.89,18.41-3.98
	c4.23-0.75,8.41-1.41,12.51-1.99c4.29-0.61,9.02-1.19,14.03-1.55c6.38-0.46,13.21-0.58,20.19,0.03c4.31,0.38,8.67,1.03,13.02,2.05
	c3.76,0.88,7.41,1.96,10.94,3.27c4.41,1.63,8.62,3.61,12.55,6c3.72,2.26,7.19,4.87,10.37,7.89c2.67,2.54,5.13,5.37,7.34,8.52
	c5.78,8.21,10.25,18.7,12.09,31.68l2.42,17.09l2.74,19.33l2.62,18.48l2.78,19.62l2.24,15.84l2.81,19.83l1.37,9.66
	c0.58,4.11,0.45,7.96,0.38,11.82l0.68,0.1c1.48,0.23,2.95,0.45,4.31,0.65c3.11,0.45,5.61,0.77,6.32,0.66
	c0.86-0.13,3.45-1.1,5.94-2.02c4.4-1.64,8.72-3.24,13.07-4.57c8.57-2.62,17.25-4.15,26.88-2.7c4.91,0.74,10.08,2.25,15.61,4.8
	c4.69,2.16,9.65,5.06,14.94,8.85c3.84,2.65,7.28,5.62,10.32,8.83c2.91,3.07,5.45,6.35,7.61,9.76c2.17,3.42,3.99,7.06,5.46,10.84
	c1.74,4.47,2.98,9.12,3.71,13.81l2.95,19.09l3.3,21.35l2.93,18.97l2.86,18.5l2.65,17.16l1.72,11.14c0.93,6.02,1.11,11.67,0.65,16.96
	c-0.54,6.25-1.96,12.01-4.06,17.3c-1.32,3.33-2.92,6.48-4.73,9.44c-1.98,3.24-4.22,6.27-6.66,9.1c-3.91,4.53-8.38,8.33-13.03,11.5
	c-5.32,3.63-10.86,6.43-16.02,8.52c-6.65,2.7-12.69,4.23-16.83,4.87c-4.48,0.69-8.34,0.93-11.86,0.91
	c-4.41-0.02-8.29-0.45-12.19-0.88c-1.89-0.21-1.06-0.84-2.43-0.63c-0.9,0.14-2.56,0.82-4.59,1.75c-1.74,0.8-3.75,1.79-5.76,2.78
	c-5.58,2.74-11.2,5.51-17.55,7.84c-5.45,2-11.44,3.68-18.4,4.75c-2.3,0.35-4.56,0.65-6.8,0.88c-4.57,0.47-9.03,0.69-13.36,0.67
	c-3.9-0.02-7.7-0.23-11.41-0.62c-0.95,3.48-2.16,6.91-3.64,10.27c-1.34,3.02-2.9,5.97-4.71,8.85c-1.82,2.88-3.82,5.62-6.01,8.19
	c-4.64,5.43-10.16,10.12-16.67,13.86c-4.31,2.48-9.06,4.55-14.27,6.15c-3.7,1.14-7.64,2.04-11.82,2.69
	c-0.75,0.12-1.48,0.22-2.22,0.32c2.15,1.94,3.92,3.95,5.31,6.04c2.08,3.12,3.33,6.4,3.77,9.84c0.57,4.49-0.24,9.24-2.37,14.23
	c-1.9,4.46-4.89,8.22-8.89,11.3c-3.02,2.33-7.2,4.45-12.3,6.36c-4.49,1.68-9.7,3.2-15.45,4.54c-2.18,0.51-4.5,1.02-6.94,1.52
	c-4.95,1.02-10.41,2.01-16.23,2.97c-4.98,0.82-10.22,1.61-15.64,2.37c-4.7,0.66-9.76,1.35-15.09,2.07
	c-7.82,1.06-16.25,2.18-25.09,3.35c-10.82,1.43-22.25,2.92-33.94,4.45c-10.55,1.38-21.33,2.79-32.27,4.23
	c-7.39,0.97-14.86,1.97-22.39,2.98c-9.23,1.24-18.55,2.5-27.95,3.8c-10.11,1.4-20.3,2.83-30.55,4.31
	c-12.45,1.79-24.98,3.65-37.54,5.59c-9.42,1.45-18.86,2.94-28.29,4.48c-10.84,1.77-21.67,3.6-32.46,5.49
	c-11.44,2.01-22.83,4.09-34.13,6.26c-7.61,1.46-15.19,2.96-22.71,4.5c-10.74,2.2-21.37,4.47-31.85,6.84
	c-8.76,1.98-17.41,4.01-25.95,6.12c-12.35,3.05-24.45,6.23-36.22,9.56c-10.02,2.84-19.8,5.78-29.31,8.84
	c-8.7,2.8-17.17,5.69-25.37,8.69c-7.58,2.77-14.94,5.62-22.05,8.57c-6.07,2.51-11.95,5.09-17.65,7.74l-0.29,0.1
	c-0.81,0.37-1.44,0.64-1.91,0.84c-5.05,2.06-10.22,3.29-15.39,3.74c-5.88,0.52-11.76,0.03-17.46-1.37c-3.5-0.86-6.93-2.07-10.25-3.6
	c-3.31-1.53-6.5-3.39-9.52-5.55c-3.7-2.65-7.15-5.77-10.25-9.31c-3.98-4.54-7.4-9.78-10.05-15.62c-0.43-0.94-0.76-1.71-1.01-2.33
	c-1.81-4.44-3.09-8.99-3.87-13.55c-1.11-6.53-1.19-13.09-0.33-19.43c0.54-3.94,1.44-7.8,2.68-11.5c0.98-2.92,2.18-5.75,3.57-8.46
	c1.72-3.34,3.75-6.5,6.07-9.43c1.4-1.77,2.9-3.46,4.51-5.05c1.5-1.48,3.08-2.88,4.76-4.19l-0.1-1.53l-0.1-1.58
	c-1.08,0.22-2.15,0.41-3.21,0.58l-4.32,0.67h-1.36c-2.45,0.2-4.93,0.29-7.43,0.26c-4.75-0.05-9.56-0.51-14.33-1.42
	c-3.12-0.6-6.22-1.39-9.27-2.38c-2.33-0.76-4.64-1.63-6.9-2.63c-2.4-1.06-4.75-2.25-7.04-3.59c-2.87-1.67-5.63-3.54-8.26-5.6
	c-2.39-1.87-4.66-3.9-6.81-6.1c-2.54-2.6-4.91-5.44-7.06-8.52c-1.78-2.55-3.41-5.26-4.87-8.14c-1.46-2.88-2.76-5.93-3.88-9.15
	c-0.7-2.02-1.33-4.12-1.88-6.28c-0.67-2.61-1.22-5.32-1.66-8.14l-0.67-4.32v0l-1.48-9.57l-2.07-13.37l-2.03-13.11l-1.79-11.58
	l-1.97-12.73l-2.2-14.25L8.9,693.57l-0.71-4.62c-3.76-24.31,3.43-43.19,15.68-57.44c14.16-16.47,34.77-24.54,50.71-27l53.25-8.23
	c-0.07-0.65-0.14-1.3-0.2-1.92c-0.07-0.68-0.14-1.29-0.24-2.01c-6.84-48.3-4.3-51.31,15.27-74.47c1.83-2.17,4.05-4.79,6.17-7.59
	c0.23-1.17,0.35-1.86,0.34-1.93l-7.97-56.27c-2.53-17.86,2.58-37.29,13.71-52.34c10.5-14.2,26.37-24.99,46.41-27.82l72.89-10.32
	c20.12-2.85,38.25,2.32,52.63,13.22L327.01,374.97z"/>
<path class="st4" d="M549.42,322.94c-0.63-4.65-1.28-9.24-1.98-13.84c-0.82-5.36-1.71-10.73-2.71-16.25
	c-1.08-5.93-2.28-12.03-3.66-18.45c-1.96-9.07-2.8-18.21-0.3-25.6c1.44-4.26,3.92-7.88,7.81-10.54c3.27-2.23,7.53-3.78,13-4.43
	c8.09-0.97,16.35-3.52,23.9-7.52c7.08-3.75,13.52-8.77,18.6-14.96c6.35-7.74,9.28-17.74,9.64-28.03
	c0.41-11.86-2.57-24.04-7.69-33.66c-2.78-5.22-5.94-9.87-9.41-13.95c-3.42-4.02-7.16-7.48-11.14-10.37
	c-8.19-5.94-17.44-9.46-27.23-10.45c-6.01-0.61-12.24-0.27-18.55,1.05c-6.25,1.3-12.59,3.55-18.89,6.77
	c-0.95,0.49-0.64,0.33-2.33,1.2c-4.71,2.42-9.35,4.81-13.9,6.64c-6.41,2.58-12.65,4.08-18.67,3.06
	c-6.34-1.07-12.44-4.93-18.25-13.23c-3.64-5.21-8.04-9.59-12.99-13.17c-4.71-3.41-9.93-6.1-15.48-8.11
	c-6.32-2.28-13.07-3.69-20.01-4.26c-7.18-0.59-14.56-0.29-21.87,0.83c-6.43,0.99-12.8,2.62-18.92,4.85
	c-7.59,2.76-14.79,6.44-21.26,10.97c-4.3,3-8.27,6.38-11.81,10.1c-6.11,6.42-10.95,13.88-13.98,22.26c-1,2.78-1.8,5.13-2.49,7.18
	c-2.51,7.43-3.84,11.37-6.97,13.82c-3.37,2.64-8.83,3.56-20.1,5.28c-8.61,1.32-16.85,4.06-24.36,7.98
	c-7.74,4.03-14.71,9.3-20.53,15.52c-6.38,6.81-11.38,14.77-14.48,23.46c-2.26,6.34-3.53,13.08-3.59,20.07
	c-0.12,13.53,2.86,24.17,7.52,32.42c5.77,10.22,14.14,16.84,22.35,20.79c6.67,3.21,14.82,4.63,24.64,5.49
	c5.36,0.47,11.22,0.76,17.6,1.09c3.24,0.16,6.6,0.34,9.84,0.52c6.24,0.36,10.73,1.39,14.2,4.25c3.46,2.85,5.58,7.28,7,14.38
	c1.52,7.56,3.89,19.54,5.86,31.04c0.76,4.4,1.47,8.79,2.07,12.94c6.46-3.37,13.2-6.15,20.04-8.47c5.75-1.95,11.59-3.57,17.42-4.94
	c8.84-2.08,17.65-3.58,26.12-4.78c6.8-0.96,14.7-1.85,23.09-1.94c7.79-0.08,16,0.55,24.15,2.46c8.85,2.08,17.16,5.26,24.49,9.88
	c3.97-5.16,8.68-9.83,14.03-13.83c3.75-2.8,7.7-5.22,11.86-7.19c6.1-2.89,12.66-4.84,19.7-5.71L549.42,322.94z"/>
<path class="st0" d="M424.33,185.56c36.36-1.93,67.4,25.98,69.33,62.34c1.93,36.36-25.98,67.4-62.34,69.33
	c-36.36,1.93-67.4-25.98-69.33-62.34C360.06,218.53,387.97,187.49,424.33,185.56"/>
<path class="st1" d="M408.55,262.92c0.43,1.25,1.04,2.01,1.83,2.29c0.47,0.18,0.97,0.17,1.52-0.02c1.01-0.35,1.82-0.99,2.41-1.94
	c0.61-0.94,0.86-2.04,0.78-3.29l-0.82-10.29c-0.09-0.27-0.35-0.55-0.79-0.86c-0.43-0.31-1.11-0.3-2.05,0.02
	c-0.94,0.32-1.72,1.06-2.32,2.2c-1.45,2.74-1.81,6.09-1.07,10.03C408.17,261.66,408.34,262.28,408.55,262.92 M448.78,251.98
	c0.52,0.61,1.23,0.77,2.1,0.47c0.88-0.3,1.6-0.73,2.13-1.26c0.54-0.55,0.98-1.18,1.31-1.91c0.62-1.36,0.92-3.03,0.89-5.02
	c-0.03-1.99-0.36-3.9-0.99-5.73c-0.79-2.32-2.01-3.19-3.66-2.63c-1.35,0.46-2.25,1.55-2.73,3.28L448.78,251.98z M435.16,253.62
	c0.49,1.43,1.14,2.25,1.95,2.46c0.45,0.17,0.9,0.17,1.36,0.01c0.47-0.16,0.94-0.43,1.41-0.82c1.15-0.93,1.78-2.14,1.92-3.64
	l-0.84-11.29c-0.52-0.9-1.43-1.13-2.7-0.7c-1.27,0.43-2.25,1.55-2.94,3.34c-0.66,1.8-0.97,3.54-0.93,5.23
	C434.44,250.47,434.7,252.27,435.16,253.62z M472.04,237.15c1.91-0.78,3.37-2.12,4.37-4.02c1-1.9,1.19-3.78,0.55-5.64
	c-0.35-1.01-0.94-1.37-1.78-1.09c-1.23,0.45-2.12,1.77-2.66,3.94C471.96,232.53,471.81,234.8,472.04,237.15z M376.67,281.53
	l-1.75-22.86l7.32-2.5l0.7,9.08l2.24-3.8l1.67-3.03c1.11-1.98,2.04-3.4,2.79-4.29c0.76-0.88,1.74-1.52,2.96-1.94
	c1.21-0.41,2.2-0.46,2.95-0.13c0.75,0.34,1.27,0.91,1.55,1.72c0.28,0.81,0.23,1.56-0.15,2.24c-0.37,0.68-1.09,1.19-2.13,1.55
	c-1.04,0.36-1.85,0.37-2.42,0.05c-0.56-0.33-0.87-0.61-0.95-0.84l-0.14-0.41c-0.8,0.81-1.46,1.68-1.99,2.62l-1.3,2.38
	c-0.33,0.6-0.69,1.22-1.09,1.86c0.72-0.37,1.42-0.68,2.08-0.9c1.84-0.63,3.21-0.73,4.14-0.28c0.93,0.44,1.6,1.29,2.03,2.53
	c0.11,0.32,0.19,0.66,0.23,1.01l0.13,1.07c0.14,1.04,0.28,1.78,0.43,2.24c0.35,1.04,1.21,1.32,2.56,0.86
	c1.02-0.35,1.72-0.92,2.07-1.69c0.23-0.52,0.44-1.2,0.62-2.05c-0.37-1.08-0.62-2.2-0.77-3.37c-0.15-1.18-0.17-2.4-0.06-3.65
	c0.24-2.76,1.07-5.28,2.5-7.52c1.43-2.25,3.54-3.85,6.31-4.8c1.46-0.5,2.58-0.66,3.36-0.47c0.78,0.19,1.28,0.59,1.49,1.2l0.07,0.32
	l-0.19-2.44l7.33-2.51l1.26,15.53c0.01,0.52,0.09,1,0.23,1.42c0.41,1.2,1.31,1.57,2.7,1.09c1.39-0.48,2.25-1.65,2.58-3.52
	c-0.08-0.19-0.15-0.39-0.22-0.59c-1.07-3.14-1.08-6.65-0.03-10.53c0.5-1.86,1.43-3.58,2.81-5.15c1.37-1.57,3.14-2.73,5.29-3.47
	c2.78-0.95,4.42-0.65,4.95,0.89l-0.77-10.53l6.71-3.23l0.8,10.94c1.2-1.79,2.93-3.08,5.2-3.85c4.16-1.42,6.97,0.01,8.44,4.29
	c0.55,1.6,0.92,3.13,1.11,4.6l2.23-0.77c-0.15-1.99,0.05-4.06,0.6-6.21c0.73-2.8,2.22-5.13,4.48-6.99c1.16-0.98,2.46-1.71,3.89-2.2
	c2.35-0.8,4.06-0.98,5.16-0.54c1.09,0.45,1.85,1.28,2.27,2.5c0.82,2.39,0.35,4.82-1.4,7.3c-1.76,2.47-4.17,4.32-7.23,5.55
	c0.19,0.82,0.34,1.39,0.45,1.72c0.49,1.43,1.12,2.28,1.89,2.53c0.77,0.25,1.71,0.18,2.81-0.2c1.96-0.67,3.48-1.59,4.56-2.76
	c1.08-1.17,2.14-2.71,3.14-4.61l1.74-0.59c-2.03,6.48-5.79,10.66-11.29,12.55c-2.41,0.83-4.52,0.97-6.31,0.43
	c-1.79-0.54-3.1-2-3.91-4.38c-0.2-0.6-0.37-1.2-0.51-1.82l-2.4,0.78c0.01,1.62-0.21,3.15-0.67,4.6c-1.2,3.81-3.92,6.45-8.19,7.91
	c-2.02,0.69-3.56,0.66-4.6-0.08l0.81,11.14l-6.65,3.97l-1.01-13.69c-1.13,2.11-2.79,3.54-4.97,4.29c-2.18,0.75-4.09,0.79-5.73,0.14
	c-0.81-0.32-1.52-0.85-2.12-1.59c-1.17,3.16-3.36,5.28-6.56,6.38c-2.99,1.02-5.1,0.31-6.31-2.16c-1.33,3.34-3.47,5.51-6.42,6.52
	c-2.96,1.01-5.37,0.5-7.25-1.54l-0.07-0.08c-1.03,3.1-2.94,5.13-5.72,6.08c-2.07,0.71-3.75,0.81-5.06,0.32
	c-1.3-0.49-2.19-1.45-2.68-2.88c-0.24-0.69-0.38-1.45-0.43-2.26c-0.05-0.82-0.16-1.46-0.32-1.94c-0.46-1.34-1.33-1.79-2.62-1.35
	c-0.58,0.2-1.1,0.6-1.56,1.18l-1.1,1.49l0.74,9.63L376.67,281.53z"/>
<path class="st5" d="M864.24,636.02L864.24,636.02l-0.03,0c-9.06,1.4-16.36-0.79-21.78-5.5c-5.3-4.62-8.66-11.64-9.96-20.02
	l-0.02-0.09v0l-0.02-0.18v-0.03c-1.27-8.68,0.77-16.39,4.87-22.23c4.19-5.97,10.55-9.98,17.76-11.1l0.29-0.04h0.02
	c12.25-1.76,21.45,4.89,26.5,14.34c1.9,3.57,3.21,7.53,3.85,11.58c0.64,4.06,0.63,8.23-0.11,12.17
	C883.66,625.23,876.89,634.05,864.24,636.02L864.24,636.02z M752.06,629.67l-9.2-59.55l0,0c-1.09-7.04-5.78-11.6-11.68-14.2
	c-6.22-2.73-13.71-3.33-19.96-2.37l-0.01,0c-8.15,1.26-16,4.63-20.85,10.71c-3.93,4.93-5.93,11.75-4.53,20.83l10.13,65.56
	c0.63,4.05-1.38,7.94-4.53,11.04c-3.39,3.33-8.25,5.83-12.35,6.46l-0.29,0.04h-0.02c-4.86,0.68-9.73-0.34-13.59-2.66
	c-4.09-2.46-7.08-6.36-7.83-11.26l-9.96-64.42c-1.33-8.6-5.39-13.91-10.35-17.1c-7.76-4.98-17.75-5-23.19-4.16l-0.01,0
	c-4.37,0.68-11.41,2.92-16.97,7.47c-5.33,4.36-9.25,10.94-7.78,20.45l0.04,0.29v0l15.53,100.49c0.93,5.98,5.06,11.44,10.35,15.31
	c5.67,4.15,12.54,6.42,18.15,5.56l79.02-12.21c15.48-2.39,19.82,7.01,24.5,17.13c4.47,9.68,9.31,20.15,28.3,17.22
	c8.54-1.32,14-5.08,17.24-10.22c4.05-6.42,4.83-15.12,3.91-24.03l-0.01-0.07c-2.26-27.48-11.62-38.85-19.9-48.9
	C759.81,649.28,754,642.23,752.06,629.67z M563.78,658.77l-9.2-59.55l0,0c-1.09-7.04-5.78-11.6-11.68-14.2
	c-6.22-2.73-13.71-3.34-19.96-2.37l-0.01,0c-8.15,1.26-16,4.63-20.85,10.71c-3.93,4.93-5.93,11.75-4.53,20.83l10.13,65.56
	c0.63,4.05-1.38,7.94-4.53,11.04c-3.39,3.33-8.25,5.83-12.35,6.46l-0.29,0.04h-0.02c-4.86,0.68-9.73-0.34-13.59-2.66
	c-4.09-2.46-7.08-6.36-7.84-11.26l-9.96-64.42c-1.33-8.6-5.39-13.91-10.35-17.1c-7.76-4.98-17.75-5-23.19-4.16l-0.01,0
	c-4.37,0.68-11.41,2.92-16.97,7.47c-5.33,4.36-9.25,10.94-7.78,20.45l0.04,0.29v0l15.53,100.49l0,0c0.96,6.2,5.34,11.81,10.88,15.7
	c5.56,3.9,12.18,6,17.61,5.17l79.02-12.21c15.48-2.39,19.82,7.01,24.5,17.13c4.47,9.68,9.31,20.15,28.3,17.22
	c8.54-1.32,14-5.08,17.24-10.22c4.05-6.42,4.83-15.12,3.91-24.03l-0.01-0.07c-2.26-27.48-11.62-38.85-19.9-48.9
	C571.54,678.38,565.73,671.33,563.78,658.77z M387.96,631.26c-1.5-9.68-7.76-15.7-14.42-19.05c-6.86-3.44-15.07-4.14-21.86-3.09l0,0
	c-9.26,1.43-16.47,5.43-22.25,10.72c-5.88,5.38-10.33,12.14-13.95,18.93v0.01c-2.69,5.01-4.92,10.02-6.94,14.55
	c-4.63,10.42-8.24,18.54-14.43,19.49c-0.9,0.14-1.54,0.08-2.01,0.03l-1.42,0.22l-1.03-1.36c-2.38-3.14-3.39-8.52-4.56-14.82
	c-2.84-15.2-6.82-36.44-33.89-32.25l-0.01,0c-6.66,1.03-13.9,3.76-19.04,8.75c-5,4.85-8.01,11.97-6.47,21.92l0.04,0.29v0
	l14.74,95.34l0,0.01c1.4,9.03,6.44,15.18,12.96,18.79c6.69,3.7,14.93,4.79,22.49,3.63l0.02,0c28.02-4.33,34.27-21.89,40.18-38.48
	c2.65-7.43,5.23-14.68,9.56-20.81l0.03-0.04c0.8-1.1,1.69-2.11,2.61-3.09c0.5-0.53,1.73-1.82,2.76-2.67
	c0.46-0.38,0.89-0.68,1.19-0.77c0.62-0.2,1.2-0.29,1.87,0.08c0.8,0.44,1.49,1.22,2.11,2.08c0.54,0.75,1.01,1.55,1.42,2.24
	c3.21,5.33,4.67,12.02,6.16,18.83c2.83,12.92,5.76,26.32,21.93,27.64l0.03,0.01c1.61,0.15,3.37,0.14,5.29,0.02
	c1.98-0.13,4.05-0.38,6.22-0.71c11.46-1.77,19.9-6.35,23.12-16.64c1.48-4.71,2.04-10.48,1.14-16.62L387.96,631.26L387.96,631.26z
	 M224.08,752.03l-14.6-94.49c-1.4-9.09-5.8-14.69-11.23-18.04c-8.28-5.12-19.01-5.19-25.39-4.2l-91.33,14.12
	c-7.56,1.17-17.1,4.71-23.09,11.68c-4.28,4.98-6.76,11.8-5.35,20.92l14.74,95.34l0,0.01c1.49,9.62,6.35,15.89,12.51,19.49
	c6.26,3.66,13.87,4.62,20.72,3.57l0.01,0c6.14-0.95,13.05-4.45,18.1-9.94c4.96-5.4,8.05-12.75,6.7-21.5l-10.04-64.99
	c-0.93-6,0.23-10.45,3.74-13.81c3.2-3.07,8.28-4.97,15.48-6.1l0.01,0l0.2-0.03c6.01-0.93,10.87-0.19,14.53,2.18
	c3.76,2.44,6.1,6.46,6.96,12.02l0.04,0.29v0l9.87,63.84l0,0.01c1.04,6.74,4.69,13.15,10.35,17.52c5.67,4.38,13.38,6.71,22.55,5.3
	l0.01,0c5.74-0.89,14.56-4.11,20.09-11.11c3.73-4.72,5.97-11.25,4.72-20.11c-0.1-0.74-0.15-1.06-0.21-1.39L224.08,752.03z
	 M949.21,646.98l-16.42-106.22c-0.37-2.42-1.31-4.91-2.76-7.19c-1.35-2.14-3.15-4.07-5.35-5.57l-0.08-0.06
	c-10.71-7.84-19.23-4.67-28.65-1.17c-4.6,1.71-9.4,3.49-14.85,4.34c-8.38,1.3-16.25,0.1-24.34-1.13
	c-8.17-1.24-16.58-2.52-25.54-1.13c-22.26,3.44-37.64,14.93-47.39,29.65c-12.29,18.55-15.72,42.22-12.74,61.48
	c2.97,19.25,12.6,41.41,29.64,55.65c13.09,10.94,30.62,17.18,52.96,13.73c8.27-1.28,15.66-4.91,22.95-8.5
	c7.49-3.68,14.88-7.32,23.36-8.63c4.86-0.75,9.55-0.24,14.19,0.27c4.22,0.46,8.42,0.92,12.29,0.33c4.18-0.65,12.97-3.41,18.45-9.75
	C948.23,659.24,950.29,654,949.21,646.98z"/>
<path class="st1" d="M745.81,417.02c-5.66,0.8-10.12-0.43-13.45-2.82c-3.97-2.85-6.22-7.3-6.86-11.88
	c-0.69-4.87,0.61-9.49,3.31-13.08c2.7-3.59,6.79-6.13,11.67-6.82c6.66-0.94,11.65,3.28,14.36,9.12c0.95,2.06,1.62,4.33,1.96,6.62
	c0.34,2.3,0.36,4.65,0.02,6.85C755.89,411.04,752.43,416.08,745.81,417.02 M584.76,490.89c-4.8,0.64-8.58,0.03-11.28-1.3
	c-3.19-1.57-4.98-4.11-5.38-6.9c-0.5-3.55-0.01-7.13,0.54-11.08c0.62-4.45,1.3-9.43,0.51-15.05l-4.33-30.57
	c-0.57-4.03,0.45-8.22,2.72-11.48c2.18-3.12,5.49-5.43,9.66-6.02c14.11-2,17.08,13.23,18.92,22.67l0.12,0.64l0.02,0.14
	c0.25,1.8,0.65,4.12,1.09,6.69c0.53,3.12,1.13,6.62,1.67,10.44c2.55,17.98,3.09,39.37-14.02,41.79L584.76,490.89L584.76,490.89z
	 M678.52,521.96c-0.31-2.16-0.69-4.42-1.04-6.46c-0.28-1.64-0.54-3.14-0.75-4.59c-0.04-0.31-0.09-0.74-0.15-1.29
	c-0.17-1.59-0.47-4.27-1.05-7.2l-0.01-0.1c-0.92-5.76-2.69-10.17-4.89-13.7c-2.19-3.52-4.83-6.2-7.47-8.46l-0.04-0.03
	c-1.38-1.23-2.69-2.29-3.93-3.29c-4.56-3.68-8.34-6.73-9.06-11.88l-11.76-83.08l0,0c-1.02-7.23-4.29-13.18-9.2-17.03
	c-4.9-3.84-11.51-5.62-19.23-4.53l-0.24,0.03h0l-72.65,10.29c-6.87,0.97-12.4,4.79-16.13,9.83c-4.14,5.59-6.06,12.66-5.15,19.02
	l7.97,56.27c0.67,4.76,0.43,11.11-0.74,17.13c-1.05,5.4-2.88,10.63-5.51,14.4c-4.37,6.27-7.85,10.38-10.59,13.62
	c-7.91,9.37-8.94,10.58-4.94,38.84c0.14,0.99,0.27,2.23,0.42,3.62c0.17,1.65,0.37,3.52,0.65,5.48l0,0.01
	c1.01,7.1,3.08,14.43,7.13,19.57c3.81,4.83,9.54,7.73,18.1,6.51l0.01,0c13.9-1.97,16.66-13.53,18.79-22.45
	c1.65-6.91,3.01-12.57,8.42-13.71v0c3.66-0.84,9.67-1.96,16-3.06c11.47-2,24.21-3.99,25.67-4.2l1.38-0.2
	c8.14-1.18,27.62-4.01,34.1,1.3l0.58,0.48l0.28,0.74c2.6,6.96,5.37,13.33,9.69,17.46c4.13,3.94,9.93,5.98,18.9,4.71
	c8.58-1.21,13.1-6.06,15.26-12.21C679.62,537.19,679.41,529.04,678.52,521.96L678.52,521.96z M414.3,463.66
	c-5.66,0.8-10.12-0.43-13.45-2.82c-3.97-2.85-6.22-7.3-6.86-11.88c-0.69-4.87,0.61-9.49,3.31-13.08c2.7-3.59,6.79-6.13,11.67-6.82
	c6.66-0.94,11.65,3.28,14.36,9.12c0.95,2.06,1.62,4.33,1.96,6.62c0.34,2.3,0.36,4.65,0.02,6.85
	C424.39,457.69,420.93,462.72,414.3,463.66z M485.53,525.72l-16.97-119.85c-1.64-11.6-9.07-16.94-18.18-19.08
	c-9.75-2.29-21.5-1.11-30.67,0.18c-19.16,2.71-40.11,7.1-55.18,17.19c-14.66,9.81-23.84,25.25-20.29,50.3
	c3.34,23.58,16.18,31.26,25.45,36.8c6.16,3.68,10.97,6.56,11.8,12.39c0.66,4.68-3.52,10.54-8.52,17.54
	c-6.59,9.22-14.77,20.67-13.28,31.2v0c0.69,4.87,3.91,7.45,7.9,8.7c4.5,1.41,9.96,1.25,14.29,0.64l0,0
	c21.2-3,29.08-20.42,34.9-33.29c3.93-8.69,7.05-15.59,13.19-16.46l2.03-0.29l0.91,1.83c0.18,0.37,0.38,0.82,0.62,1.44
	c0.2,0.52,0.41,1.18,0.67,2.05l0.03,0.1c0.56,2.24,1.1,4.59,1.62,6.88c3.33,14.51,5.96,26.02,21.06,26.48h0.03
	c1.13,0.04,2.38,0.02,3.73-0.06c1.36-0.08,2.8-0.23,4.28-0.44c2.36-0.33,4.69-0.72,6.88-1.31c2.11-0.58,4.16-1.36,6.08-2.52
	l-0.01-0.01c2.9-1.84,5.25-4.51,6.62-8.05C485.79,534.76,486.24,530.67,485.53,525.72z M255.29,537.25
	c-4.81,0.64-8.58,0.03-11.28-1.3c-3.19-1.57-4.98-4.11-5.38-6.9c-0.5-3.55-0.01-7.13,0.54-11.08c0.61-4.45,1.3-9.43,0.51-15.05
	l-4.33-30.57c-0.55-3.89,0.39-7.92,2.51-11.14c2.17-3.3,5.57-5.75,9.88-6.36c14.11-2,17.08,13.23,18.92,22.67l0.12,0.64l0.02,0.14
	c0.25,1.8,0.65,4.12,1.09,6.69c0.53,3.12,1.13,6.62,1.67,10.44c2.55,17.98,3.09,39.37-14.02,41.79L255.29,537.25L255.29,537.25z
	 M349.05,568.32c-0.31-2.17-0.69-4.42-1.05-6.46c-0.28-1.64-0.54-3.14-0.74-4.58c-0.04-0.31-0.09-0.74-0.15-1.29
	c-0.17-1.59-0.47-4.27-1.05-7.2l-0.01-0.1c-0.92-5.76-2.7-10.17-4.89-13.7c-2.19-3.52-4.83-6.2-7.47-8.46l-0.04-0.03
	c-1.38-1.23-2.69-2.29-3.93-3.29c-4.56-3.68-8.33-6.73-9.06-11.88l-11.76-83.08c-1.04-7.37-4.41-13.41-9.48-17.25
	c-4.87-3.69-11.37-5.39-18.96-4.31l-72.89,10.32c-6.87,0.97-12.4,4.79-16.13,9.83c-4.14,5.59-6.06,12.66-5.15,19.02l7.97,56.27
	c0.67,4.76,0.43,11.11-0.74,17.13c-1.05,5.4-2.88,10.63-5.51,14.4c-4.37,6.27-7.85,10.38-10.58,13.62
	c-7.91,9.37-8.94,10.58-4.94,38.84c0.14,0.99,0.27,2.23,0.42,3.62c0.17,1.65,0.37,3.53,0.65,5.48l0,0.01
	c1.01,7.1,3.08,14.43,7.13,19.57c3.81,4.83,9.54,7.73,18.1,6.51l0.01,0c13.9-1.97,16.66-13.53,18.79-22.45
	c1.65-6.91,3.01-12.57,8.42-13.71v0c3.66-0.84,9.67-1.96,16-3.06c11.47-2,24.21-3.99,25.67-4.2l1.38-0.2
	c8.13-1.18,27.62-4.01,34.1,1.3l0.58,0.48l0.28,0.74c2.6,6.96,5.37,13.33,9.69,17.46c4.13,3.94,9.93,5.98,18.9,4.71
	c8.58-1.22,13.1-6.06,15.26-12.21C350.15,583.55,349.95,575.4,349.05,568.32L349.05,568.32z M817.04,479.07l-16.97-119.85
	c-1.64-11.6-9.07-16.94-18.18-19.08c-9.75-2.29-21.5-1.11-30.67,0.18c-19.16,2.71-40.11,7.1-55.18,17.19
	c-14.66,9.81-23.84,25.25-20.29,50.3c3.34,23.58,16.18,31.26,25.45,36.8c6.16,3.68,10.97,6.56,11.8,12.39
	c0.66,4.68-3.52,10.54-8.52,17.54c-6.59,9.22-14.77,20.67-13.28,31.2l0,0c0.69,4.86,3.91,7.45,7.89,8.7
	c4.5,1.41,9.96,1.25,14.28,0.64l0.01,0c21.21-3,29.08-20.42,34.9-33.29c3.93-8.69,7.05-15.59,13.19-16.46l2.02-0.29l0.92,1.83
	c0.18,0.37,0.38,0.82,0.62,1.44c0.2,0.52,0.41,1.18,0.67,2.05l0.03,0.1c0.56,2.24,1.1,4.59,1.62,6.88
	c3.32,14.51,5.96,26.02,21.06,26.48h0.03c1.13,0.04,2.38,0.02,3.73-0.06c1.36-0.08,2.79-0.23,4.28-0.44
	c2.36-0.33,4.69-0.72,6.88-1.31c2.11-0.58,4.16-1.36,6.08-2.52l0-0.01c2.9-1.84,5.25-4.51,6.62-8.05
	C817.29,488.12,817.74,484.02,817.04,479.07z"/>
<path class="st6" d="M132.71,865.58c142.1-56.44,425.39-74.78,580.8-66.12c34.49,1.92,44.08,5.51,38.88,9.52
	c-5.54,4.28-27.88,9.04-54.78,12.79c-154.75,21.61-399.76,45.6-537.93,109.9c-16.04,7.29-35.08-1.6-42.53-19.85
	C109.71,893.57,116.67,872.87,132.71,865.58"/>
</svg>
