<?xml version="1.0" encoding="utf-8"?>
<!-- Generator: Adobe Illustrator 23.0.1, SVG Export Plug-In . SVG Version: 6.00 Build 0)  -->
<svg version="1.1" id="Слой_1" xmlns="http://www.w3.org/2000/svg" xmlns:xlink="http://www.w3.org/1999/xlink" x="0px" y="0px"
	 viewBox="0 0 512 512" style="enable-background:new 0 0 512 512;" xml:space="preserve">
<style type="text/css">
	.st0{fill:#FFFFFF;}
</style>
<g id="Page-1">
	<g>
		<path id="Shape" class="st0" d="M443.6,308.9c0-0.6,0.1-1.1,0.1-1.7c-0.4-9.9-4.9-19.2-12.4-25.7c7.5-6.4,12-15.7,12.4-25.5
			c-0.4-9.9-4.8-19.2-12.3-25.6c7.5-6.4,12-15.7,12.3-25.6c-0.4-9.9-4.9-19.2-12.4-25.6c7.5-6.4,12-15.7,12.4-25.6
			c0-37.5-70.7-60.2-142.4-66.3c-2.5-4.7-5.7-9-9.4-12.8c15.9-12.8,36.6-18.2,56.7-14.8c3,0.4,6-0.8,7.9-3.2s2.3-5.6,1.2-8.4
			s-3.7-4.8-6.7-5.3c-26.5-4.3-53.6,3.7-73.5,21.8c-24.8-11.7-54.4-1.7-67,22.7C139,93.4,68.3,116.1,68.3,153.6
			c0.4,9.9,4.9,19.2,12.4,25.6c-7.5,6.4-12,15.7-12.4,25.6c0.4,9.9,4.8,19.2,12.3,25.6c-7.5,6.4-12,15.7-12.3,25.6
			c0.3,9.9,4.8,19.2,12.3,25.6c-7.5,6.4-11.9,15.7-12.3,25.6c0,0.6,0.1,1.1,0.1,1.7C24.2,327,0,351.4,0,377.8
			c0,56.1,112.5,100.1,256,100.1s256-44,256-100.1C512,351.4,487.8,327,443.6,308.9z M94.5,343.2c32.9,20,93.7,32.2,161.5,32.2
			c7.6,0,15.3-0.2,23.3-0.5c6.4,5.4,14.6,8.2,23,7.8h1.6c9.5,0,18.9-0.7,28.3-2.2c12.6-0.7,24.2-6.9,31.8-16.9
			c18.7-4.1,36.8-11,53.5-20.4c5,3.6,8.3,9.1,9.1,15.2c0,24.2-73,51.2-170.7,51.2s-170.7-27-170.7-51.2
			C86.1,352.3,89.4,346.8,94.5,343.2L94.5,343.2z M85.3,256c0.8-6.1,4.1-11.6,9.1-15.2c30.6,18.6,86.5,30.6,148.9,32
			c0.9,1.3,1.2,3,0.9,4.5c-0.8,3.6-2.2,7.2-4,10.4c-3.2,5.8-5.2,12.2-5.7,18.9C146,303.1,85.3,277.9,85.3,256L85.3,256z M94.5,189.6
			c26.2,15.8,68.7,25.9,112.2,30l-0.2,0.5c-3.7,9.5-8.3,21.3-0.9,32.6c0.2,0.4,0.5,0.7,0.8,1c-47-4.5-86.4-15.4-107.5-30.2
			c-6.2-4.3-13.6-11.1-13.6-18.6C86.1,198.7,89.5,193.1,94.5,189.6L94.5,189.6z M253.9,310.5c-3.2-2.6-3.5-4.4,1.7-15.3
			c2.7-5,4.6-10.3,5.5-15.9c1.3-7.9-1.8-15.8-8.2-20.7c-0.1-0.1-0.1-0.1-0.2-0.2c-0.1-0.1-0.2-0.2-0.4-0.2c-0.7-0.7-1.5-1.2-2.4-1.6
			c-4.9-2.8-10.1-4.9-15.5-6.4c-5.4-0.9-10.4-3.3-14.5-6.8c-2.5-3.7-0.6-8.9,2.6-17.1c4.1-8,5.6-17.1,4.1-26c-0.9-3.4-2.2-6.7-4-9.8
			c-8.3-14.1-22-24.2-38-27.9c-7.9-1.4-15.4-4.5-22-9c3.6-3.5,18.9-10.1,50.9-14c9.7,14.5,26.2,23,43.6,22.6s33.5-9.7,42.5-24.6
			c6.5,0.4,12.2,1,17.5,1.7c8.5,1.1,17,2.6,25.3,4.7c13.6,3.6,21.3,8.4,25,15.7c0.7,1.3,1.2,2.7,1.6,4.2c1.7,11.5-0.9,23.2-7.4,32.8
			c-1.8,3.3-2.9,6.9-3,10.6c0.9,10.4,6.2,19.9,14.7,26.1l1.9,1.8c4.7,4,8,9.5,9.3,15.6c3.3,10.2,2.4,21.4-2.4,31
			c-2.7,3.4-5.9,6.4-9.5,8.8c-1.6,1.2-3.2,2.5-4.9,3.8c-0.1,0.1-0.1,0.1-0.2,0.2c-5.1,4-9.1,9.2-11.4,15.3c-2.4,7.7-3.4,15.8-3,23.8
			c0.1,3.5-0.1,7-0.4,10.5c-1.3,12.2-6.8,16.7-23.4,19.4c-8.9,1.4-18,2.1-27,2c-10.8-0.1-15-3.8-15.8-13.9c-0.1-1.6-0.2-3.2-0.3-4.9
			c0.8-9.7-2.5-19.2-9-26.4c-4.5-3.7-9.9-6.1-15.6-7.1C258.9,312.9,256.3,312,253.9,310.5L253.9,310.5z M417.5,240.8
			c5,3.6,8.4,9.1,9.2,15.2c0,8.5-9.4,17.6-25.7,25.6c3.1-10.6,3.4-21.9,0.6-32.7C407.1,246.6,412.4,243.9,417.5,240.8L417.5,240.8z
			 M426.7,307.2c0,7.5-7.4,14.3-13.6,18.6c-13.3,8.5-27.8,14.7-43.1,18.6c0.3-3.6,0.3-7.2,0.3-10.6c-0.4-6.1,0.3-12.2,2-18
			c1.1-2.7,2.9-5.2,5.2-7c14-3.9,27.4-9.5,39.9-16.7C422.5,295.5,425.9,301.1,426.7,307.2L426.7,307.2z M426.7,204.8
			c0,7.5-7.4,14.3-13.6,18.6c-5.5,3.7-11.4,6.9-17.5,9.6c-2.4-3.7-5.2-7-8.3-10l-2.1-2c-4.6-4.4-9.4-9-9.4-13.3
			c0.1-0.3,0.2-0.6,0.3-0.9c14.5-3.9,28.4-9.7,41.4-17.2C422.5,193.1,425.9,198.7,426.7,204.8L426.7,204.8z M426.7,153.6
			c0,10.9-16,23-41.9,32.4c2.7-8.6,3-17.8,0.8-26.6c-0.7-2.6-1.6-5.1-2.9-7.5c-7.9-13-21-21.9-36-24.5c-9-2.3-18.2-4-27.5-5.1
			c-4.1-0.5-8.4-1-13.1-1.4c0.7-3.3,1-6.6,1-10c0-2-0.1-4-0.4-6C382.1,112.4,426.7,135,426.7,153.6z M256,76.8c3,0,6,0.5,8.9,1.3
			c-3,3.8-5.7,7.7-8,11.9c-2.1,4.2-0.4,9.3,3.8,11.5s9.3,0.4,11.5-3.8c2.2-4,4.7-7.7,7.6-11.2c11.6,11.4,13.6,29.5,4.6,43.1
			s-26.3,19-41.4,12.8s-23.7-22.2-20.5-38.2C225.7,88.3,239.7,76.8,256,76.8L256,76.8z M205.2,104.9c-0.8,6.1-0.4,12.3,1.2,18.3
			c-30.1,4.1-61.3,12.6-61.3,30.4c0,11.2,11.6,19.5,35.5,25.5c11.4,2.5,21.2,9.6,27.2,19.6c0.7,1.3,1.3,2.6,1.8,4
			c-52.8-4.7-91.2-16.8-110.3-30.1c-0.3-0.3-0.6-0.5-0.9-0.7c-6.9-3.7-11.7-10.5-12.9-18.2C85.3,135,129.9,112.4,205.2,104.9
			L205.2,104.9z M243.6,324.1c4.2,2.9,8.9,4.9,14,5.9c3,0.4,5.8,1.5,8.3,3.2c2.9,2.6,3.1,8.3,3.4,14.3c0.1,2,0.2,4,0.3,5.8
			c0.1,1.7,0.4,3.3,0.7,4.9c-4.8,0.1-9.6,0.2-14.3,0.2c-67.3,0-128.9-12.8-157.1-32.6c-6.2-4.3-13.6-11.1-13.6-18.6
			c0.8-6.1,4.1-11.6,9.1-15.1C126.9,311.7,185.2,322.7,243.6,324.1L243.6,324.1z M256,460.8c-142.9,0-238.9-42.9-238.9-83
			c0-18.7,20.6-37.7,56.9-52.8c1.9,2.8,4.1,5.5,6.6,7.8c-7.5,6.4-12,15.7-12.3,25.6c0,44.4,96.7,68.3,187.7,68.3
			s187.7-23.9,187.7-68.3c-0.4-9.9-4.8-19.2-12.3-25.6c2.5-2.4,4.7-5,6.6-7.8c36.3,15.1,56.9,34.1,56.9,52.8
			C494.9,417.9,398.9,460.8,256,460.8z"/>
	</g>
</g>
</svg>
