<?xml version="1.0" encoding="utf-8"?>
<!-- Generator: Adobe Illustrator 23.0.1, SVG Export Plug-In . SVG Version: 6.00 Build 0)  -->
<svg version="1.1" id="Слой_1" xmlns="http://www.w3.org/2000/svg" xmlns:xlink="http://www.w3.org/1999/xlink" x="0px" y="0px"
	 viewBox="0 0 99.9 99.9" style="enable-background:new 0 0 99.9 99.9;" xml:space="preserve">
<style type="text/css">
	.st0{fill:#FFFFFF;}
</style>
<title>rimskaya</title>
<path class="st0" d="M59.7,37.8c0.3,0.4,0.8,0.7,1.4,0.7h0c0.6,0,1.1-0.3,1.4-0.8l7-10.5c0.5-0.8,0.3-1.9-0.5-2.4c0,0,0,0,0,0
	c-0.4-0.3-0.9-0.4-1.4-0.2l-12.2,3.5c-0.9,0.3-1.5,1.2-1.2,2.1c0,0,0,0,0,0c0.1,0.2,0.2,0.4,0.3,0.6L59.7,37.8z M63.9,29.3l-3,4.5
	l-2.2-3L63.9,29.3z"/>
<path class="st0" d="M61.3,21.8c3.9,0,7-3.1,7-7s-3.1-7-7-7s-7,3.1-7,7S57.5,21.8,61.3,21.8z M61.3,11.3c1.9,0,3.5,1.6,3.5,3.5
	c0,1.9-1.6,3.5-3.5,3.5c-1.9,0-3.5-1.6-3.5-3.5S59.4,11.3,61.3,11.3C61.3,11.3,61.3,11.3,61.3,11.3z"/>
<path class="st0" d="M77.4,28.1c0.3,0.4,0.8,0.6,1.4,0.6h0.2c0.6-0.1,1-0.4,1.3-0.9l5.2-8.7c0.5-0.8,0.2-1.9-0.6-2.4
	c-0.3-0.2-0.6-0.2-0.9-0.2H71.8c-1,0-1.7,0.8-1.7,1.8c0,0.4,0.1,0.8,0.4,1.1L77.4,28.1z M80.9,20.1L78.6,24l-3.2-3.9H80.9z"/>
<path class="st0" d="M34.9,72.9c3.9,0,7-3.1,7-7c0-3.9-3.1-7-7-7s-7,3.1-7,7C27.9,69.8,31,72.9,34.9,72.9z M34.9,62.5
	c1.9,0,3.5,1.6,3.5,3.5c0,1.9-1.6,3.5-3.5,3.5s-3.5-1.6-3.5-3.5c0,0,0,0,0,0C31.4,64,32.9,62.5,34.9,62.5L34.9,62.5z"/>
<path class="st0" d="M28.4,74.8l-12.2-3.5c-0.9-0.3-1.9,0.3-2.2,1.2c-0.1,0.2-0.1,0.5,0,0.8l1.8,8.7c0.2,0.9,1.1,1.5,2,1.4
	c0.2,0,0.3-0.1,0.4-0.2L28.6,78c0.9-0.4,1.2-1.5,0.8-2.4C29.2,75.2,28.8,74.9,28.4,74.8L28.4,74.8z M18.7,79.1l-0.7-3.7l5.1,1.5
	L18.7,79.1z"/>
<path class="st0" d="M36.4,75.7c-0.4-0.9-1.5-1.2-2.4-0.8c-0.4,0.2-0.7,0.6-0.9,1l-3.5,10.5c-0.3,0.9,0.2,1.9,1.1,2.2c0,0,0,0,0,0
	c0.2,0.1,0.4,0.1,0.5,0.1h8.7c1,0,1.7-0.8,1.8-1.7c0-0.3-0.1-0.6-0.2-0.8L36.4,75.7z M33.8,85.2l1.4-4.2l2.1,4.2H33.8z"/>
<path class="st0" d="M73.1,31.5c-3.9,0-7,3.1-7,7s3.1,7,7,7s7-3.1,7-7c0,0,0,0,0,0C80.1,34.6,76.9,31.5,73.1,31.5z M73.1,41.9
	c-1.9,0-3.5-1.6-3.5-3.5c0-1.9,1.6-3.5,3.5-3.5c1.9,0,3.5,1.6,3.5,3.5l0,0C76.5,40.4,75,41.9,73.1,41.9z"/>
<path class="st0" d="M24.5,59.9l-12.2-3.5c-0.9-0.2-1.9,0.3-2.1,1.2c-0.1,0.4-0.1,0.8,0.1,1.2l5.2,10.5c0.4,0.9,1.5,1.2,2.3,0.8
	c0,0,0,0,0,0c0.2-0.1,0.3-0.2,0.5-0.3l7-7c0.7-0.7,0.6-1.8-0.1-2.5C25.1,60.2,24.8,60,24.5,59.9z M17.5,65.7l-2.4-4.8l5.6,1.6
	L17.5,65.7z"/>
<path class="st0" d="M85.4,46.6h0.1c0.7,0,1.3-0.4,1.6-1l5.2-12.2c0.4-0.9,0-1.9-0.9-2.3c0,0,0,0,0,0c-0.1,0-0.2-0.1-0.3-0.1
	l-8.7-1.8c-0.9-0.2-1.8,0.5-2,1.4c-0.1,0.3-0.1,0.5,0,0.8l3.5,14C84,46.1,84.6,46.6,85.4,46.6z M88.3,33.9l-2.3,5.5l-1.6-6.3
	L88.3,33.9z"/>
<path class="st0" d="M75.3,58.4c-0.1,0.7,0.2,1.4,0.9,1.8l12.2,7c0.8,0.5,1.9,0.2,2.4-0.6c0,0,0,0,0,0c0.1-0.2,0.2-0.4,0.2-0.6
	l1.7-10.5c0.2-0.9-0.5-1.8-1.4-2c-0.2,0-0.5,0-0.7,0l-14,3.5C75.9,57.1,75.4,57.7,75.3,58.4z M88.8,57.4l-0.9,5.4l-6.3-3.6
	L88.8,57.4z"/>
<path class="st0" d="M73.5,91c3.9,0,7-3.1,7-7s-3.1-7-7-7s-7,3.1-7,7S69.7,91,73.5,91z M73.5,80.6c1.9,0,3.5,1.6,3.5,3.5
	c0,1.9-1.6,3.5-3.5,3.5c-1.9,0-3.5-1.6-3.5-3.5c0,0,0,0,0,0C70.1,82.1,71.6,80.6,73.5,80.6z"/>
<path class="st0" d="M26.4,34.5c0-0.7-0.4-1.3-1.1-1.6l-12.2-5.2c-0.9-0.4-1.9,0-2.3,0.9c-0.1,0.2-0.1,0.5-0.1,0.7v10.5
	c0,1,0.8,1.7,1.7,1.7h0c0.2,0,0.5,0,0.7-0.1l12.2-5.2C26,35.9,26.4,35.2,26.4,34.5z M14.1,37.1v-5.2l6,2.6L14.1,37.1z"/>
<path class="st0" d="M55.3,83.9c0.6,0.3,1.3,0.2,1.8-0.2l8.7-7c0.7-0.6,0.9-1.7,0.3-2.4c-0.2-0.2-0.4-0.4-0.7-0.5l-8.7-3.5
	c-0.9-0.4-1.9,0.1-2.3,1c0,0,0,0,0,0c-0.1,0.2-0.1,0.4-0.1,0.6v10.5C54.3,83,54.7,83.6,55.3,83.9z M57.8,74.4l3.5,1.4l-3.5,2.8V74.4
	z"/>
<path class="st0" d="M61.3,68.3c3.9,0,7-3.1,7-7s-3.1-7-7-7s-7,3.1-7,7S57.5,68.3,61.3,68.3L61.3,68.3z M61.3,57.9
	c1.9,0,3.5,1.6,3.5,3.5c0,1.9-1.6,3.5-3.5,3.5c-1.9,0-3.5-1.6-3.5-3.5C57.8,59.4,59.4,57.9,61.3,57.9L61.3,57.9z"/>
<path class="st0" d="M70.1,75.3c0.2,0,0.4,0,0.6-0.1l10.5-3.5c0.9-0.3,1.4-1.3,1.1-2.2c0,0,0,0,0,0c-0.1-0.3-0.2-0.5-0.4-0.7l-7-7
	c-0.7-0.7-1.8-0.7-2.5,0c-0.2,0.2-0.3,0.4-0.4,0.7L68.4,73c-0.3,0.9,0.2,1.9,1.1,2.2C69.7,75.3,69.9,75.3,70.1,75.3z M74.3,66.3l3,3
	l-4.5,1.5L74.3,66.3z"/>
<path class="st0" d="M37.9,20.1c-3.9,0-7,3.1-7,7s3.1,7,7,7s7-3.1,7-7l0,0C44.9,23.2,41.8,20.1,37.9,20.1z M37.9,30.5
	c-1.9,0-3.5-1.6-3.5-3.5c0-1.9,1.6-3.5,3.5-3.5c1.9,0,3.5,1.6,3.5,3.5c0,0,0,0,0,0C41.4,29,39.9,30.5,37.9,30.5z"/>
<path class="st0" d="M14.3,18.2l8.7,7c0.7,0.6,1.8,0.5,2.4-0.3c0.2-0.3,0.4-0.7,0.4-1.1V11.6c0-1-0.8-1.7-1.7-1.7l0,0
	c-0.3,0-0.6,0.1-0.9,0.2l-8.7,5.2c-0.8,0.5-1.1,1.6-0.6,2.4C14,17.9,14.2,18,14.3,18.2z M22.4,14.7v5.5L18.5,17L22.4,14.7z"/>
<path class="st0" d="M30.9,20.1c0.2,0,0.3,0,0.5-0.1l12.2-3.5c0.9-0.3,1.5-1.2,1.2-2.2c-0.1-0.3-0.2-0.5-0.5-0.8l-7-7
	c-0.7-0.7-1.8-0.7-2.4,0c-0.1,0.1-0.3,0.3-0.3,0.5l-5.2,10.5c-0.4,0.9-0.1,1.9,0.8,2.3C30.4,20,30.7,20.1,30.9,20.1z M36.7,10.8
	l3.2,3.1l-5.5,1.6L36.7,10.8z"/>
<rect x="0.4" y="46.9" class="st0" width="99" height="3.1"/>
<rect x="48.4" y="0.4" class="st0" width="3.1" height="99"/>
<path class="st0" d="M79.4,99.9H20.5C9.2,99.9,0,90.7,0,79.4V20.5C0,9.2,9.2,0,20.5,0h58.9c11.3,0,20.5,9.2,20.5,20.5v58.9
	C99.9,90.7,90.7,99.9,79.4,99.9z M20.5,3C10.8,3,3,10.8,3,20.5v58.9c0,9.7,7.8,17.5,17.5,17.5h58.9c9.7,0,17.5-7.8,17.5-17.5V20.5
	C96.9,10.8,89,3,79.4,3H20.5z"/>
</svg>
