<svg xmlns="http://www.w3.org/2000/svg" width="340.333" height="340.333"><path d="M340.278 60.321c0-16.126-6.268-31.274-17.646-42.653C311.238 6.274 296.09 0 279.979 0c-16.112 0-31.261 6.274-42.655 17.668l-48.137 48.138a36.908 36.908 0 0 0-9.422-1.216c-9.857 0-19.126 3.838-26.099 10.81a36.879 36.879 0 0 0-8.419 39.177L23.325 236.499a14.998 14.998 0 0 0-4.382 11.173l1.36 36.012-18.026 29.315a14.998 14.998 0 0 0 2.171 18.463l4.476 4.478a14.985 14.985 0 0 0 10.611 4.394c2.713 0 5.444-.734 7.88-2.239l29.358-18.142 35.828 1.405a14.986 14.986 0 0 0 11.194-4.382l121.93-121.93a37.2 37.2 0 0 0 13.083 2.39c9.856 0 19.123-3.838 26.093-10.808 9.29-9.29 12.889-22.93 9.59-35.515l48.138-48.14c11.382-11.379 17.649-26.527 17.649-42.652zM83.506 281.634l-23.951-.938-.903-23.893 112.106-112.105 24.843 24.843L83.506 281.634z"/></svg>