<?xml version="1.0" encoding="utf-8"?>
<!-- Generator: Adobe Illustrator 23.0.1, SVG Export Plug-In . SVG Version: 6.00 Build 0)  -->
<svg version="1.1" id="Capa_1" xmlns="http://www.w3.org/2000/svg" xmlns:xlink="http://www.w3.org/1999/xlink" x="0px" y="0px"
	 viewBox="0 0 512 512" style="enable-background:new 0 0 512 512;" xml:space="preserve">
<style type="text/css">
	.st0{fill:#FFFFFF;}
</style>
<g>
	<g>
		<path class="st0" d="M288.6,113.1c-0.4-2.8-0.4-5.7-0.1-8.5c0.5-4.2-2.5-7.9-6.6-8.4c-4.2-0.5-7.9,2.5-8.4,6.6s-0.4,8.3,0.1,12.3
			c0.6,4.1,4.4,7,8.6,6.5c1.7-0.2,3.2-1,4.3-2.1C288.1,117.9,288.9,115.6,288.6,113.1z"/>
	</g>
</g>
<g>
	<g>
		<path class="st0" d="M172.1,176.6c-2.6-3.3-7.4-3.9-10.6-1.3c-3.2,2.6-6.1,5.5-8.6,8.8s-1.9,8.1,1.5,10.6c1.4,1,3,1.5,4.6,1.5
			c2.3,0,4.6-1,6.1-3c1.7-2.3,3.7-4.3,5.9-6.1C174.1,184.7,174.7,179.9,172.1,176.6z"/>
	</g>
</g>
<g>
	<g>
		<path class="st0" d="M158.3,213.1c0-1.4,0.1-2.9,0.3-4.3c0.5-4.2-2.4-8-6.5-8.5s-8,2.4-8.5,6.5c-0.3,2-0.4,4.1-0.4,6.2
			c0,2.1,0.1,4.1,0.4,6.1c0.5,3.8,3.8,6.6,7.5,6.6c0.3,0,0.6,0,1-0.1c4.2-0.5,7.1-4.3,6.6-8.5C158.3,215.9,158.3,214.5,158.3,213.1z
			"/>
	</g>
</g>
<g>
	<g>
		<path class="st0" d="M229.4,184.2c-2.5-3.3-5.4-6.3-8.6-8.8c-3.3-2.6-8.1-2-10.6,1.2c-2.6,3.3-2,8.1,1.2,10.6
			c2.2,1.8,4.2,3.8,5.9,6.1c1.5,2,3.8,3,6.1,3c1.6,0,3.2-0.5,4.6-1.5C231.3,192.3,232,187.5,229.4,184.2z"/>
	</g>
</g>
<g>
	<g>
		<path class="st0" d="M491.6,184.1c7.9-4.5,14.1-11.2,17.4-19c5.3-12.1,3.5-24.9-4.9-35.2c-9.7-11.8-25.8-17.2-41-13.8
			c-7.6,1.7-18,2.2-24.3-5c-9.4-10.4-24-15.6-39-13.9c-15.1,1.7-28.2,10.1-35.1,22.5c-2.8,5-7.9,8-13.3,8.3l-69.6-69.6
			c-2.9-2.9-7-4.5-11.2-4.3c-4.1,0.2-8,2.2-10.6,5.4c-6.6,8.3-11.3,17.5-14.1,27.2c-12.4-3.2-25.2-1.6-35.6,4.4l-17.8-17.8
			c-8.9-8.9-23.3-8.9-32.2,0c-5,5-7.2,11.8-6.5,18.4c-18.4,0.9-35.3,12.3-42.1,29.7c-0.8,2-2,3.8-3.5,5.3c-3,3-3,7.7,0,10.7
			c1.5,1.5,3.4,2.2,5.4,2.2c1.9,0,3.9-0.7,5.3-2.2c3-3,5.4-6.6,6.9-10.6c6.2-16,23.2-21.9,36.4-19.5l19.5,19.5
			c4.4,4.4,10.3,6.6,16.1,6.6s11.6-2.2,16.1-6.7c6.3-6.3,8.1-15.5,5.4-23.5c6.8-3.4,15.1-4.2,23.2-2c0.2,0.1,0.4,0.1,0.6,0.1
			c-2,22.4,5.7,45.3,22.7,62.2c5.7,5.7,12,10.3,19,14c-2.3,4.8-6.8,7.9-11.3,8.7c-2.7,0.5-5.3,1.3-7.8,2.3
			c-10.2-31.4-39.7-54.3-74.5-54.3c-22,0-42,9.2-56.2,23.9c-5.9-1.5-12-1.5-17.6,0.2c-4,1.2-8.3-0.6-10.4-4.3
			c-5.2-9.3-15-15.7-26.2-16.9c-11.2-1.3-22.1,2.7-29.2,10.6c-3.6,4.1-10,3.8-14.6,2.8c-11.4-2.6-23.5,1.5-30.8,10.3
			c-6.4,7.8-7.8,17.9-3.8,27c2.5,5.9,7.2,11,13.1,14.4c9.4,5.4,8.8,9.7,8.7,11.2c-1.1,9.8,1.6,19.9,7.5,27.8
			c-8.4,2-15.8,6.8-21.2,13.9c-7.2,9.5-9.5,21.6-6.3,33.2C17.6,335.7,53.7,377,106,405c1.1,14,7.3,26.9,17.5,36.7
			c10.8,10.3,24.9,15.9,39.7,15.9h179.2c14.8,0,28.9-5.7,39.7-15.9c10.3-9.8,16.4-22.7,17.5-36.7c52.3-28,88.4-69.2,101.8-116.5
			c3.3-11.6,1-23.8-6.2-33.4c-6.7-8.9-16.8-14.2-27.8-14.8c7.9-10.6,11.7-24.2,10.2-37.4C477.2,200.7,476.3,192.8,491.6,184.1z
			 M203.1,116.3c-3,3-7.8,3-10.7,0L171,94.9c-3-3-3-7.8,0-10.7c1.5-1.5,3.4-2.2,5.4-2.2c1.9,0,3.9,0.7,5.4,2.2l21.4,21.4
			C206.1,108.6,206.1,113.4,203.1,116.3z M276.5,153.2c-22.7-22.7-24.8-58.5-5-83.6l51.5,51.5c-3.8,0.5-7.8-0.6-10.7-3.6
			c-3-3-7.8-3-10.7,0c-3,3-3,7.8,0,10.7c2.1,2.1,4.4,3.8,7,5.1c-1,0.6-1.9,1.2-2.8,1.9c-0.8,0.6-1.6,1.2-2.4,1.9
			c-0.5-1-1.2-1.8-2.1-2.5c-1.1-0.9-2.2-1.8-3.2-2.8s-2-2.1-2.8-3.2c-2.6-3.3-7.3-3.9-10.6-1.4c-3.3,2.6-3.9,7.3-1.4,10.6
			c1.3,1.6,2.6,3.2,4.1,4.7s3,2.8,4.6,4.1c0.6,0.5,1.2,0.8,1.9,1.1c-2.9,4.4-5,9.3-6.2,14.4C283.5,159.5,279.8,156.6,276.5,153.2z
			 M191.1,149.9c29.4,0,54.1,20.2,61.2,47.4c-4.4,3.9-8.2,8.7-11,14.1c-0.8,1.6-1.6,3.3-2.2,4.9c0.1-1.1,0.1-2.1,0.1-3.2
			c0-2.1-0.1-4.1-0.4-6.1c-0.5-4.2-4.3-7.1-8.5-6.6s-7.1,4.3-6.6,8.5c0.2,1.4,0.3,2.8,0.3,4.2s-0.1,2.9-0.3,4.3
			c-0.5,4.2,2.4,8,6.5,8.5c0.3,0,0.7,0.1,1,0.1c2.2,0,4.3-1,5.7-2.6c-1.3,5.7-1.5,11.6-0.5,17.3h-6.1c1.5-3.2,0.6-7-2.3-9.2
			c-3.3-2.5-8.1-1.9-10.6,1.5c-1.7,2.3-3.7,4.3-5.9,6.1c-0.6,0.5-1.2,1.1-1.6,1.7h-14.7c13.4-1.9,23.8-13.5,23.8-27.5
			c0-12.7-8.6-23.4-20.2-26.7v-13.7c0-4.2-3.4-7.6-7.6-7.6s-7.6,3.4-7.6,7.6v23.2h0.6c1.2,2.7,3.8,4.5,6.9,4.5
			c7,0,12.6,5.7,12.6,12.6s-5.7,12.6-12.6,12.6s-12.6-5.7-12.6-12.6c0-4.2-3.4-7.6-7.6-7.6s-7.6,3.4-7.6,7.6
			c0,14,10.4,25.6,23.8,27.5h-14.7c-0.4-0.6-1-1.2-1.6-1.7c-2.2-1.8-4.2-3.8-5.9-6.1c-2.5-3.3-7.3-4-10.6-1.5
			c-2.9,2.2-3.8,6.1-2.3,9.3h-17.7c-4-8.3-6.3-17.6-6.3-27.5C127.9,178.2,156.3,149.9,191.1,149.9z M22.8,189.4
			c-3-1.7-5.5-4.3-6.7-7.3c-2.2-5-0.3-8.9,1.6-11.3c3-3.7,9.1-6.7,15.8-5.2c12.3,2.7,22.7,0,29.2-7.5c3.8-4.2,9.8-6.3,16.2-5.6
			s11.9,4.2,14.7,9.3c5.6,9.9,17,14.6,27.9,11.4c0.8-0.2,1.5-0.4,2.3-0.5c-2.6,4.4-4.8,9-6.6,13.9c-0.8-1.1-1.6-2.1-2.5-3.1
			c-8.9-8.9-23.3-8.9-32.2,0L61.2,205c-8.9,8.9-8.9,23.3,0,32.2c1.3,1.3,2.8,2.4,4.3,3.4h-18c0.2-2.1-0.5-4.3-2.1-5.9
			c-4.8-5-7.2-12.2-6.4-19.1C39.9,208.4,37.8,198,22.8,189.4z M93.4,237.2l19.5-19.5c0.5,8,2.2,15.7,4.9,22.9H89
			C90.6,239.6,92,238.5,93.4,237.2z M82.7,226.5c-3,3-7.8,3-10.7,0c-1.4-1.4-2.2-3.3-2.2-5.4c0-2,0.8-3.9,2.2-5.4l21.4-21.4
			c1.4-1.4,3.3-2.2,5.4-2.2s3.9,0.8,5.4,2.2c1.4,1.4,2.2,3.3,2.2,5.4s-0.8,3.9-2.2,5.4L82.7,226.5z M483.1,264.5
			c4.4,5.8,5.7,13.1,3.7,20.1c-12.3,43.4-46,81.5-94.9,107.5H182c-4.2,0-7.6,3.4-7.6,7.6s3.4,7.6,7.6,7.6h202.1
			c-3.3,19.9-21,35.4-41.7,35.4H163.2c-20.7,0-38.5-15.5-41.7-35.4h30.3c4.2,0,7.6-3.4,7.6-7.6s-3.4-7.6-7.6-7.6h-38.1
			c-49-26-82.7-64.2-95-107.7c-2-6.9-0.6-14.2,3.7-19.9c4.2-5.6,10.7-8.8,17.6-8.8h203.7c0.9,0.3,1.8,0.5,2.8,0.5
			c0.9,0,1.9-0.2,2.8-0.5h164.4l0,0l0,0h51.7C472.4,255.7,478.8,258.9,483.1,264.5z M316,240.6c5.6-19.5,23.5-33.3,44.5-33.3
			c21.2,0,38.9,13.9,44.3,33.4L316,240.6L316,240.6z M462.5,205c1.3,10.9-2.5,22-10.1,29.9c-1.5,1.6-2.2,3.6-2.1,5.6h-29.9
			c-5.7-28.1-30.3-48.5-59.8-48.5c-29.4,0-54.1,20.4-60.1,48.5h-48.6c-1.8-7.3-0.8-15.1,2.9-22.2c4.6-8.8,12.7-15.1,21.6-16.8
			c14.3-2.6,24.9-15.2,25.3-30c0.1-9.3,4.9-18,13.1-24.1c8.1-6,18.2-8,27-5.4c14.1,4.1,29-2,36.3-14.8c4.5-8.1,13.4-13.7,23.6-14.8
			c10.2-1.2,19.9,2.2,26,8.9c8.7,9.9,22.5,13.3,38.9,9.7c9.5-2.1,19.9,1.3,26,8.6c2.8,3.3,6.8,10.3,2.7,19.5c-2,4.7-6,9-11,11.9
			C464.2,182.2,461.4,195.7,462.5,205z"/>
	</g>
</g>
<g>
	<g>
		<path class="st0" d="M424.5,148.2h-30.3c-12.5,0-22.7,10.2-22.7,22.7s10.2,22.7,22.7,22.7h30.3c12.5,0,22.7-10.2,22.7-22.7
			C447.3,158.4,437.1,148.2,424.5,148.2z M424.5,178.6h-30.3c-4.2,0-7.6-3.4-7.6-7.6c0-4.2,3.4-7.6,7.6-7.6h30.3
			c4.2,0,7.6,3.4,7.6,7.6C432.1,175.2,428.7,178.6,424.5,178.6z"/>
	</g>
</g>
</svg>
