<?xml version="1.0" encoding="utf-8"?>
<!-- Generator: Adobe Illustrator 23.0.1, SVG Export Plug-In . SVG Version: 6.00 Build 0)  -->
<svg version="1.1" id="Слой_1" xmlns="http://www.w3.org/2000/svg" xmlns:xlink="http://www.w3.org/1999/xlink" x="0px" y="0px"
	 viewBox="0 0 512 512" style="enable-background:new 0 0 512 512;" xml:space="preserve">
<style type="text/css">
	.st0{fill:#FFFFFF;}
</style>
<g id="Out_line">
	<path class="st0" d="M275.3,300.8c30.3-10.3,52.7-44.4,52.7-84.8c0-48.5-32.3-88-72-88s-72,39.5-72,88c0,40.3,22.3,74.4,52.7,84.8
		l-11.8,23.6c-1.8,3.6-0.6,8,2.7,10.2c4.7,3.2,10,5.5,15.5,7c-0.7,1.3-1.3,2.5-2.1,3.9c-4.2,7.7-9,16.5-9,33.2s4.8,25.5,9,33.2
		c3.8,6.9,7,12.9,7,25.5s-3.3,18.6-7,25.5c-4.2,7.7-9,16.5-9,33.2h16c0-12.6,3.3-18.6,7-25.5c4.2-7.7,9-16.5,9-33.2
		c0-16.7-4.8-25.5-9-33.2c-3.8-6.9-7-12.9-7-25.5c0-12.6,3.3-18.6,7-25.5c1.8-3.2,3.5-6.6,4.9-10c8.8-0.7,17.2-3.6,24.5-8.5
		c3.4-2.2,4.5-6.6,2.7-10.2L275.3,300.8z M200,216c0-39.7,25.1-72,56-72s56,32.3,56,72s-25.1,72-56,72S200,255.7,200,216z
		 M242.6,324.6l10.4-20.7c1,0.1,2,0.1,3,0.1s2,0,3-0.1l10.4,20.7C260.8,328.2,251.2,328.2,242.6,324.6z"/>
	<path class="st0" d="M256,160c-8,0-15.7,3.4-22.4,9.9l11.2,11.5c2.5-2.5,6.6-5.4,11.3-5.4V160z"/>
	<path class="st0" d="M236.1,194.9l-14.8-6c-3.5,8.6-5.3,17.9-5.2,27.2c-0.1,12.3,3.1,24.3,9.1,35l13.8-8c-4.6-8.2-7-17.5-6.9-27
		C232,208.8,233.4,201.6,236.1,194.9z"/>
	<path class="st0" d="M256,32c17.4,0,33.5,10.2,44.2,27.9l13.7-8.3C300.4,29.3,278.8,16,256,16c-22.9,0-44.6,13.4-58.1,35.9
		l13.7,8.2C222.4,42.2,238.6,32,256,32z"/>
	<path class="st0" d="M256,64V48c-8,0-15.7,3.4-22.4,9.9l11.2,11.5C247.3,66.9,251.3,64,256,64z"/>
	<path class="st0" d="M203.3,294.8c-7.9,5.9-17.5,9.1-27.3,9.2c-30.9,0-56-32.3-56-72s25.1-72,56-72c2.3,0,4.5,0.2,6.8,0.5l2.5-15.8
		c-3.1-0.5-6.1-0.7-9.2-0.7c-39.7,0-72,39.5-72,88c0,40.3,22.3,74.4,52.7,84.8l-11.8,23.6c-1.8,3.6-0.6,8,2.7,10.2
		c4.4,2.9,9.2,5.2,14.3,6.6c-0.2,0.4-0.5,0.8-0.7,1.3c-4.3,7.1-9.1,15.2-9.1,30.8c0,15.5,4.9,23.6,9.1,30.8
		c3.8,6.4,6.9,11.4,6.9,22.6s-3,16.2-6.9,22.6c-4.3,7.1-9.1,15.2-9.1,30.8h16c0-11.1,3-16.2,6.9-22.6c4.3-7.1,9.1-15.2,9.1-30.8
		s-4.9-23.6-9.1-30.8c-3.8-6.4-6.9-11.4-6.9-22.6c0-11.1,3-16.2,6.9-22.5c1.4-2.3,2.9-4.8,4.2-7.6c9.1-0.5,17.8-3.5,25.4-8.5
		c3.4-2.2,4.5-6.6,2.7-10.2l-11.8-23.6c6.2-2.1,12.1-5.2,17.4-9L203.3,294.8z M189.4,340.6c-8.6,3.5-18.2,3.5-26.8,0l10.4-20.7
		c1,0.1,2,0.1,3,0.1c1,0,2,0,3-0.1L189.4,340.6z"/>
	<path class="st0" d="M176,192v-16c-8,0-15.7,3.4-22.4,9.9l11.2,11.5C167.3,194.9,171.3,192,176,192z"/>
	<path class="st0" d="M141.2,204.8c-3.5,8.6-5.3,17.9-5.2,27.2c-0.1,12.3,3.1,24.3,9.1,35l13.8-8c-4.6-8.2-7-17.5-6.9-27
		c0-7.2,1.4-14.4,4.1-21.1L141.2,204.8z"/>
	<path class="st0" d="M104.6,287.3l-3-9.4c-4.4,1.4-8.9,2.1-13.5,2.1c-30.9,0-56-32.3-56-72s25.1-72,56-72
		c12.5,0,24.4,5.3,34.3,15.2l11.3-11.3c-12.8-12.8-29-19.9-45.7-19.9c-39.7,0-72,39.5-72,88c0,40.3,22.3,74.4,52.7,84.8l-11.8,23.6
		c-1.8,3.6-0.6,8,2.7,10.2c3.3,2.2,6.7,4,10.4,5.3c-3.2,7.3-6,16.4-6,30.7c0,18.5,4.7,28.2,8.8,36.8c3.9,8.1,7.2,15,7.2,29.9
		c0,14.8-3.3,21.8-7.2,29.9c-4.1,8.6-8.8,18.3-8.8,36.8h16c0-14.8,3.3-21.8,7.2-29.9c4.1-8.6,8.8-18.3,8.8-36.8s-4.7-28.2-8.8-36.8
		c-3.9-8.1-7.2-15-7.2-29.9c0-13.3,2.7-20.3,6-27.4c0.7,0,1.3,0,2,0c10.1,0,20-3,28.4-8.6c3.4-2.2,4.5-6.6,2.7-10.2L104.6,287.3z
		 M74.6,316.6L85,295.9c1,0.1,2,0.1,3,0.1c1,0,2,0,3-0.1l10.4,20.7C92.8,320.2,83.2,320.2,74.6,316.6L74.6,316.6z"/>
	<path class="st0" d="M88,168v-16c-8,0-15.7,3.4-22.4,9.9l11.2,11.5C79.3,170.9,83.3,168,88,168z"/>
	<path class="st0" d="M53.2,180.8c-3.5,8.6-5.3,17.9-5.2,27.2c-0.1,12.3,3.1,24.3,9.1,35l13.8-8c-4.6-8.2-7-17.5-6.9-27
		c0-7.2,1.4-14.4,4.1-21.1L53.2,180.8z"/>
	<path class="st0" d="M152,64c26.4,0,49.4,24.1,54.8,57.3l15.8-2.6C216,77.7,186.3,48,152,48c-28.9,0-54.9,20.9-66.2,53.4l15.1,5.3
		C109.9,80.7,130,64,152,64z"/>
	<path class="st0" d="M152,96V80c-8,0-15.7,3.4-22.4,9.9l11.2,11.5C143.3,98.9,147.3,96,152,96z"/>
	<path class="st0" d="M336,144c-3.1,0-6.2,0.2-9.2,0.7l2.5,15.8c2.2-0.3,4.5-0.5,6.8-0.5c30.9,0,56,32.3,56,72c0,26-11,50-28.7,62.8
		c-16.1,12.2-38.5,12.2-54.6,0l-9.4,13c5.3,3.9,11.1,6.9,17.4,9l-11.8,23.6c-1.8,3.6-0.6,8,2.7,10.2c4.4,2.9,9.2,5.2,14.3,6.6
		c-0.2,0.4-0.5,0.8-0.7,1.3c-4.3,7.1-9.1,15.2-9.1,30.8c0,15.5,4.9,23.6,9.1,30.8c3.8,6.4,6.9,11.4,6.9,22.6s-3,16.2-6.9,22.6
		c-4.3,7.1-9.1,15.2-9.1,30.8h16c0-11.1,3-16.2,6.9-22.6c4.3-7.1,9.1-15.2,9.1-30.8s-4.9-23.6-9.1-30.8c-3.8-6.4-6.9-11.4-6.9-22.6
		c0-11.1,3-16.2,6.9-22.5c1.4-2.3,2.9-4.8,4.2-7.6c9.1-0.5,17.8-3.5,25.4-8.5c3.4-2.2,4.5-6.6,2.7-10.2l-11.8-23.6
		c6.2-2.1,12.1-5.2,17.4-9C394.5,292,408,263,408,232C408,183.5,375.7,144,336,144z M349.4,340.6c-8.6,3.5-18.2,3.5-26.8,0
		l10.4-20.7c1,0.1,2,0.1,3,0.1s2,0,3-0.1L349.4,340.6z"/>
	<path class="st0" d="M496,208c0-48.5-32.3-88-72-88c-16.6,0-32.9,7.1-45.7,19.9l11.3,11.3c9.9-9.9,21.8-15.2,34.3-15.2
		c30.9,0,56,32.3,56,72s-25.1,72-56,72c-4.6,0-9.2-0.7-13.5-2.1l-3,9.4l-14.6,29.2c-1.8,3.6-0.6,8,2.7,10.2c3.3,2.2,6.7,4,10.4,5.3
		c-3.2,7.3-6,16.4-6,30.7c0,18.5,4.7,28.2,8.8,36.8c3.9,8.1,7.2,15,7.2,29.9c0,14.8-3.3,21.8-7.2,29.9c-4.1,8.6-8.8,18.3-8.8,36.8
		h16c0-14.8,3.3-21.8,7.2-29.9c4.1-8.6,8.8-18.3,8.8-36.8s-4.7-28.2-8.8-36.8c-3.9-8.1-7.2-15-7.2-29.9c0-13.3,2.7-20.3,6-27.4
		c0.7,0,1.3,0,2,0c10.1,0,20-3,28.4-8.6c3.4-2.2,4.5-6.6,2.7-10.2l-11.8-23.6C473.7,282.4,496,248.3,496,208z M437.4,316.6
		c-8.6,3.5-18.2,3.5-26.8,0l10.4-20.7c1,0.1,2,0.1,3,0.1c1,0,2,0,3-0.1L437.4,316.6z"/>
	<path class="st0" d="M424,168v-16c-8,0-15.7,3.4-22.4,9.9l11.2,11.5C415.3,170.9,419.3,168,424,168z"/>
	<path class="st0" d="M305.2,121.3C310.6,88.1,333.6,64,360,64c22,0,42.1,16.7,51.1,42.6l15.1-5.3C414.9,68.9,388.9,48,360,48
		c-34.3,0-64,29.7-70.6,70.7L305.2,121.3z"/>
	<path class="st0" d="M360,96V80c-8,0-15.7,3.4-22.4,9.9l11.2,11.5C351.3,98.9,355.3,96,360,96z"/>
	<path class="st0" d="M320.5,127l15.9,1.9c0.6-4.8,1.8-9.6,3.6-14.1l-14.8-6C322.9,114.6,321.3,120.8,320.5,127z"/>
</g>
</svg>
