<!DOCTYPE svg PUBLIC "-//W3C//DTD SVG 20010904//EN" "http://www.w3.org/TR/2001/REC-SVG-20010904/DTD/svg10.dtd">
<svg version="1.0" xmlns="http://www.w3.org/2000/svg" width="162px" height="154px" viewBox="0 0 1620 1540" preserveAspectRatio="xMidYMid meet">
<g id="layer101" fill="#ba7100" stroke="none">
 <path d="M159 1526 c-56 -20 -96 -53 -126 -104 l-28 -47 0 -610 0 -610 28 -47 c18 -31 44 -57 75 -75 l47 -28 651 0 651 0 49 30 c30 19 60 49 79 79 l30 49 0 607 0 607 -30 49 c-19 30 -49 60 -79 79 l-49 30 -631 2 c-499 2 -639 0 -667 -11z"/>
 </g>
<g id="layer102" fill="#fe9c00" stroke="none">
 <path d="M125 1493 c-44 -23 -74 -53 -96 -95 -18 -35 -19 -67 -19 -638 0 -571 1 -603 19 -638 22 -43 53 -73 98 -96 28 -14 102 -16 673 -16 610 0 643 1 678 19 43 22 73 53 96 98 14 29 16 92 16 560 l-1 527 -104 -104 c-57 -57 -107 -101 -111 -97 -4 3 43 57 105 119 l111 113 0 54 0 55 -35 -34 c-48 -46 -58 -29 -11 19 38 38 38 39 22 70 -9 17 -20 31 -24 31 -4 0 -68 -61 -141 -134 -74 -74 -139 -132 -144 -129 -5 3 53 68 129 145 133 133 138 140 119 154 -48 36 -62 31 -146 -52 -43 -43 -82 -75 -86 -71 -4 4 26 41 67 82 l74 75 -85 0 c-85 0 -86 0 -82 -23 4 -21 1 -24 -29 -23 -18 0 -41 -4 -50 -8 -15 -7 -18 -3 -18 23 l0 31 -497 0 c-434 -1 -502 -3 -528 -17z m1006 -103 c25 -14 24 -46 -2 -60 -37 -20 -67 28 -37 58 15 15 15 15 39 2z m67 -127 c-21 -20 -40 -34 -44 -30 -9 9 48 67 66 67 9 0 0 -14 -22 -37z m126 -177 c-77 -80 -146 -146 -154 -146 -8 0 52 67 135 150 82 82 151 147 153 145 3 -2 -58 -70 -134 -149z m-219 4 c3 -5 14 -10 24 -10 13 0 17 -8 17 -35 0 -25 -4 -35 -16 -35 -9 0 -22 -6 -29 -12 -11 -11 -14 -10 -18 0 -3 7 -14 22 -26 32 -18 17 -18 20 -4 26 9 3 19 14 22 25 7 21 20 25 30 9z m435 -128 c0 -10 5 -23 12 -30 9 -9 5 -18 -17 -38 -24 -23 -29 -24 -37 -10 -5 9 -18 16 -28 16 -21 0 -27 15 -10 25 6 4 8 15 5 25 -5 15 0 19 27 23 18 2 36 5 41 5 4 1 7 -6 7 -16z m-224 -114 c4 -15 1 -25 -12 -35 -23 -17 -29 -16 -48 3 -12 12 -13 20 -6 35 15 27 57 25 66 -3z"/>
 <path d="M1104 1366 c-8 -22 3 -33 18 -18 9 9 9 15 0 24 -9 9 -13 7 -18 -6z"/>
 <path d="M1087 1057 c-7 -20 3 -36 19 -30 8 3 14 11 14 18 0 17 -27 27 -33 12z"/>
 <path d="M1487 936 c-6 -15 19 -30 33 -21 13 8 1 35 -15 35 -7 0 -15 -6 -18 -14z"/>
 <path d="M1271 846 c-9 -10 -9 -16 -1 -21 17 -10 37 12 24 25 -8 8 -15 6 -23 -4z"/>
 <path d="M1170 1495 c0 -12 5 -13 18 -7 9 5 23 7 31 4 8 -3 11 0 7 7 -11 17 -56 14 -56 -4z"/>
 </g>

</svg>