<?xml version="1.0" encoding="utf-8"?>
<!-- Generator: Adobe Illustrator 23.0.1, SVG Export Plug-In . SVG Version: 6.00 Build 0)  -->
<svg version="1.1" id="Слой_1" xmlns="http://www.w3.org/2000/svg" xmlns:xlink="http://www.w3.org/1999/xlink" x="0px" y="0px"
	 viewBox="0 0 512 512" style="enable-background:new 0 0 512 512;" xml:space="preserve">
<style type="text/css">
	.st0{fill:#FFA500;}
</style>
<g id="Noodles-chinese-food">
	<path class="st0" d="M488,128c4.4,0,8-3.6,8-8V88c0-4.4-3.6-8-8-8H336c0-4.4-3.6-8-8-8h-40v-8c0-4.4-3.6-8-8-8h-48
		c-4.4,0-8,3.6-8,8v8h-32v-8c0-4.4-3.6-8-8-8h-48c-4.4,0-8,3.6-8,8v16h-24c-4.4,0-8,3.6-8,8v32c0,4.4,3.6,8,8,8h24v8h-24
		c-4.4,0-8,3.6-8,8v32c0,4.4,3.6,8,8,8h24v24H88c-4.4,0-8,3.6-8,8c0,0.2,0,0.3,0,0.5l0.2,2.8L28,249.1c-3.5,2-4.9,6.2-3.5,9.9l16,40
		c1.1,2.7,3.5,4.6,6.4,5c0.4,0,0.7,0.1,1.1,0.1c2.5,0,4.9-1.2,6.4-3.2L82.8,263L96,488.5c0.3,4.2,3.8,7.5,8,7.5h256
		c4.2,0,7.7-3.3,8-7.5L381.3,263l28.3,37.8c1.5,2,3.9,3.2,6.4,3.2c0.4,0,0.7,0,1-0.1c2.9-0.4,5.3-2.3,6.4-5l16-40
		c1.5-3.7,0-7.9-3.5-9.9l-52.1-29.8l0.2-2.8c0.3-4.4-3.1-8.2-7.5-8.5c-0.2,0-0.3,0-0.5,0h-40v-24h152c4.4,0,8-3.6,8-8v-32
		c0-4.4-3.6-8-8-8H336v-8H488z M480,96v16H336V96H480z M363.1,224l-24,48H124.9l-24-48H363.1z M240,72h32v136h-32V72z M224,88v120
		h-32V88H224z M112,112V96h16v16H112z M112,168v-16h16v16H112z M144,72h32v136h-32V72z M50.1,279.8L42,259.5l39.2-22.4l0.1,1.2
		L50.1,279.8z M98.3,254.4l14.6,29.1c1.4,2.7,4.1,4.4,7.2,4.4h80v192h-88.5L98.3,254.4z M216,480V288h40v192H216z M352.5,480H272
		V288h72c3,0,5.8-1.7,7.2-4.4l14.6-29.1L352.5,480z M422,259.5l-8.1,20.3l-31.2-41.5l0.1-1.2L422,259.5z M288,208V88h32v120H288z
		 M480,152v16H336v-16H480z"/>
</g>
</svg>
