<?xml version="1.0" encoding="utf-8"?>
<!-- Generator: Adobe Illustrator 23.0.1, SVG Export Plug-In . SVG Version: 6.00 Build 0)  -->
<svg version="1.1" id="Слой_1" xmlns="http://www.w3.org/2000/svg" xmlns:xlink="http://www.w3.org/1999/xlink" x="0px" y="0px"
	 viewBox="0 0 511 512" style="enable-background:new 0 0 511 512;" xml:space="preserve">
<style type="text/css">
	.st0{fill:#FFA500;}
</style>
<path class="st0" d="M396.3,6.3c-0.7-4.1-4.5-6.9-8.6-6.2l-63.4,10.5c-4.8,0.8-8.7,4.2-10.2,8.8l-14.6,45.2H137.9
	c-6.3,0-12,3.8-14.4,9.6c-3.6,8.7-7.7,24.8-7,51.8c0.9,33.1,8.8,73.6,23.5,120.2c28.8,90.8,20.8,180.5,14,223.7
	c-0.2,1.3-0.4,2.5-0.6,3.8c-0.1,0.4-0.1,0.8-0.2,1.1c-0.3,1.9-0.7,3.8-1,5.7c-1.4,7.8,0.7,15.8,5.8,21.9c2.8,3.4,6.4,6,10.4,7.6
	c3.2,1.3,6.6,2,10.1,2h130.1c3.3,0,6.6-0.6,9.6-1.8c4.2-1.6,7.9-4.3,10.9-7.8c5.1-6.1,7.2-14.1,5.8-21.9c-0.3-1.7-0.6-3.5-0.9-5.2
	c-0.1-0.3-0.1-0.6-0.2-0.9c-1-6.2-2-12.6-2.8-19c0,0,0,0,0,0c-1.2-9.2-2.1-18.6-2.9-28c-0.3-4.1-3.9-7.2-8.1-6.9
	c-4.1,0.3-7.2,3.9-6.9,8.1c0.6,8.5,1.5,16.9,2.5,25.1c-2,1.5-4.5,2.4-7.1,2.4H178.6c-2.6,0-5-0.8-7-2.4c6.4-52,8.5-130.8-17.2-212
	c-17.8-56.3-22.8-95.2-22.9-121h16.6l-13.1,22.6c-2.8,4.9-1.1,11.1,3.7,13.9l32.5,18.8c1.6,0.9,3.3,1.4,5.1,1.4
	c3.5,0,6.9-1.8,8.8-5.1l18.8-32.5c2.8-4.9,1.1-11.1-3.7-13.9l-8.9-5.1h48.3c4.2,0,7.5-3.4,7.5-7.5s-3.4-7.5-7.5-7.5H132.2
	c1.1-13.6,3.7-21.7,5.3-25.7c0.1-0.2,0.2-0.3,0.4-0.3h156.7l-8.4,25.9h-11.4c-4.1,0-7.5,3.4-7.5,7.5s3.4,7.5,7.5,7.5h81
	c0,1.6,0,3.3-0.1,5c-0.8,31.7-8.5,70.8-22.8,116c-14.7,46.3-21.8,97.1-21.2,150.7c0.1,4.1,3.4,7.4,7.5,7.4h0.1
	c4.2,0,7.5-3.4,7.4-7.6c-0.6-52.1,6.3-101.2,20.5-146c19.8-62.5,24.4-105,23.5-132.7c0-0.1,0-0.2,0-0.3c0-0.3,0-0.6-0.1-0.9
	c-0.8-19.4-4.2-31.4-6.8-37.9c-2.4-5.9-8-9.6-14.4-9.6h-34.2l12.7-39.4l62.2-10.3C394.2,14.2,397,10.4,396.3,6.3z M167.1,483.2
	c0.8-4.2,1.5-8.9,2.3-13.8c2.9,1.1,6,1.6,9.2,1.6h130.1c3.2,0,6.3-0.6,9.2-1.6c0.7,4.7,1.5,9.3,2.3,13.8c0.6,3.4-0.3,6.9-2.5,9.6
	c-1.1,1.3-2.5,2.4-4,3.1c-1.5,0.7-3.2,1.1-5,1.1H178.6c-1.3,0-2.6-0.2-3.8-0.6c-2-0.7-3.8-1.9-5.2-3.6
	C167.4,490.1,166.5,486.6,167.1,483.2z M164.5,122.4l24.1,13.9l-13.9,24.2l-24.1-13.9L164.5,122.4z M349.5,79.7
	c0.2,0,0.4,0.1,0.4,0.3c1.7,4.2,4.2,12.4,5.3,25.7H302l8.4-25.9H349.5z"/>
<path class="st0" d="M233.7,216.8c2,1.7,4.4,2.5,6.8,2.5c3.1,0,6.2-1.3,8.3-3.9l29-35c1.8-2.2,2.7-5,2.4-7.9
	c-0.3-2.9-1.6-5.4-3.8-7.3l-35-29c-4.6-3.8-11.3-3.1-15.1,1.4l-29,35c-1.8,2.2-2.7,5-2.4,7.9c0.3,2.9,1.6,5.4,3.8,7.3L233.7,216.8z
	 M235.1,150.6l28.4,23.5L240,202.5L211.6,179L235.1,150.6z"/>
<path class="st0" d="M239,279.3l39.5,29.6c1.9,1.4,4.2,2.2,6.6,2.2c0.5,0,1.1,0,1.6-0.1c2.9-0.4,5.5-1.9,7.2-4.3l29.6-39.5
	c1.8-2.4,2.5-5.3,2.1-8.2c-0.4-2.9-1.9-5.5-4.3-7.2l-39.5-29.6c-4.9-3.6-11.8-2.6-15.4,2.2l-29.6,39.5
	C233.2,268.7,234.2,275.6,239,279.3z M276,236.6l33.1,24.7l-24.8,33.1l-33.1-24.7L276,236.6z"/>
<path class="st0" d="M298.6,177.2c0.1,0,0.3,0,0.4,0l30.4-1.2c5.3-0.2,9.5-4.7,9.3-10l-1.2-30.4c-0.2-5.3-4.7-9.5-10-9.3l-30.4,1.2
	c-5.3,0.2-9.5,4.7-9.3,10l1.2,30.4C289.2,173.1,293.5,177.2,298.6,177.2z M322.7,141.5l0.8,19.7l-19.7,0.8l-0.8-19.7L322.7,141.5z"
	/>
<path class="st0" d="M213.4,218.5l-31.9,3.2c-2.6,0.3-4.9,1.5-6.6,3.6c-1.7,2-2.4,4.6-2.2,7.2l3.2,31.9c0.3,2.6,1.5,4.9,3.6,6.6
	c1.8,1.4,3.9,2.2,6.2,2.2c0.3,0,0.7,0,1-0.1l31.9-3.2c2.6-0.3,4.9-1.5,6.6-3.6s2.4-4.6,2.2-7.2l-3.2-31.9
	C223.6,221.8,218.8,217.9,213.4,218.5z M190.4,257.6l-2.2-21.5l21.5-2.2l2.2,21.5L190.4,257.6z"/>
</svg>
