<?xml version="1.0" encoding="utf-8"?>
<!-- Generator: Adobe Illustrator 23.0.1, SVG Export Plug-In . SVG Version: 6.00 Build 0)  -->
<svg version="1.1" id="Слой_1" xmlns="http://www.w3.org/2000/svg" xmlns:xlink="http://www.w3.org/1999/xlink" x="0px" y="0px"
	 viewBox="0 0 512 512" style="enable-background:new 0 0 512 512;" xml:space="preserve">
<style type="text/css">
	.st0{fill:#FFA500;}
</style>
<g id="outline">
	<path class="st0" d="M488,248h-16.6c-3.7-29-26.5-51.8-55.4-55.5V192c0-35.3-28.7-64-64-64c-22.8,0-43.9,12.1-55.3,31.8
		c-8.3-4.2-17.3-6.8-26.5-7.5c-8.9-12.5-20.7-22.7-34.4-29.8c12.5-7,20.2-20.2,20.3-34.6c0-4.4-3.6-8-8-8h-16
		c-12.6,0-24.5,6.1-32,16.2C192.5,86.1,180.6,80,168,80h-16c-4.4,0-8,3.6-8,8c0,11.6,5.1,22.6,14,30.1c-32.1,12-55.3,40.4-60.7,74.2
		c-29.5,3.2-53,26.2-56.8,55.7H24c-4.4,0-8,3.6-8,8v32c0,4.4,3.6,8,8,8h16v72c0,0.7,0.1,1.3,0.2,1.9l8,32c0.9,3.6,4.1,6.1,7.8,6.1
		h11.1l13.8,27.6c1.4,2.7,4.1,4.4,7.2,4.4h336c3,0,5.8-1.7,7.2-4.4l13.7-27.6H456c3.7,0,6.9-2.5,7.8-6.1l8-32
		c0.2-0.6,0.2-1.3,0.2-1.9v-72h16c4.4,0,8-3.6,8-8v-32C496,251.6,492.4,248,488,248z M232,96h6.6c-3.4,9.6-12.5,16-22.6,16h-6.6
		C212.8,102.4,221.8,96,232,96z M168,96c10.2,0,19.2,6.4,22.6,16H184c-10.2,0-19.2-6.4-22.6-16H168z M103.9,208L103.9,208
		c12.9-0.3,25.2,4.6,34.4,13.6l11.4-11.2c-9.7-9.8-22.5-16-36.2-17.7c8.5-43.3,50.6-71.6,94-63c37.4,7.4,64.4,40.2,64.5,78.3h16
		c0-12.9-2.6-25.6-7.7-37.5c5.4,1.6,10.5,4,15.2,7.2c2,1.4,4.5,1.7,6.8,1c2.3-0.7,4.2-2.4,5.1-4.7c9.9-24.6,37.9-36.5,62.5-26.6
		c18.1,7.3,30,24.9,30.1,44.5c0,0.2,0,0.3,0,0.5c-14.3,1.4-27.6,7.7-37.7,17.9l11.4,11.2c9.1-9,21.4-13.9,34.2-13.6h0.3
		c23.4,0.1,43.3,17,47.2,40H56.7C60.6,224.9,80.5,208.1,103.9,208z M419.1,424H92.9l-8-16h342.1L419.1,424z M456,367l-6.2,25H62.2
		L56,367v-71h400V367z M480,280H32v-16h448V280z"/>
	<path class="st0" d="M80.8,379.6l14.3-7.2L88,358.1V320H72v40c0,1.2,0.3,2.5,0.8,3.6L80.8,379.6z"/>
	<path class="st0" d="M223,153.3c-9.2-6.1-19.9-9.4-31-9.3c-19.6,0-37.6,10.8-46.9,28l13.9,8c6.5-12.3,19.2-20,33.1-20
		c22.1,0,40,17.9,40,40h16C248,181.2,238.6,163.7,223,153.3z"/>
	<path class="st0" d="M367.1,186.7l15.1-5.3c-5.9-16.7-24.2-25.4-40.8-19.5c-12.8,4.5-21.4,16.6-21.4,30.2h16c0-8.8,7.2-16,16-16
		C358.8,176,364.8,180.3,367.1,186.7z"/>
	<rect x="176" y="200" class="st0" width="16" height="16"/>
	<rect x="232" y="216" class="st0" width="16" height="16"/>
	<rect x="320" y="216" class="st0" width="16" height="16"/>
</g>
</svg>
