<svg id="Слой_1" data-name="Слой 1" xmlns="http://www.w3.org/2000/svg" viewBox="0 0 512 512"><defs><style>.cls-1{fill:#0054a2;}</style></defs><title>facebook_1</title><path d="M297.28,508.67q-3.21.52-6.42,1Q294.07,509.19,297.28,508.67Z"/><path d="M302.4,507.79l-3.06.54Z"/><path d="M285.14,510.34q-3.75.42-7.53.74Q281.39,510.77,285.14,510.34Z"/><path d="M290.05,509.74c-1.19.16-2.4.31-3.6.45C287.65,510.05,288.86,509.9,290.05,509.74Z"/><path d="M309.37,506.41l-2.71.57Z"/><path d="M326.66,502.11l-2.18.61Z"/><path d="M321.43,503.54l-2.37.62Z"/><path d="M314.59,505.25l-2.52.57Z"/><path d="M277.53,511.09q-2,.17-4,.3Q275.51,511.26,277.53,511.09Z"/><path class="cls-1" d="M512,256C512,114.64,397.36,0,256,0S0,114.64,0,256,114.64,512,256,512c1.5,0,3,0,4.5-.06V312.66h-55v-64.1h55V201.39c0-54.7,33.39-84.48,82.19-84.48A454.76,454.76,0,0,1,392,119.43v57.18H358.35c-26.55,0-31.69,12.61-31.69,31.12v40.83h63.48l-8.27,64.1H326.66V502.11C433.67,471.43,512,372.85,512,256Z"/><path d="M272.91,511.43c-2.66.17-5.34.31-8,.4C267.57,511.74,270.25,511.6,272.91,511.43Z"/><path d="M264.75,511.84c-1.41,0-2.83.08-4.25.1C261.92,511.92,263.34,511.88,264.75,511.84Z"/></svg>