<svg id="Слой_1" data-name="Слой 1" xmlns="http://www.w3.org/2000/svg" viewBox="0 0 328 93"><defs><style>.cls-1{fill:#fb8e00;}.cls-2{fill:#f7af59;}</style></defs><title>Безымянный-1</title><rect class="cls-1" x="0.5" width="327" height="93"/><path class="cls-2" d="M95.06,28a1.53,1.53,0,0,1-.3,0,5.84,5.84,0,0,1-3.28-1.66h0a7.77,7.77,0,0,1-2.13-5.79,9.08,9.08,0,0,1,8.76-8.76,7.77,7.77,0,0,1,5.8,2.13,5.9,5.9,0,0,1,1.66,3.28,2,2,0,0,1-2.38,2.23,5.27,5.27,0,0,0-2.4.06l3.6,2.45a2.63,2.63,0,0,1,.38,4l-1.23,1.23a2.62,2.62,0,0,1-4-.38l-2.45-3.61a5,5,0,0,0-.07,2.4,2,2,0,0,1-.49,1.78A2,2,0,0,1,95.06,28Zm-2.69-2.57A4.57,4.57,0,0,0,95,26.72a.73.73,0,0,0,.82-.88,6.44,6.44,0,0,1,.58-4.28.61.61,0,0,1,.52-.34.62.62,0,0,1,.55.27l3.12,4.58a1.38,1.38,0,0,0,2.12.2l1.23-1.22a1.4,1.4,0,0,0,.4-1.11,1.42,1.42,0,0,0-.6-1l-4.58-3.11a.64.64,0,0,1-.28-.56.66.66,0,0,1,.34-.52,6.45,6.45,0,0,1,4.28-.57.73.73,0,0,0,.66-.19.7.7,0,0,0,.22-.64,4.66,4.66,0,0,0-1.3-2.58c-2.56-2.56-7.3-2.31-10.14.52S89.81,22.85,92.37,25.41Z"/><path class="cls-2" d="M207.28,39.68A13.52,13.52,0,0,1,216.83,37,11.63,11.63,0,0,1,225,41.31a8.65,8.65,0,0,1,1.79,5.19A2.93,2.93,0,0,1,225.49,49a3,3,0,0,1-2.76.38,7.43,7.43,0,0,0-3.39-.39l4.71,4.24a4,4,0,0,1-.25,6.09l-2.05,1.56a4,4,0,0,1-5.94-1.38L213,53.79a7.56,7.56,0,0,0-.53,3.37,3,3,0,0,1-3.82,3.11,8.77,8.77,0,0,1-4.52-3.11h0a11.63,11.63,0,0,1-2-9A13.46,13.46,0,0,1,207.28,39.68Zm17.11,7.68a1,1,0,0,0,.41-.83,6.77,6.77,0,0,0-1.4-4c-3.23-4.26-10.21-4.85-14.94-1.26s-6,10.47-2.79,14.73a6.75,6.75,0,0,0,3.51,2.42,1,1,0,0,0,1.32-1.07,9.58,9.58,0,0,1,1.72-6.21,1,1,0,0,1,.87-.42,1,1,0,0,1,.8.54l3.67,7.37a2,2,0,0,0,3,.7l2.06-1.56a2,2,0,0,0,.78-1.51,2,2,0,0,0-.66-1.57l-6.11-5.51A1,1,0,0,1,217,47.5a9.59,9.59,0,0,1,6.45,0,1,1,0,0,0,1-.13Z"/><path class="cls-2" d="M85.6,58.52a2.51,2.51,0,0,0,.94-3.06l-1.49-3.57s0,0,0-.06a1.13,1.13,0,0,0-.16-.26,1,1,0,0,0-.38-.3l-.11-.06a1.64,1.64,0,0,0-.44-.09h0l-32.49-.46a3.74,3.74,0,0,0-3.58,2.68,5,5,0,0,1-8.74,1.52,5.2,5.2,0,0,1-.84-1.7,3.66,3.66,0,0,0-3.49-2.72l-6.55-.09a4.8,4.8,0,0,0-3.42,1.35,31.23,31.23,0,0,0-8,12.86A31.89,31.89,0,0,0,15.7,79.77l.13.74s0,.07,0,.11l0,.15,12,28.81a5,5,0,0,0,6.53,2.68l31.23-13a2.51,2.51,0,0,0,1.49-2.82,3.74,3.74,0,0,1,6.75-2.82A2.51,2.51,0,0,0,77,94.5l17.4-7.26a5,5,0,0,0,2.68-6.54L91.26,66.76a2.52,2.52,0,0,0-2.83-1.49,3.74,3.74,0,0,1-2.83-6.75ZM19.14,65.33A28.73,28.73,0,0,1,26.53,53.5a2.29,2.29,0,0,1,1.64-.65l6.56.09a1.16,1.16,0,0,1,1.11.88,7.72,7.72,0,0,0,1.25,2.54,7.49,7.49,0,0,0,13.12-2.27,1.24,1.24,0,0,1,1.17-.93l26.49.38L18,78.53A29.37,29.37,0,0,1,19.14,65.33ZM89,67.72l5.83,13.94a2.5,2.5,0,0,1-1.35,3.27L76,92.16a6.24,6.24,0,0,0-11.26,4.76L33.51,110a2.5,2.5,0,0,1-3.27-1.34L18.69,81,83.21,54l1,2.45A6.25,6.25,0,0,0,89,67.72Z"/><path class="cls-2" d="M81.33,81.87A5,5,0,1,0,84,75.33,5,5,0,0,0,81.33,81.87ZM88.24,79A2.5,2.5,0,1,1,85,77.64,2.51,2.51,0,0,1,88.24,79Z"/><path class="cls-2" d="M46.26,78.92a7.49,7.49,0,1,0,9.8,4A7.49,7.49,0,0,0,46.26,78.92Zm4.81,11.52a5,5,0,1,1,2.69-6.53A5,5,0,0,1,51.07,90.44Z"/><path class="cls-2" d="M61.62,67.09a6.24,6.24,0,1,0,8.17,3.35A6.24,6.24,0,0,0,61.62,67.09Zm3.85,9.22a3.75,3.75,0,1,1,2-4.9A3.75,3.75,0,0,1,65.47,76.31Z"/><path class="cls-2" d="M34.06,85.37a3.74,3.74,0,1,0-2,4.9A3.74,3.74,0,0,0,34.06,85.37Zm-4.61,1.92a1.25,1.25,0,1,1,1.64.67A1.25,1.25,0,0,1,29.45,87.29Z"/><path class="cls-2" d="M65.86,84.66a1.32,1.32,0,0,0-1.64.68,1.61,1.61,0,0,0-.08.48,1.18,1.18,0,0,0,.37.88,1.11,1.11,0,0,0,.88.36,1.13,1.13,0,0,0,.87-.36,1.52,1.52,0,0,0,.28-.4,1.32,1.32,0,0,0,0-1,1,1,0,0,0-.28-.4A1.38,1.38,0,0,0,65.86,84.66Z"/><path class="cls-2" d="M47.6,75.65a1.24,1.24,0,0,0,.4-2,1.38,1.38,0,0,0-.4-.28,1.25,1.25,0,0,0-1.36.28A1.12,1.12,0,0,0,46,74a1.61,1.61,0,0,0-.08.48,1.21,1.21,0,0,0,.55,1A1.2,1.2,0,0,0,47.6,75.65Z"/><path class="cls-2" d="M77.67,69.86a1.26,1.26,0,0,0,.75-.91,1.25,1.25,0,1,0-2.48-.24,1.26,1.26,0,0,0,.55,1A1.21,1.21,0,0,0,77.67,69.86Z"/><path class="cls-2" d="M173.46,48.78a1.5,1.5,0,0,0-.19.25,3.25,3.25,0,0,0-.09,1.25c0,.5.1,1,.16,1.5l3.06,2.67a2.72,2.72,0,0,0,.82.48,2.56,2.56,0,0,1,.81.48c.18.16.19.41,0,.48a1.64,1.64,0,0,1-.63.11,2.38,2.38,0,0,1-1.35-.44,9,9,0,0,1-.9-.73c-.54-.49-1.06-1-1.63-1.53a.77.77,0,0,0-.1.26c.11,1.21.23,2.43.33,3.64a14.57,14.57,0,0,1,.09,1.6,2.78,2.78,0,0,1-1.46,2.46,2.22,2.22,0,0,1-2.29,0,3.53,3.53,0,0,1-1.62-1.5,5.68,5.68,0,0,1-.66-2,8.38,8.38,0,0,1-.07-1.41c.06-1.85.14-3.7.22-5.55,0-.26,0-.51.07-.75,0-.06-.05-.11-.09-.13l-2-1.2a7.49,7.49,0,0,0-1.72-.7,7.75,7.75,0,0,1-3.75-2.33,7.52,7.52,0,0,0-2.42-1.79l-.89-.43a6.77,6.77,0,0,1-2.52-2c-.21-.27-.43-.53-.65-.79a3.32,3.32,0,0,0-.27-.21,3.58,3.58,0,0,0,0,.4c0,.69.1,1.37.15,2.06a10.82,10.82,0,0,1-.35,3.78,3.67,3.67,0,0,1-.81,1.47,3.5,3.5,0,0,1-.54.47A2.48,2.48,0,0,1,149,48a3.74,3.74,0,0,1-.8-1.42,8.38,8.38,0,0,1-.37-2.55,23.46,23.46,0,0,1,.44-4.9c.14-.79.32-1.57.47-2.36,0-.11,0-.23.07-.38-.24-.12-.46-.25-.69-.34a3.92,3.92,0,0,1-1.71-1.31l-.4-.53a4.32,4.32,0,0,0-1.31-1.24c-.2-.12-.38-.26-.57-.38a5.86,5.86,0,0,1-1.52-1.32,2.76,2.76,0,0,0-.22-.19,1,1,0,0,0-.1.49c0,1.06,0,2.11,0,3.17,0,1.37.06,2.75.05,4.13,0,3.77-.25,7.5-.48,11.23a20,20,0,0,1-.69,4.24,4.21,4.21,0,0,1-1.37,2,2.26,2.26,0,0,1-1.28.54,2.33,2.33,0,0,1-1.26-.24,3.51,3.51,0,0,1-1.68-1.68,4.59,4.59,0,0,1-.49-2.68c.28-2.07.57-4.15,1-6.2.22-1.09.39-2.19.6-3.29.27-1.44.57-2.87.84-4.31.14-.77.3-1.54.38-2.32a60.23,60.23,0,0,0,.39-6.32c0-.88-.06-1.75-.1-2.63a1.41,1.41,0,0,0,0-.29l-1.65-1.21c-.16.11-.09.26-.09.38,0,1.07.1,2.15.09,3.22a6.37,6.37,0,0,1-1,3.44,3.52,3.52,0,0,1-1,1,1.76,1.76,0,0,1-1.36.26,2.75,2.75,0,0,1-2.07-1.43,4,4,0,0,1-.42-2.06,11.91,11.91,0,0,1,.4-2.06c.35-1.44.7-2.88,1-4.31.06-.23.12-.46.17-.68s.1-.49.15-.71c-.07-.06-.1-.11-.14-.11a9.15,9.15,0,0,1-6.94-5.93,4.43,4.43,0,0,1-.16-2.62,12.14,12.14,0,0,1,.55-2l0-.11a7.93,7.93,0,0,1,1.84-3.54,9.63,9.63,0,0,1,3.2-2.59c.23-.13.47-.24.7-.36.67-.35,1.34-.7,2-1.06a8.64,8.64,0,0,0,2-1.52c.26-.26.54-.5.79-.78a8,8,0,0,0,.72-.91,19.87,19.87,0,0,1,5-5.37,8.15,8.15,0,0,1,3.23-1.52c.74-.17,1.48-.34,2.22-.49a11.77,11.77,0,0,0,3.29-1.19l1.68-1a21.06,21.06,0,0,1,2.76-1.31,11.81,11.81,0,0,1,4.17-.86c.69,0,1.39.06,2.08.1l2.09.07a14.18,14.18,0,0,0,2.16-.16l4.77-.55a7.51,7.51,0,0,1,2.7.17,5.45,5.45,0,0,1,3.39,2.38A10.08,10.08,0,0,1,178-5.79a14,14,0,0,1,.68,3.4,8.4,8.4,0,0,1-.36,3.14,2.51,2.51,0,0,1-.56,1,1.48,1.48,0,0,0-.18.25,2.25,2.25,0,0,0,.26.27,7,7,0,0,1,2.56,6.23,21.1,21.1,0,0,1-.35,2.11,6.9,6.9,0,0,0,.68,4.4c.46.94.89,1.88,1.26,2.85a11,11,0,0,1,.73,4.82,32.23,32.23,0,0,0-.06,3.55,7.66,7.66,0,0,0,.46,2.37c.32.89.67,1.77,1,2.66a22,22,0,0,1,1.19,3.94,8.94,8.94,0,0,1-.17,4.1c-.19.69-.36,1.4-.55,2.09a7.36,7.36,0,0,0,.05,3.78,19.14,19.14,0,0,1,.63,3.45,6.81,6.81,0,0,1-.25,2.68c-.09.27-.08.59-.15.88a4.21,4.21,0,0,1-.23.71,1.77,1.77,0,0,1-1.06,1,1,1,0,0,0-.68.81c-.08.44-.14.9-.21,1.35s-.11.87-.21,1.28a2.72,2.72,0,0,1-.34.8,1.55,1.55,0,0,1-1.61.62,2.18,2.18,0,0,1-1.63-1.09,3.09,3.09,0,0,1-.44-1.8,5,5,0,0,1,.25-1.39c.09-.24.16-.48.24-.72a1.73,1.73,0,0,0,0-1,1.13,1.13,0,0,0-1-.94c-.2,0-.41-.07-.62-.11A6.19,6.19,0,0,1,175,50.72a3.38,3.38,0,0,1-.89-1c-.11-.2-.22-.4-.35-.59A3.81,3.81,0,0,0,173.46,48.78Zm4.8-38.3c.16-.86.31-1.67.47-2.48a3.86,3.86,0,0,0-.09-1.78,4.87,4.87,0,0,0-2-3c-.3-.21-.61-.41-.92-.61A3.74,3.74,0,0,0,174,2l-.24,0A4.28,4.28,0,0,1,171,.51a.1.1,0,0,0-.05,0,2.56,2.56,0,0,0-1.56-.72,3.73,3.73,0,0,0-1.26.16,13.51,13.51,0,0,0-2.88,1.21,16.55,16.55,0,0,1-1.59.75,5.64,5.64,0,0,1-2.84.33c-.62-.08-1.25-.14-1.87-.18a7.87,7.87,0,0,0-1.95.14,5.79,5.79,0,0,0-2.83,1.49c-.51.48-1,1-1.46,1.54A20.94,20.94,0,0,1,150.93,7a8.68,8.68,0,0,1-3.21,1.76c-.69.2-1.41.32-2.12.47l-1.08.19a1.65,1.65,0,0,0-.88.45,3.39,3.39,0,0,0-1.12,2.24,2.58,2.58,0,0,1-1.62,2.33l-.33.14a9.16,9.16,0,0,1-2.62.65,4.91,4.91,0,0,0-2.66,1,2.37,2.37,0,0,0-.94,2.22c0,.41.1.83.17,1.24a5.56,5.56,0,0,1-.09,2.23c-.05.23-.09.46-.13.69a19,19,0,0,1-.62,2.5c-.19.55-.39,1.09-.54,1.66-.27,1-.51,2-.75,3.06-.09.38-.18.76-.25,1.14a2.45,2.45,0,0,0,.17,1.3,1.49,1.49,0,0,0,.72.81.88.88,0,0,0,1.1,0,2.7,2.7,0,0,0,.74-.84,4.48,4.48,0,0,0,.59-2.65c-.1-1.45-.23-2.9-.3-4.35,0-.89,0-1.78,0-2.67a7.13,7.13,0,0,1,.4-1.7.83.83,0,0,1,1-.49,2.72,2.72,0,0,1,1.28.88,7.66,7.66,0,0,1,1.53,3.33c.13.73.22,1.48.28,2.21a15.44,15.44,0,0,1,0,3c-.16,1.4-.3,2.82-.37,4.24-.12,2.37-.46,4.7-.74,7-.08.66-.15,1.33-.27,2-.41,2.25-.84,4.5-1.27,6.74a16.27,16.27,0,0,0-.32,3,3.73,3.73,0,0,0,.64,2,2.23,2.23,0,0,0,.42.45.74.74,0,0,0,1,.08,1.77,1.77,0,0,0,.34-.33,3.32,3.32,0,0,0,.86-2c.13-1.56.24-3.11.3-4.68,0-1.17,0-2.35,0-3.53-.05-2.41.06-4.81.15-7.2,0-1.23.14-2.45.23-3.67.15-1.85.29-3.7.46-5.55a6.91,6.91,0,0,1,.25-1.2,2,2,0,0,1,.53-1,.87.87,0,0,1,1.21-.13c.53.32,1,.7,1.54,1.07a2,2,0,0,1,.6.77,5.18,5.18,0,0,1,.3.63,2,2,0,0,0,1,1.07c.24.12.49.23.74.33l1.08.4a3.14,3.14,0,0,1,2.24,2.73c.09.93.17,1.86.17,2.78a21.24,21.24,0,0,1-.65,4.38,28.92,28.92,0,0,0-.49,3.21,8.33,8.33,0,0,0,0,1.93,5,5,0,0,0,.45,1.5c.36.72.89.84,1.41.33a2.69,2.69,0,0,0,.6-1.05,9.37,9.37,0,0,0,.36-3.89c0-.53-.09-1-.13-1.58-.11-1.3-.21-2.59-.3-3.88a8,8,0,0,1,0-1.09,1.93,1.93,0,0,1,.37-1.09c.4-.53.93-.58,1.58-.15a2,2,0,0,1,.33.25,9.14,9.14,0,0,1,1.77,2c.08.15.2.29.3.44a3.17,3.17,0,0,0,1.81,1.3c.33.1.66.18,1,.29a4.92,4.92,0,0,1,3.07,2.61c.19.39.32.8.5,1.2a6.94,6.94,0,0,0,.57,1.12,2.14,2.14,0,0,0,1.82,1c.38,0,.75,0,1.13,0a4.86,4.86,0,0,1,1.35.15,2.45,2.45,0,0,1,1.38.93,2.59,2.59,0,0,1,.53,1.13,20.66,20.66,0,0,1,.32,2.17c.08,1.25.1,2.49.14,3.73a25.91,25.91,0,0,1-.19,3.43c-.06.59,0,1.21,0,1.81a3.49,3.49,0,0,0,.34,1.3,1.33,1.33,0,0,0,.53.65c.35.23.53.26.83.09a1.66,1.66,0,0,0,.82-1.22,5.13,5.13,0,0,0-.08-2c-.17-.85-.37-1.7-.51-2.55a17.76,17.76,0,0,1-.18-4.53,4.31,4.31,0,0,1,.27-1.07,1.61,1.61,0,0,1,.67-.79,1.18,1.18,0,0,1,1.43.14,4.1,4.1,0,0,1,.54.56,4.6,4.6,0,0,1,.32.45,3.76,3.76,0,0,0,2.52,1.63c.27.06.55.1.82.17a2.66,2.66,0,0,1,1,.48c1.41,1.11,2.09,3,1.4,4.09a3.11,3.11,0,0,0-.25.52,4,4,0,0,0-.2.67,1.33,1.33,0,0,0,.09.8c.12.25.4.35.55.18A1.42,1.42,0,0,0,181,57a12.81,12.81,0,0,0,.22-1.53,4.9,4.9,0,0,1,.26-1.33,1.7,1.7,0,0,1,1-1,2.48,2.48,0,0,0,.4-.2l-.2-.13c-.49-.27-.6-.49-.43-.88a2.5,2.5,0,0,1,.23-.39,4.28,4.28,0,0,0,.7-2.87,15.61,15.61,0,0,0-.33-2.32c-.14-.58-.28-1.17-.41-1.76a8.67,8.67,0,0,1,.08-4.53c.19-.61.35-1.24.5-1.86a7.21,7.21,0,0,0,.15-2.59A13.68,13.68,0,0,0,182.7,33c-.3-1-.64-1.91-1-2.86a13.13,13.13,0,0,1-1-4.84c0-.09,0-.2-.09-.28s-.05,0-.07,0l-.44.15a8.61,8.61,0,0,1-8.69-1.67,9,9,0,0,1-2.34-3.3,8.4,8.4,0,0,1,.59-8,5.09,5.09,0,0,1,3.58-2.34A7.56,7.56,0,0,1,178.26,10.48Zm-45.72,5.35c.11-.07.13-.07.14-.09s.07-.13.11-.2a3.13,3.13,0,0,1,1.86-1.49,8.6,8.6,0,0,1,1.14-.27c.65-.1,1.32-.17,2-.24A13.53,13.53,0,0,0,140.3,13a2.6,2.6,0,0,0,.84-.44.63.63,0,0,0,.24-.56,3.21,3.21,0,0,1,0-.88,3.64,3.64,0,0,1,2.32-2.73c.7-.28,1.42-.53,2.13-.77a11.49,11.49,0,0,0,2.9-1.42,12.29,12.29,0,0,0,2-1.75c.42-.46.84-.94,1.27-1.4a10.61,10.61,0,0,1,1.87-1.6A6.33,6.33,0,0,1,156,.58a9.06,9.06,0,0,1,2.9-.12c.62.06,1.24.16,1.86.25a3.85,3.85,0,0,0,2-.19c.53-.22,1-.47,1.55-.71.68-.32,1.35-.67,2-1a7,7,0,0,1,2.5-.56,3.87,3.87,0,0,1,2.43.74c.27.2.54.42.8.65a2.32,2.32,0,0,0,.81.48,7.1,7.1,0,0,0,1,.26,6.48,6.48,0,0,1,2.44.94c.2.12.4.21.64.34.05-.19.11-.33.14-.48s0-.39.09-.59a10.82,10.82,0,0,0,.21-3.18,10.8,10.8,0,0,0-1-3.67,7.37,7.37,0,0,0-.51-.9,4.29,4.29,0,0,0-2.61-1.95,6.5,6.5,0,0,0-2.3-.24c-1.44.1-2.87.25-4.31.38-.78.08-1.55.17-2.33.21A23,23,0,0,1,160.23-9a6.75,6.75,0,0,0-1.85,0A13.06,13.06,0,0,0,154-7.5L151.2-5.93a11,11,0,0,1-3.1,1.07l-2.34.5a7,7,0,0,0-3,1.41,18.28,18.28,0,0,0-4.22,4.72,5.62,5.62,0,0,1-.84,1.1A16.68,16.68,0,0,1,134,5.61c-.67.36-1.32.74-2,1.13a8.64,8.64,0,0,0-2.16,1.83A33.37,33.37,0,0,0,127.49,12a1.16,1.16,0,0,0-.15.92l.57,0a3.93,3.93,0,0,1,.69.06,5.42,5.42,0,0,1,2.59,1.34c.36.36.7.74,1,1.11A3.51,3.51,0,0,1,132.54,15.83Zm45.7-4.35c-.77-.14-1.46-.3-2.16-.38a8.73,8.73,0,0,0-2.8.18A3.9,3.9,0,0,0,171,12.6a5.8,5.8,0,0,0-1.14,2,7.55,7.55,0,0,0-.2,3.52,7.91,7.91,0,0,0,3,5,7.36,7.36,0,0,0,3.5,1.6,6.37,6.37,0,0,0,4.45-.93.39.39,0,0,0,.18-.34c0-.66.12-1.32.15-2a8.43,8.43,0,0,0-.39-3c-.23-.72-.55-1.42-.85-2.13-.17-.42-.39-.84-.58-1.26a8.35,8.35,0,0,1-.73-2.71ZM168.13,49a4.41,4.41,0,0,0,0-2.31c-.18-.72-.36-.86-1.15-.86a7.61,7.61,0,0,0-1.17.12,3.68,3.68,0,0,1-1.4,0,4.22,4.22,0,0,1-2.82-2.23,11.12,11.12,0,0,1-.46-1.21c-.12-.35-.22-.69-.36-1A2.44,2.44,0,0,0,159.13,40c-.37-.13-.76-.2-1.13-.31a4.42,4.42,0,0,1-2.83-2.23c-.07-.14-.14-.28-.2-.42a3.21,3.21,0,0,0-1.13-1.39,1.22,1.22,0,0,0-.3-.13,3.47,3.47,0,0,0,0,1.36,11.71,11.71,0,0,1,.16,2.12c0,.12,0,.24,0,.37a4.38,4.38,0,0,1,1.88,1.41,4.66,4.66,0,0,0,1.81,1.38q.58.27,1.17.51a8.11,8.11,0,0,1,3.08,2.17,5.58,5.58,0,0,0,.53.56,6,6,0,0,0,2.1,1.31l.53.19a5.89,5.89,0,0,1,2,1.17c.31.27.64.52,1,.76A1.6,1.6,0,0,0,168.13,49ZM126.82,14.57a2.69,2.69,0,0,0,.11,1.68,8.65,8.65,0,0,0,4.17,5,7.45,7.45,0,0,0,1.56.49,3.51,3.51,0,0,0,.13-1.95,6.52,6.52,0,0,1-.2-2.36.55.55,0,0,0-.18-.49c-.31-.32-.61-.65-.94-1a6.66,6.66,0,0,0-3.07-1.67A1.93,1.93,0,0,0,126.82,14.57Zm16,12.61a5.43,5.43,0,0,0-.27,2.12c.19.18.39.36.57.55a10,10,0,0,0,2.24,1.83,3.61,3.61,0,0,1,1.23,1.13c.2.28.34.6.52.89a4,4,0,0,0,.52.83,10.77,10.77,0,0,0,1.08.93.26.26,0,0,0,.33.07,10.32,10.32,0,0,0,.29-2.18,3.09,3.09,0,0,0-.12-.73.84.84,0,0,0-.53-.63,12.44,12.44,0,0,0-1.2-.47,11.34,11.34,0,0,1-2-.78A2.88,2.88,0,0,1,144,28.89c-.06-.19-.13-.39-.18-.59A1.63,1.63,0,0,0,142.8,27.18Zm-4.8-1.5.12,0c-.09-.53-.16-1.06-.25-1.59A4,4,0,0,0,136.63,22s0,0,0,0a5.81,5.81,0,0,0-.11,2.45c.26.17.55.33.8.53A10.05,10.05,0,0,1,138,25.68Z"/><path class="cls-2" d="M127.43,6a3,3,0,0,1-.5-.19.41.41,0,0,1-.05-.7,2,2,0,0,1,.5-.19c.48-.13,1-.25,1.43-.35a5.54,5.54,0,0,0,2.68-1.48,12.77,12.77,0,0,0,2.2-2.78c.52-.89,1-1.79,1.53-2.68A18.5,18.5,0,0,1,138-6.27a12.32,12.32,0,0,1,2.24-1.9A6.72,6.72,0,0,1,142.07-9a12.2,12.2,0,0,1,2.15-.5,3.69,3.69,0,0,1,.81,0,.55.55,0,0,1,.31.16c.23.21.18.48-.1.55s-.46.07-.68.13a10.17,10.17,0,0,0-5.45,3.28,21.29,21.29,0,0,0-2.51,3.6L135.13.87A14.52,14.52,0,0,1,133,3.66a9,9,0,0,1-2.14,1.66,7.29,7.29,0,0,1-3.07.72Z"/><path class="cls-2" d="M189.3,35.2a4.23,4.23,0,0,1,0,.72c-.19.91-.4,1.8-.62,2.69a2.55,2.55,0,0,1-.27.63.89.89,0,0,1-.32.32.44.44,0,0,1-.49,0,.56.56,0,0,1-.28-.45c0-.12,0-.23,0-.35.11-.95.23-1.9.32-2.86a6.64,6.64,0,0,0-.71-3.48c-.33-.71-.7-1.41-1.08-2.11s-.9-1.63-1.26-2.47a4.81,4.81,0,0,1-.22-3.34,2.13,2.13,0,0,1,.25-.5c.11-.16.4-.06.46.14a2.41,2.41,0,0,1,.08.44c.05.54.09,1.08.13,1.62a4.66,4.66,0,0,0,.56,1.79,22.5,22.5,0,0,0,1.4,2.28,13.07,13.07,0,0,1,1.44,2.64A7.52,7.52,0,0,1,189.3,35.2Z"/><path class="cls-2" d="M130.76,1.17c-.41-.06-.52-.29-.35-.54a1.19,1.19,0,0,1,.15-.18,6.88,6.88,0,0,0,1.25-1.81c.44-.82.85-1.65,1.32-2.46s.93-1.56,1.43-2.31a10.72,10.72,0,0,1,1.88-2,1.92,1.92,0,0,1,.48-.32.89.89,0,0,1,.4-.06.31.31,0,0,1,.23.49,2,2,0,0,1-.19.22,11.43,11.43,0,0,0-1.4,2c-.76,1.45-1.53,2.91-2.31,4.35-.2.36-.4.71-.61,1.06a4,4,0,0,1-1,1.08,2.36,2.36,0,0,1-.88.48A3.55,3.55,0,0,1,130.76,1.17Z"/><path class="cls-2" d="M122,10.86l.17-.57a8.06,8.06,0,0,1,1-1.91,2,2,0,0,1,1.07-.83,1.64,1.64,0,0,1,.54-.08c.43,0,.66.34.51.69a1.34,1.34,0,0,1-.17.31,4.38,4.38,0,0,1-.36.39,7.65,7.65,0,0,0-1.2,1.52,3.12,3.12,0,0,0-.5,1.17,1.32,1.32,0,0,1-.13.38.35.35,0,0,1-.53.11.67.67,0,0,1-.32-.43C122,11.34,122,11.07,122,10.86Z"/><path class="cls-2" d="M186.27,43.89c0-.49.06-1,.11-1.41a1.86,1.86,0,0,1,.47-1.09.62.62,0,0,1,.83-.17.76.76,0,0,1,.35.8,7.67,7.67,0,0,1-.15.81,9,9,0,0,0-.31,2.72v.12c0,.24-.13.38-.29.37a.67.67,0,0,1-.53-.32,1.75,1.75,0,0,1-.25-.54C186.4,44.74,186.34,44.31,186.27,43.89Z"/><path class="cls-2" d="M186.63,25.85c0-.08,0-.2,0-.32s.15-.3.3-.29a.55.55,0,0,1,.43.29,2.76,2.76,0,0,1,.2.43,11,11,0,0,0,1,2.06c.34.56.63,1.16.92,1.75a2.84,2.84,0,0,1,.22.68c0,.21-.05.36-.19.37a.46.46,0,0,1-.41-.19,3,3,0,0,1-.22-.28c-.49-.72-1-1.45-1.47-2.18A4.88,4.88,0,0,1,186.63,25.85Z"/><path class="cls-2" d="M189.18,50.34c0,.35-.3.52-.66.33a1.53,1.53,0,0,1-.25-.16,3.25,3.25,0,0,1-1-1.63.61.61,0,0,1,0-.4c.18-.39.74-.38,1.1,0a1.33,1.33,0,0,1,.27.41c.17.44.31.88.47,1.32C189.17,50.26,189.17,50.3,189.18,50.34Z"/><path class="cls-2" d="M121.85,14.53c.12.13.26.22.3.33a1.34,1.34,0,0,1,.07.52,5.25,5.25,0,0,0,.24,1.8,1.13,1.13,0,0,1,0,.18.21.21,0,0,1-.32.17,1.52,1.52,0,0,1-.35-.26,2,2,0,0,1-.24-.42,3.64,3.64,0,0,1-.27-1.62,1,1,0,0,1,.16-.48C121.54,14.65,121.7,14.61,121.85,14.53Z"/><path class="cls-2" d="M176.72,36.39a6.9,6.9,0,0,1-1,4.06,5.29,5.29,0,0,1-3.58,2.25,8.5,8.5,0,0,1-2.81.06,6.64,6.64,0,0,1-2.61-.95,17.92,17.92,0,0,1-3.29-2.63,6.6,6.6,0,0,1-1.87-3.77,5.76,5.76,0,0,1,2.59-6,5.25,5.25,0,0,1,4.92-.34,4.83,4.83,0,0,1,.9.47,2.1,2.1,0,0,0,.62.26,9.42,9.42,0,0,1,3.18,1.37,6.09,6.09,0,0,1,2.84,4.18C176.66,35.7,176.68,36.05,176.72,36.39ZM168,30.07a3.8,3.8,0,0,0-3.36.9,4.54,4.54,0,0,0-1.54,2.59,4.94,4.94,0,0,0,1.12,4.32,12.36,12.36,0,0,0,3.49,2.88l.38.19a5.63,5.63,0,0,0,2.71.45,4.2,4.2,0,0,0,4.13-2.86,5.71,5.71,0,0,0,0-3.54,4.07,4.07,0,0,0-1-1.68,18.63,18.63,0,0,0-2.58-2.1.78.78,0,0,0-.42-.2,2.67,2.67,0,0,1-1.14-.39A5.57,5.57,0,0,0,168,30.07Z"/><path class="cls-2" d="M153.79,12.44a2.73,2.73,0,0,1-.53,0,4.8,4.8,0,0,0-5.35,2.23,5,5,0,0,0,.34,5.59,9.13,9.13,0,0,0,1.86,2,5.6,5.6,0,0,0,3.52,1.33,13.75,13.75,0,0,0,2.14-.13,4.16,4.16,0,0,0,2.44-1.27,5.07,5.07,0,0,0,1.16-4.8,9.91,9.91,0,0,0-.31-1,5.38,5.38,0,0,0-2.88-3.13l-1.53-.73a4,4,0,0,1-.44-.27.35.35,0,0,1-.17-.32.27.27,0,0,1,.28-.25,1.25,1.25,0,0,1,.43,0c.47.09.95.18,1.42.29a5.5,5.5,0,0,1,2.77,1.74,5.3,5.3,0,0,1,.9,1.28,7.49,7.49,0,0,1,.77,5.5,5.32,5.32,0,0,1-4.29,3.89,11.2,11.2,0,0,1-3.48.13,6.66,6.66,0,0,1-3.54-1.54,10.27,10.27,0,0,1-2.54-3.05,5.68,5.68,0,0,1-.53-4.46,6,6,0,0,1,2.26-3.29,5.34,5.34,0,0,1,3.16-1,2.79,2.79,0,0,1,1.57.46,2.18,2.18,0,0,1,.49.42A1.08,1.08,0,0,1,153.79,12.44Z"/><path class="cls-2" d="M168.49,4.28a1.89,1.89,0,0,1-.21.39,2,2,0,0,1-.4.31,7.33,7.33,0,0,0-2.95,4.13c-.13.47-.26.94-.42,1.4a3.35,3.35,0,0,1-1.87,2.06,4.08,4.08,0,0,1-.62.2.71.71,0,0,1-.85-.4l-.09-.17c-.21-.42-.43-.84-.65-1.25s-.16-.52.11-.73a5.19,5.19,0,0,0,1.56-2.16c.35-.86.69-1.71,1-2.58a6.58,6.58,0,0,1,1.1-1.86,3.31,3.31,0,0,1,2.46-1.26l.94-.07a.54.54,0,0,1,.59.39C168.31,3.18,168.39,3.69,168.49,4.28Zm-1.16-1.11a3.55,3.55,0,0,0-2.61,1.65A11.85,11.85,0,0,0,163.6,7.4c-.14.41-.27.82-.43,1.21a4.53,4.53,0,0,1-1.49,1.91c-.09.07-.23.08-.23.23a1.69,1.69,0,0,0,.69.67,1.78,1.78,0,0,0,1.33-1.07c.16-.37.3-.75.44-1.13.22-.58.4-1.18.63-1.75A5.5,5.5,0,0,1,166.38,5c.42-.31.81-.66,1.21-1C167.5,3.72,167.43,3.48,167.33,3.17Z"/><path class="cls-2" d="M151.06,26.09c.24.07.54.13.83.24.57.21,1.13.43,1.68.69a4.73,4.73,0,0,1,1.51,1.11c.25.26.5.51.74.78.39.43.37.76,0,1.09a7.16,7.16,0,0,0-.65.57,1,1,0,0,1-1.11.2,5.55,5.55,0,0,1-.56-.24,19,19,0,0,0-2.71-1.06,3.47,3.47,0,0,0-2.11-.1,1,1,0,0,1-1.23-.52,5.65,5.65,0,0,1-.54-1.14,1.05,1.05,0,0,1,.71-1.47,3.44,3.44,0,0,1,.72-.17A11.11,11.11,0,0,1,151.06,26.09Zm3.67,3.11a3.54,3.54,0,0,0-1.55-1.3,9.92,9.92,0,0,0-4.87-.81,2.63,2.63,0,0,0-.3.1l.35.72a2.29,2.29,0,0,0,.15.24h.58a7,7,0,0,1,.91.06,8.43,8.43,0,0,1,2.81.88c.25.14.54.22.8.36a.73.73,0,0,0,1-.09Z"/><path class="cls-2" d="M180.6,39.64c0,.21,0,.43-.08.65s-.1.62-.16.93a7.43,7.43,0,0,0,.15,2.88c.09.38.14.75.24,1.12a.63.63,0,0,1-.48.82c-.31.11-.64.17-1,.25a.69.69,0,0,1-.75-.23c-.44-.49-.92-1-1.32-1.47a3.51,3.51,0,0,1-.79-3.23,3.33,3.33,0,0,1,.6-1.17c.23-.31.46-.6.7-.91a1.32,1.32,0,0,0,.28-.8,2.63,2.63,0,0,1,.06-.48.47.47,0,0,1,.57-.4,9,9,0,0,1,1.12.24.7.7,0,0,1,.31.26A2.91,2.91,0,0,1,180.6,39.64ZM180,45.29c-.1-.24-.19-.44-.28-.64a6.38,6.38,0,0,1-.67-3,6.1,6.1,0,0,1,.4-1.83,5.16,5.16,0,0,0,.23-.66.81.81,0,0,0,0-.65,1,1,0,0,0-.7.07,6.7,6.7,0,0,1-.94,2.27c-.13.21-.23.44-.34.66a1.72,1.72,0,0,0,0,1.37,5.88,5.88,0,0,0,1.46,2.15A.84.84,0,0,0,180,45.29Z"/><path class="cls-2" d="M165.52,26.5l-1.13-.31-1.78-.49-.13,0c-.7-.2-.95-.58-.73-1.16a6.14,6.14,0,0,1,.45-.93,1.92,1.92,0,0,1,.37-.44.58.58,0,0,1,.74-.08,3.15,3.15,0,0,0,1.94.29,10.93,10.93,0,0,1,2.56-.05,8.55,8.55,0,0,1,1.21.22.74.74,0,0,1,.52.48,4,4,0,0,1,.3,1.65.55.55,0,0,1-.47.58,8.19,8.19,0,0,1-1.59.37A12,12,0,0,1,165.52,26.5Zm3.16-1a4.36,4.36,0,0,0-.06-1.08,27.15,27.15,0,0,0-3.13,0,3.82,3.82,0,0,1-1.89-.34l-.44-.17a1.58,1.58,0,0,0-.13,1c.24.13.47.27.71.37A7.4,7.4,0,0,0,168.68,25.46Z"/><path class="cls-2" d="M148.05,16.31a4.15,4.15,0,0,1,.55-1.67,3.2,3.2,0,0,1,1.65-1.33,2.91,2.91,0,0,1,1.58-.12,2.53,2.53,0,0,1,.49.14.55.55,0,0,1,.36.42c0,.22-.13.31-.3.38l-.56.19c-.26.1-.53.18-.78.3a2.79,2.79,0,0,0-1.52,3.3c.13.58.35,1.15.53,1.72a2.21,2.21,0,0,1,.15.48.34.34,0,0,1-.51.31,1.49,1.49,0,0,1-.41-.33A5.39,5.39,0,0,1,148.05,16.31Z"/><path class="cls-2" d="M152.38,22.16c-.26-.06-.47-.1-.68-.17a1.34,1.34,0,0,1-.8-.63.37.37,0,0,1,.47-.56l1.64.66a1,1,0,0,1,.23.13.3.3,0,0,1,0,.51.82.82,0,0,1-.35.09A3.94,3.94,0,0,1,152.38,22.16Z"/><path class="cls-2" d="M155.45,22.36c-.06,0-.16-.07-.26-.13a.32.32,0,0,1-.06-.52.69.69,0,0,1,.26-.12,3.59,3.59,0,0,0,1.29-.7,2.71,2.71,0,0,1,.49-.31s.13,0,.17,0a.23.23,0,0,1,.07.16.8.8,0,0,1-.14.31c-.3.35-.61.69-.94,1A1,1,0,0,1,155.45,22.36Z"/><path class="cls-2" d="M134.51,7.08a1.85,1.85,0,0,1-.33-.14.33.33,0,0,1-.1-.51,1.14,1.14,0,0,1,.28-.21,3,3,0,0,1,.45-.18A4.64,4.64,0,0,0,137,4.52a14.06,14.06,0,0,0,1-1.42,15.28,15.28,0,0,1,2.2-2.62,5.2,5.2,0,0,1,.63-.51,1.23,1.23,0,0,1,.43-.16.3.3,0,0,1,.32.13.24.24,0,0,1,0,.33,1.86,1.86,0,0,1-.22.27,12,12,0,0,0-1.81,2.54c-.34.63-.72,1.23-1.11,1.83a5.68,5.68,0,0,1-2.05,1.81A3.11,3.11,0,0,1,134.51,7.08Z"/><path class="cls-2" d="M144.35,7.34a4.92,4.92,0,0,1-.61-.25.33.33,0,0,1,0-.61,1.05,1.05,0,0,1,.35-.08,4.63,4.63,0,0,0,2.26-1c.44-.35.86-.72,1.27-1.1.86-.82,1.7-1.65,2.55-2.48a3.88,3.88,0,0,1,.42-.39,1.75,1.75,0,0,1,.35-.2.32.32,0,0,1,.39.09.32.32,0,0,1,.06.39,4.55,4.55,0,0,1-.28.43c-.44.61-.89,1.2-1.34,1.8a12.25,12.25,0,0,1-2.56,2.47,4.38,4.38,0,0,1-2.12.86C144.88,7.34,144.64,7.33,144.35,7.34Z"/><path class="cls-2" d="M175.89,11.86a4.85,4.85,0,0,1,.55.09,1,1,0,0,1,.34.19.22.22,0,0,1,0,.36.82.82,0,0,1-.28.07c-.36,0-.71,0-1.08,0a4.18,4.18,0,0,0-3.32,1.47l-.44.51a1.81,1.81,0,0,1-.21.18.34.34,0,0,1-.48-.26.39.39,0,0,1,0-.24,3.29,3.29,0,0,1,.34-.84,3.35,3.35,0,0,1,2.32-1.52A7,7,0,0,1,175.89,11.86Z"/><path class="cls-2" d="M171.4,16.42c-.05.54-.09,1-.13,1.37a.84.84,0,0,1-.05.17c-.1.23-.37.23-.55,0a.82.82,0,0,1-.11-.17A2.92,2.92,0,0,1,170.4,16a.86.86,0,0,1,.2-.33.4.4,0,0,1,.63.16A3.4,3.4,0,0,1,171.4,16.42Z"/><path class="cls-2" d="M171.4,19.71a.38.38,0,0,1,.17.12c.2.26.39.53.58.8a.22.22,0,0,1,0,.21.22.22,0,0,1-.22,0,1.78,1.78,0,0,1-.79-.86C171.06,19.81,171.19,19.64,171.4,19.71Z"/><path class="cls-2" d="M169.41,31.17a3.49,3.49,0,0,1,2.16,1.09c.22.25.4.54.6.82a.48.48,0,0,1,.07.18c.07.24-.1.39-.35.31a1.77,1.77,0,0,1-.31-.15c-.23-.15-.47-.3-.69-.47a3.09,3.09,0,0,0-1.48-.66,3.52,3.52,0,0,0-3.21.85,6,6,0,0,0-1,1.37,6.74,6.74,0,0,1-.38.64,1,1,0,0,1-.3.27.38.38,0,0,1-.5-.19,1.22,1.22,0,0,1-.1-.79,3.26,3.26,0,0,1,.81-1.69A4.74,4.74,0,0,1,167,31.31,6.15,6.15,0,0,1,169.41,31.17Z"/><path class="cls-2" d="M174,36.3c0,.28-.08.6-.15.9a.74.74,0,0,1-.21.33.27.27,0,0,1-.35,0,.39.39,0,0,1-.16-.26,4.15,4.15,0,0,0-.35-1.35,6.29,6.29,0,0,1-.22-.74,1.64,1.64,0,0,1,0-.54c0-.18.26-.26.45-.16a1.4,1.4,0,0,1,.42.34A2.87,2.87,0,0,1,174,36.3Z"/><path class="cls-2" d="M284,21.68a1.7,1.7,0,0,1,.1,1.26c-.18.68-.34,1.35-.52,2-.64,2.54-1.28,5.08-1.9,7.62,0,.14-.05.28-.08.44a8.64,8.64,0,0,0,1.11,1.35c.1-.16.2-.29.28-.43s.2-.38.32-.55c.28-.4.45-.46.91-.27.65.27,1.29.56,1.92.88.84.43,1.67.9,2.49,1.36a1.84,1.84,0,0,1,.46.36.88.88,0,0,1,.11.83c-.14.56-.26,1.12-.37,1.69a23.17,23.17,0,0,1-.93,3.31,12.49,12.49,0,0,1-.94,2.07c-.49.88-1,1.78-1.43,2.68a2.74,2.74,0,0,0-.17.43l1.21.09a5.39,5.39,0,0,0,.84-1.27q1.77-3.18,3.52-6.38c.23-.43.42-.9.65-1.34a4,4,0,0,1,.41-.65c.18-.24.36-.24.62-.07l1.8,1.21.29.15.19-.37c.1-.19.18-.39.29-.57a.93.93,0,0,1,1.2-.44,7.38,7.38,0,0,1,.73.29,49,49,0,0,1,4.38,2.26,3,3,0,0,1,.3.19.94.94,0,0,1,.38,1.09,3.07,3.07,0,0,1-.22.6l-1.26,2.53c-.08.16-.15.34-.29.66.26-.18.4-.25.51-.35,1-.87,2-1.73,2.91-2.64a23.66,23.66,0,0,1,3.07-2.42,2.16,2.16,0,0,1,.48-.24,1.17,1.17,0,0,1,1.22.28,3.6,3.6,0,0,1,.58.65c.77,1.18,1.52,2.38,2.29,3.56a1.73,1.73,0,0,1,.22,1.33,12.92,12.92,0,0,1-1.13,3.43,2,2,0,0,1-.86.94c-1,.6-2.06,1.22-3.08,1.83a3.28,3.28,0,0,0-.72.55,5.82,5.82,0,0,1,.34.58.68.68,0,0,1-.16,1c-1.27,1.27-2.53,2.55-3.81,3.82a15.82,15.82,0,0,1-2.56,2.13,1.83,1.83,0,0,0-.21.2,11.61,11.61,0,0,0,1.51,1c.31-.35.63-.67.9-1,.71-.93,1.4-1.87,2.1-2.82.36-.48.72-1,1.06-1.44a7.21,7.21,0,0,0,.55-.88,1.22,1.22,0,0,1,.68-.64,8.13,8.13,0,0,0,2.07-1.12,1.2,1.2,0,0,1,1.46-.07c.26.16.54.3.78.48.41.3.78.64,1.19.94.58.42,1.17.82,1.76,1.22.19.14.4.26.58.41a1,1,0,0,1,.26,1.32c-.28.57-.57,1.11-.89,1.72,0,.11.08.28.14.44.34.93.7,1.86,1,2.8s.29,1-.38,1.6a5.72,5.72,0,0,1-1.18.74c-1.24.68-2.5,1.34-3.75,2-.19.1-.37.22-.58.34a10.13,10.13,0,0,0,.95,1.3c.56.7,1.1,1.42,1.65,2.13.11.14.2.29.3.43a1,1,0,0,1,.13,1.15,4.92,4.92,0,0,1-.8,1.26c-.45.47-.89.94-1.38,1.37-1.66,1.47-3.35,2.93-5,4.39l-.18.17a2.79,2.79,0,0,1-.39,2.07,8.62,8.62,0,0,1-.83,1.15c-1.38,1.63-2.72,3.29-4.15,4.86Q293.59,92.7,288,98.7c-6,6.51-12.11,13-18.16,19.48-.69.73-1.32,1.52-2,2.27a2.61,2.61,0,0,1-.47.47,1.41,1.41,0,0,1-2.05-.82,5.16,5.16,0,0,0-.61-1,53.66,53.66,0,0,0-13.29-13.56,54.87,54.87,0,0,0-7.24-4.16,57.22,57.22,0,0,0-7.35-2.85,23.81,23.81,0,0,0-2.58-.66,1.38,1.38,0,0,1-1.15-1.73c.33-.85.67-1.7,1-2.56q1.59-4.29,3.22-8.58,1.8-4.71,3.64-9.42c1.58-4,3.17-7.94,4.81-11.89q2.65-6.32,5.44-12.6a4.74,4.74,0,0,0,.5-1.33.5.5,0,0,1,.11-.26,8.31,8.31,0,0,0,1.15-2c.45-.83.85-1.7,1.3-2.53.31-.59.67-1.15,1-1.77a2.22,2.22,0,0,1-.06-.36.6.6,0,0,1,.81-.65,4.4,4.4,0,0,1,.79.29c.37.18.72.4,1.08.59a3.4,3.4,0,0,0,.46.21,3.25,3.25,0,0,0,.2-.54c.31-1.45.63-2.91.91-4.37.24-1.16.43-2.33.64-3.49a2.74,2.74,0,0,0,.08-.5,2.17,2.17,0,0,1,.7-1.52c.35-.36.69-.73,1-1.09a2.48,2.48,0,0,1,2.12-.77c.94.09,1.87.21,2.81.32s1.66.22,2.49.34a2.74,2.74,0,0,1,.64.17.7.7,0,0,1,.48.69,4.59,4.59,0,0,0,.07.81c0-.17.08-.33.11-.49.52-2.13,1.06-4.25,1.58-6.37a29.62,29.62,0,0,0,.74-3.23,1,1,0,0,1,.14-.33,1.72,1.72,0,0,1,.25-.35c.75-.83,1.53-1.65,2.27-2.49a1.6,1.6,0,0,1,1.88-.47c1.17.37,2.34.67,3.51,1,.49.14,1,.29,1.46.45a7.87,7.87,0,0,1,.81.3A7,7,0,0,1,284,21.68Zm-2.6,80.07.59-.61Q288.66,94,295.3,86.93c2.36-2.51,4.78-5,7.32-7.28a1.59,1.59,0,0,0,.13-.22,45.69,45.69,0,0,1-7.63-5.57l-.49.4a7.85,7.85,0,0,1-2.13,1.3l-2,.79a12.28,12.28,0,0,1-4,.74,7.54,7.54,0,0,1-3.47-.76c-1.29-.62-2.58-1.26-3.83-2-1.64-1-3.32-1.92-4.91-3a61.24,61.24,0,0,1-8.7-7c-1-1-1.93-2-2.89-2.95-.08-.08-.15-.22-.32-.11a4.89,4.89,0,0,0,.2.48c2.07,4.43,4.21,8.85,6.53,13.21.79,1.46,1.54,2.94,2.31,4.41a4.55,4.55,0,0,1,.3.63,1.51,1.51,0,0,0,.57.71c1.42,1.06,2.82,2.14,4.23,3.22a39.09,39.09,0,0,1,4.86,4.42c.25.27.51.54.73.82a1.72,1.72,0,0,1,.14,2.3,4.43,4.43,0,0,1-.82.8,24.43,24.43,0,0,1-3.61,2.28c-.12.06-.23.14-.37.22C278.85,97.05,280.16,99.32,281.44,101.75Zm-10.83,11.82a2.85,2.85,0,0,1-.27-.3c-1.31-1.83-2.62-3.65-3.91-5.48-2.75-3.93-5.46-7.88-8.2-11.79-1.39-2-2.85-3.9-4.27-5.85a1.87,1.87,0,0,0-.73-.61,6,6,0,0,1-3.34-4.63,13.23,13.23,0,0,1-.14-2.66,1.22,1.22,0,0,0-.22-.79c-.21-.33-.44-.66-.63-1-1.37-2.48-2.85-4.92-4-7.47-.05-.1-.07-.25-.28-.24a2.86,2.86,0,0,0-.18.35l-1.68,4.28c-.81,2.09-1.62,4.17-2.42,6.26-.7,1.82-1.4,3.64-2.08,5.47-.48,1.27-.93,2.56-1.39,3.84-.31.87-.62,1.73-.92,2.59a1.72,1.72,0,0,0,0,.36c1,.32,1.91.58,2.83.91a47.36,47.36,0,0,1,5.35,2.41,60.06,60.06,0,0,1,9.14,5.77,69,69,0,0,1,6.31,5.65,53.27,53.27,0,0,1,6.4,7.36,1.56,1.56,0,0,0,.26.24C267.71,116.77,269.09,115.18,270.61,113.57ZM255.79,72l-.86,1.48a21.59,21.59,0,0,0-1.76,4,26.33,26.33,0,0,0-1.08,5.18,9.94,9.94,0,0,0,.11,3,2.52,2.52,0,0,0,.89,1.61,1.83,1.83,0,0,1,.33.35,4.37,4.37,0,0,0,1.52,1.18c1.77.91,3.52,1.86,5.33,2.64A52.7,52.7,0,0,0,267.13,94a20.74,20.74,0,0,0,3.91.7,11.25,11.25,0,0,0,6-1.09,15.67,15.67,0,0,0,4-2.92,1,1,0,0,0,.14-.15.49.49,0,0,0,0-.67,10.85,10.85,0,0,0-.8-1,24.28,24.28,0,0,0-3.71-3.25c-3.26-2.28-6.52-4.58-9.84-6.8-2.68-1.78-5.43-3.46-8.16-5.18C257.69,73.06,256.76,72.53,255.79,72Zm-3.11-18.8c-.12.23-.17.33-.22.44-.77,1.86-1.53,3.73-2.31,5.58q-2.29,5.47-4.55,10.94a1.18,1.18,0,0,0-.16.66c.25.43.5.83.73,1.24,1.24,2.33,2.63,4.61,3.74,7,.05.12.11.25.25.21.27-.89.51-1.79.82-2.65a14.5,14.5,0,0,1,3.11-5,7.53,7.53,0,0,1,.95-.83,1.7,1.7,0,0,1,.5-.26.51.51,0,0,1,.67.19,1.32,1.32,0,0,0,.57.4c.23.12.47.23.7.36l6,3.4c.1,0,.2.17.34.06-.05-.1-.08-.19-.13-.28-.33-.61-.68-1.22-1-1.85-1.81-3.6-3.71-7.16-5.6-10.7-1.47-2.78-2.94-5.54-4.17-8.4C252.88,53.5,252.81,53.39,252.68,53.15Zm4.09,38.05c.17.26.22.35.28.43.73,1,1.5,2,2.19,3.07,3.92,5.9,7.84,11.83,11.62,17.87a4.47,4.47,0,0,0,.29.35c.7-.61,5.28-5.64,5.59-6.15-.14-.23-.29-.48-.45-.72a29.6,29.6,0,0,1-1.64-2.74c-.52-1-1.06-1.9-1.59-2.84-.66-1.18-1.34-2.35-2-3.52-.23-.41-.43-.84-.63-1.24l-.63-.09a21.14,21.14,0,0,1-5.1-1.17c-1.29-.47-2.58-1-3.86-1.49-1-.38-1.89-.79-2.83-1.2Zm55.6-33.1a2.16,2.16,0,0,0-.25.1A45.54,45.54,0,0,1,308,60.49c-7.09,3.56-14.13,7.34-21.26,11.07a3.76,3.76,0,0,0-.74.59c-.51.49-1,1-1.51,1.49a8.22,8.22,0,0,1-.82.6c-.08.06-.23.07-.18.26a.74.74,0,0,0,.17.12,5.64,5.64,0,0,0,3.17.58,13.85,13.85,0,0,0,3.08-.74,8,8,0,0,0,3.52-2.22,2.35,2.35,0,0,1,.95-.64,1.11,1.11,0,0,1,1.46.35s0,0,.1,0l1.39-.77c1.75-1,3.5-1.93,5.25-2.88l9.39-5.11c.6-.33,1.24-.58,1.87-.86l.34-.19c-.33-.69-.67-1.33-.95-2S312.65,58.81,312.37,58.1ZM271.54,67c.35-1,.68-1.86,1-2.76.52-1.55,1-3.11,1.53-4.67.66-2,1.34-4,2-5.92s1.45-4,2.18-6c.26-.74.5-1.49.74-2.24a2.08,2.08,0,0,0,0-.47,9.3,9.3,0,0,1-2.34-.76.86.86,0,0,0-.21-.07,9.81,9.81,0,0,1-2.56-.87,5.23,5.23,0,0,0-.22.55,36.45,36.45,0,0,1-1.3,3.86c-1,2.4-1.82,4.85-2.64,7.31-.64,1.94-1.21,3.91-1.81,5.87-.12.38-.26.76-.39,1.14a5.3,5.3,0,0,0-.35,1.22c.07.08.1.15.16.19a1.49,1.49,0,0,1,.79,1,.47.47,0,0,0,.35.38,2.45,2.45,0,0,1,1.15.72L271,66.6ZM292,46.62c-.57.87-1.09,1.73-1.68,2.54-1.09,1.5-2.21,3-3.35,4.45-1.82,2.34-3.68,4.65-5.51,7-2.17,2.74-4.35,5.47-6.36,8.32-.11.16-.3.29-.27.59l2,1.29c.09,0,.15-.05.17-.08l2.15-2.61c2.32-2.78,4.73-5.47,7.28-8,.19-.19.36-.42.56-.61a.78.78,0,0,1,1-.16l.69.3c1.23-1.57,2.44-3.15,3.7-4.67s2.61-3,3.91-4.54A51.24,51.24,0,0,0,292,46.62Zm-29.44,9.71c.17-.15.29-.25.4-.36L266,53c.68-.65,1.36-1.29,2-2a1.39,1.39,0,0,0,.37-.5c.54-1.45,1.18-2.86,1.6-4.36.11-.39.23-.78.36-1.16a2,2,0,0,1,.6-1l1-1a7.76,7.76,0,0,1,1.53-1.06,9.57,9.57,0,0,0,.94.37c.61.17,1.24.32,1.86.48l.48.1a14.13,14.13,0,0,1,1.15-.85,2.33,2.33,0,0,0,.83-.93q1.5-2.61,3-5.22c.08-.14.15-.28.22-.42a23.62,23.62,0,0,1-2.82-3.28c-.24.33-.43.62-.65.89a10.55,10.55,0,0,1-.72.78l-.09.11q-6,6.58-12.33,12.88a1.65,1.65,0,0,0-.2.23c.13.12.24.22.34.33a1.45,1.45,0,0,1,.28,1.82,3.13,3.13,0,0,1-.32.46,11.62,11.62,0,0,0-1.29,2c-.46.9-.93,1.81-1.38,2.71a3.75,3.75,0,0,0-.42,1.44A1.91,1.91,0,0,0,262.54,56.33Zm25.08,4.6c-.36.33-.65.62-1,.89a9.59,9.59,0,0,1-1.12.9,4.45,4.45,0,0,0-1,.92l-6.25,7.56a1,1,0,0,0,.13,1.57,5.86,5.86,0,0,0,2.89,1.58,1.4,1.4,0,0,0,1.58-.72,11.8,11.8,0,0,1,1.59-2c.64-.68,1.3-1.34,2-2l4.9-4.87a1.68,1.68,0,0,0,.53-.64A31.81,31.81,0,0,1,287.62,60.93Zm-7-29.27c.2-.47,1.77-6.54,2.17-8.4.05-.21.07-.42.1-.61l-5.69-2-.14,0H277l-.1.05a1.32,1.32,0,0,0-.13.29c-.19.67-.39,1.33-.55,2-.39,1.66-.75,3.33-1.14,5-.64,2.76-1.29,5.52-1.92,8.28a.84.84,0,0,0,0,.24,1.68,1.68,0,0,0,.26-.17c1.21-1.22,2.49-2.38,3.6-3.71a4.22,4.22,0,0,1,.69-.71c.46-.33.94-.62,1.42-.92,0,0,.09,0,.18,0ZM263.7,46.27l5.05-5.17a9.62,9.62,0,0,1-.14-1.31c0-.67.16-1.34.26-2,.23-1.57.49-3.14.74-4.71a2.49,2.49,0,0,0,0-.37,18.25,18.25,0,0,0-2.32-.07,12,12,0,0,1-3.31-.39,2,2,0,0,0-.37,0,3.73,3.73,0,0,0-.11.52c-.28,1.78-.54,3.57-.8,5.36-.19,1.36-.39,2.72-.54,4.09a13,13,0,0,1-.44,2.49,2.6,2.6,0,0,0-.06.44A22.5,22.5,0,0,0,263.7,46.27Zm6.46,32.93c-.12-.26-.17-.4-.24-.54-.45-.84-.89-1.7-1.37-2.53-1.75-3.07-3.31-6.21-4.85-9.35q-3.68-7.59-7.22-15.16c-.52-1.13-1-2.29-1.44-3.43,0-.11-.09-.22-.16-.37a.91.91,0,0,0-.35.55c-.29.76-.57,1.52-.88,2.27a.87.87,0,0,0,0,.84,2.21,2.21,0,0,1,.12.27c1.49,3,3,6,4.5,9,2,3.88,4.07,7.75,6.14,11.63a17.24,17.24,0,0,1,1.73,4.07l2,1.35C268.78,78.24,269.38,78.73,270.16,79.2ZM302,48.14a1.67,1.67,0,0,0-.16.12,39.3,39.3,0,0,1-4.07,3.68.67.67,0,0,0-.27.47q-.12,1-.27,2a9.68,9.68,0,0,1-.25,1.19,1.64,1.64,0,0,1-.3.55L292,61.92a2.48,2.48,0,0,0-.19.31c.42.37.8.72,1.21,1.1.16-.18.31-.32.43-.48.52-.67,1-1.36,1.55-2s1.12-1.39,1.7-2.08a3.27,3.27,0,0,1,.55-.5.38.38,0,0,1,.52,0,.86.86,0,0,0,.61.22c1.15-.93,2.33-1.85,3.48-2.81s2.29-2,3.41-3a.81.81,0,0,0,0-.2c-1.09-1.37-2.09-2.81-3.08-4.26C302.09,48.18,302,48.17,302,48.14ZM284.12,34.6c-.15.27-.28.49-.39.73-1,2.1-2.16,4.1-3.24,6.15-.35.67-.72,1.33-1.07,2a2.2,2.2,0,0,0-.12.41c.24.13.46.24.67.37a.55.55,0,0,1,.31.55c-.07.45-.11.91-.22,1.35a31.23,31.23,0,0,1-1.24,3.8c-.7,1.81-1.4,3.63-2.08,5.44s-1.21,3.34-1.81,5a22.57,22.57,0,0,0-.82,2.84.85.85,0,0,0,.26-.31c.26-.58.52-1.16.75-1.76.91-2.4,1.88-4.78,3-7.09,1.64-3.31,3.29-6.62,5-9.9.8-1.52,1.71-3,2.57-4.47.52-.9,1-1.81,1.52-2.72a1.56,1.56,0,0,0,.24-.77Zm24.12,32.72c-.15.14-.24.2-.32.28-1.34,1.49-2.85,2.79-4.31,4.15-.59.54-1.22,1-1.86,1.53s-1.17.82-1.75,1.23a1.56,1.56,0,0,0-.24.26l1.38,1,1.28.89c.44.31.76.8,1.23,1.08l.33-.28c.88-.78,1.77-1.56,2.64-2.36.52-.46,1-.93,1.51-1.41A29.36,29.36,0,0,1,311,71.12c.07-.06.12-.12.22-.22A24.13,24.13,0,0,1,308.24,67.32ZM308,41a2.63,2.63,0,0,0-.33.15,20.17,20.17,0,0,0-2.61,2.1,28.46,28.46,0,0,1-3.59,3.08c-.46.34-.93.65-1.38,1a15.24,15.24,0,0,1-2.86,1.86c-.12.06-.27.08-.3.3.13.14.28.29.42.46s.31.37.47.57a2.46,2.46,0,0,0,.72-.55c.71-.65,1.4-1.31,2.12-1.95.31-.27.66-.49,1-.73a.6.6,0,0,1,.77,0,3.58,3.58,0,0,1,.63.6c.35.44.67.9,1,1.39a7.66,7.66,0,0,1,1.42-1.21L310,44.39c.13-.11.31-.19.33-.43A17.25,17.25,0,0,0,308,41ZM263.12,48.7a20.78,20.78,0,0,0-1.75-1.13c-.58-.37-1.17-.72-1.76-1.1l-1.79-1.19c-.57-.37-1.06-.87-1.7-1.24-.21.63-.38,1.23-.62,1.79a1.39,1.39,0,0,0,.07,1.19q2.19,4.63,4.4,9.28a1.56,1.56,0,0,0,.2.3c0-.06.06-.08.06-.1s0-.15,0-.22a5.36,5.36,0,0,1,.43-2.61c.63-1.35,1.26-2.69,1.91-4A10.55,10.55,0,0,1,263.12,48.7Zm29.52-10.2c-.06.14-.12.24-.16.34a47.76,47.76,0,0,1-2.08,4.75,15.77,15.77,0,0,1-1.78,3,3.33,3.33,0,0,0-.28.51l1.29.38.34-.34c.43-.45.88-.89,1.29-1.36a.65.65,0,0,1,.94-.13c.39.24.78.49,1.16.75s.62.47,1,.73c.1-.14.19-.24.26-.36.38-.67.77-1.33,1.14-2s.81-1.54,1.2-2.32a1,1,0,0,0,.2-.66ZM271.92,95.83c.18.26.32.48.47.69a57.94,57.94,0,0,1,4.28,7.06c.28.54.48,1.11.72,1.66l.25.57a32.44,32.44,0,0,0,2.9-3.16c-1.28-2.5-2.78-4.93-3.82-7.54-.78.19-1.51.42-2.27.54S272.83,95.77,271.92,95.83Zm37.45-42.35a1,1,0,0,0-.13.11l-.45.62a46.84,46.84,0,0,1-5.86,7.12s0,.11-.1.26c3.29-1.57,6.49-3.09,9.81-4.39.08-.29.17-.6.26-.89A35,35,0,0,0,309.37,53.48Zm-11.84,6c-.5.74-1,1.46-1.46,2.14s-1,1.33-1.51,2-1.08,1.3-1.62,1.95-1.1,1.26-1.64,2c.16,0,.22,0,.27,0,3.26-1.69,6.49-3.4,9.72-5.11,0,0,0-.08.07-.16Zm-1.68-11,1.14-.91a2,2,0,0,0,.37-.39,10.45,10.45,0,0,0,.51-.93c.41-.84.81-1.69,1.23-2.53s.76-1.51,1.13-2.27a2.87,2.87,0,0,0,.12-.43c-1.44-.69-2.68-1.72-4.11-2.4a1.64,1.64,0,0,0-.19.24,2.34,2.34,0,0,0-.18.35l0,.1,1.35,1.1c.21.17.42.33.62.51a1.13,1.13,0,0,1,.4,1.48,4.52,4.52,0,0,1-.18.47,35,35,0,0,1-1.86,3.79c-.26.47-.5,1-.76,1.45ZM275.26,22l-.12-.06c-.14.12-.29.24-.42.37a4,4,0,0,0-.85.85,4.35,4.35,0,0,0-.27,1.26,60.25,60.25,0,0,1-1.34,6.13c-.44,1.6-.73,3.23-1,4.86-.22,1.16-.41,2.32-.61,3.48,0,0,0,.09,0,.13.43-.2.56-.34.63-.73s.18-1.1.31-1.63c.4-1.58.82-3.16,1.24-4.73.84-3,1.66-6.11,2.29-9.23C275.17,22.44,275.21,22.21,275.26,22Zm8.92,32.13a2,2,0,0,0,.28-.23c1.27-1.56,2.55-3.11,3.82-4.68a.75.75,0,0,0,.09-.24,11,11,0,0,0-3-.24A15.25,15.25,0,0,0,284.18,54.1Zm12.28-1.34c-.06,0-.1,0-.11,0-1.94,2.67-4.16,5.1-6.19,7.69-.05.07-.09.16-.16.28l.64.56c.15-.16.29-.28.41-.41L295,56.36c.24-.27.49-.54.73-.82a1.1,1.1,0,0,0,.22-.43c.16-.64.3-1.3.45-2C296.43,53,296.44,52.9,296.46,52.76Zm-34-19.95a3.94,3.94,0,0,0-.88.57,1.16,1.16,0,0,0-.56,1,28.93,28.93,0,0,1-.67,4.57c-.36,1.55-.53,3.14-.83,4.7a.69.69,0,0,0,0,.22l.57.31C260.9,40.42,261.75,36.71,262.43,32.81Zm14.73,30.36a3.74,3.74,0,0,0,.31-.33l3.39-4.31a1.55,1.55,0,0,0,.44-1.08,1.05,1.05,0,0,1,.08-.35c.5-1.49.74-3.06,1.14-4.59,0-.1,0-.2.05-.43a2.06,2.06,0,0,0-.19.27c-1.71,3.53-3.38,7.08-5.19,10.54A1.28,1.28,0,0,0,277.16,63.17ZM286.59,41c-1.11,1.49-11.9,23.65-12.31,25.29a1.67,1.67,0,0,0,.39-.6c.65-1.4,1.32-2.8,2-4.2q1.56-3.32,3.13-6.63c.74-1.55,1.43-3.13,2.21-4.65,1.34-2.59,2.75-5.15,4.14-7.71.12-.23.25-.46.35-.7A1.23,1.23,0,0,0,286.59,41Zm17,28.24a1.28,1.28,0,0,0-.24.11l-6,3.36c-.06,0-.09.13-.15.21.56.35,1,.75,1.59,1.06C300.24,72.3,301.91,70.81,303.54,69.26Zm1.3-19c.17.33.22.36.39.25.52-.31,1-.62,1.55-1,.93-.65,1.83-1.34,2.76-2a1.88,1.88,0,0,0,.74-1c.07-.22.18-.43.26-.65a2.08,2.08,0,0,0,.07-.35,2.42,2.42,0,0,0-.29.19c-.29.25-.57.52-.87.77A38,38,0,0,1,305,50.13C304.93,50.16,304.89,50.23,304.84,50.27Zm-37.95,4-.2.17c-1.2,1.11-2.33,2.29-3.63,3.29a.48.48,0,0,0-.11.09c-.12.16-.07.31.11.47a1.05,1.05,0,0,0,.29-.17l3.35-3.17A.65.65,0,0,0,266.89,54.26Zm36.59,4.31a20.51,20.51,0,0,0,3.47-3.8c.09-.11.24-.2.22-.42a1.16,1.16,0,0,0-.89.52c-.75,1-1.54,2-2.31,3.05Zm-33.23-8.93a48.92,48.92,0,0,0,2-5.14.52.52,0,0,0-.2.07,2,2,0,0,0-.63,1c-.26.85-.53,1.69-.78,2.53C270.52,48.59,270.4,49.08,270.25,49.64Zm-5.53,11.07c.06-.05.14-.07.15-.12.23-.62.45-1.25.66-1.88,0-.09.13-.21,0-.34A11.35,11.35,0,0,0,264,59.85,2.74,2.74,0,0,0,264.72,60.71Z"/><path class="cls-2" d="M242.4,51.35a24.79,24.79,0,0,1,2.73-6,26.86,26.86,0,0,1,3.76-4.94c.66-.66,1.26-1.36,1.9-2a9.49,9.49,0,0,1,.72-.7,1.54,1.54,0,0,1,.49-.3.7.7,0,0,1,.78.1.73.73,0,0,1,.26.81,1.73,1.73,0,0,1-.25.51c-.41.63-.83,1.27-1.27,1.89l-2.89,4.07a38.75,38.75,0,0,0-3.16,5.48c-.53,1.06-1.09,2.11-1.64,3.15a3.94,3.94,0,0,1-.31.48,1.49,1.49,0,0,1-.23.27.68.68,0,0,1-.74.22.76.76,0,0,1-.51-.71,4.32,4.32,0,0,1,0-1C242.15,52.18,242.29,51.77,242.4,51.35Z"/><path class="cls-2" d="M304.7,86.23a4.17,4.17,0,0,1-.27.58,12.57,12.57,0,0,1-.86,1.29,61.14,61.14,0,0,1-4.73,5.54c-1.37,1.38-2.66,2.87-4,4.3-.55.58-1.12,1.14-1.7,1.69a3.47,3.47,0,0,1-.77.52.59.59,0,0,1-.73-.06c-.27-.25-.11-.52,0-.74a3.11,3.11,0,0,1,.45-.75c.59-.77,1.19-1.52,1.8-2.27.84-1,1.7-2.07,2.54-3.12.48-.59.95-1.19,1.4-1.8a46.14,46.14,0,0,1,4-4.66,12.67,12.67,0,0,1,1.29-1.14,2.43,2.43,0,0,1,.76-.41c.53-.17.92.24.83.83A1.06,1.06,0,0,1,304.7,86.23Z"/><path class="cls-2" d="M319.36,60.4c-.11.49-.21,1-.34,1.46a2.94,2.94,0,0,1-.29.71.49.49,0,0,1-.58.22.62.62,0,0,1-.47-.5,3.11,3.11,0,0,1-.08-.8c0-.75.09-1.5.1-2.26s0-1.46-.06-2.2a9.31,9.31,0,0,0-.6-2.58c-.34-.93-.7-1.85-1-2.78-.22-.65-.42-1.31-.58-2a3.65,3.65,0,0,1,.14-2.22,2.67,2.67,0,0,1,.39-.65,1.07,1.07,0,0,1,.44-.28A.44.44,0,0,1,317,47a2.69,2.69,0,0,1-.06.57,4.65,4.65,0,0,0,.47,3c.24.49.48,1,.7,1.46a20.39,20.39,0,0,1,1.26,3.4,8.11,8.11,0,0,1,.16,3.91c-.07.35-.12.71-.18,1.07Z"/><path class="cls-2" d="M240.55,44.57a12.25,12.25,0,0,1,1.64-3.18,21.66,21.66,0,0,1,3.42-3.87l2.8-2.5c.25-.22.52-.43.79-.63a2.46,2.46,0,0,1,.45-.25.49.49,0,0,1,.55.14.38.38,0,0,1,.06.48,2.71,2.71,0,0,1-.38.51c-.64.69-1.29,1.36-1.92,2a68,68,0,0,0-6.27,7.82c-.17.25-.35.51-.55.75a.33.33,0,0,1-.46.1.72.72,0,0,1-.25-.36.63.63,0,0,1,0-.36C240.45,45,240.51,44.74,240.55,44.57Z"/><path class="cls-2" d="M322.87,60.94c-.24.91-.45,1.69-.66,2.47a.79.79,0,0,1-.16.3.25.25,0,0,1-.23.07.31.31,0,0,1-.18-.19,2.82,2.82,0,0,1,0-.58c.05-1,.11-2.09.18-3.13a12.28,12.28,0,0,0-.22-3.14c-.07-.39-.15-.78-.21-1.17a2.19,2.19,0,0,1,0-.57.38.38,0,0,1,.61-.29,1.39,1.39,0,0,1,.42.48,8.2,8.2,0,0,1,.43,1.17,9.94,9.94,0,0,1,.22,3.43C323,60.22,322.91,60.65,322.87,60.94Z"/><path class="cls-2" d="M254.77,35.14a4.21,4.21,0,0,1,.24-.47,3.8,3.8,0,0,1,.36-.53,26.55,26.55,0,0,1,4-3.74,1.14,1.14,0,0,1,.81-.29.35.35,0,0,1,.32.52,2.63,2.63,0,0,1-.36.45q-1.62,1.66-3.25,3.32c-.36.37-.75.73-1.13,1.09a2.69,2.69,0,0,1-.47.34.42.42,0,0,1-.49,0,.4.4,0,0,1-.13-.4A2.15,2.15,0,0,1,254.77,35.14Z"/><path class="cls-2" d="M242.07,59.49c-.33.75-.69,1.6-1.06,2.44a1.28,1.28,0,0,1-.29.4.78.78,0,0,1-1.23-.28,1.33,1.33,0,0,1-.14-.57,3.57,3.57,0,0,1,.09-.87c.15-.65.31-1.3.51-1.93a2.23,2.23,0,0,1,.41-.74,1,1,0,0,1,1.16-.25,1.18,1.18,0,0,1,.67,1.12C242.17,59,242.12,59.19,242.07,59.49Z"/><path class="cls-2" d="M318.73,66.66a5.16,5.16,0,0,1-.23.74,14.37,14.37,0,0,1-1.31,2.33.47.47,0,0,1-.62.21.33.33,0,0,1-.18-.37,5.45,5.45,0,0,1,.2-.82c.22-.64.47-1.27.71-1.91.17-.48.34-1,.52-1.45.05-.13.08-.27.14-.4a.33.33,0,0,1,.38-.2.45.45,0,0,1,.34.34,2.28,2.28,0,0,1,.09.51C318.77,66,318.74,66.41,318.73,66.66Z"/></svg>