<?xml version="1.0" encoding="utf-8"?>
<!-- Generator: Adobe Illustrator 23.0.1, SVG Export Plug-In . SVG Version: 6.00 Build 0)  -->
<svg version="1.1" id="Layer_1" xmlns="http://www.w3.org/2000/svg" xmlns:xlink="http://www.w3.org/1999/xlink" x="0px" y="0px"
	 viewBox="0 0 512 512" style="enable-background:new 0 0 512 512;" xml:space="preserve">
<style type="text/css">
	.st0{fill:#FB8E00;}
</style>
<path class="st0" d="M436.98,75.02C336.96-25,175.06-25.01,75.02,75.02C-25,175.04-25.01,336.94,75.02,436.98
	c100.02,100.02,261.92,100.04,361.96,0C537,336.96,537.01,175.06,436.98,75.02z M256,469.9c-117.94,0-213.9-95.95-213.9-213.9
	S138.06,42.1,256,42.1S469.9,138.06,469.9,256S373.94,469.9,256,469.9L256,469.9z"/>
<path class="st0" d="M288.03,128.2h-74.75c-11.61,0-21.02,9.41-21.02,21.02v85.76h-21.69c-11.61,0-21.02,9.41-21.02,21.02
	c0,11.61,9.41,21.02,21.02,21.02h21.69v22.02h-21.69c-11.61,0-21.02,9.41-21.02,21.02c0,11.61,9.41,21.02,21.02,21.02h21.69v21.69
	c0,11.61,9.41,21.02,21.02,21.02s21.02-9.41,21.02-21.02v-21.69h43.05c11.61,0,21.02-9.41,21.02-21.02
	c0-11.61-9.41-21.02-21.02-21.02h-43.05v-22.02h53.72c41.03,0,74.41-33.38,74.41-74.41C362.45,161.58,329.07,128.2,288.03,128.2z
	 M288.03,234.98h-53.72v-64.74h53.72c17.85,0,32.37,14.52,32.37,32.37S305.88,234.98,288.03,234.98L288.03,234.98z"/>
</svg>
