<?xml version="1.0" encoding="utf-8"?>
<!-- Generator: Adobe Illustrator 23.0.1, SVG Export Plug-In . SVG Version: 6.00 Build 0)  -->
<svg version="1.1" id="Capa_1" xmlns="http://www.w3.org/2000/svg" xmlns:xlink="http://www.w3.org/1999/xlink" x="0px" y="0px"
	 viewBox="0 0 112.2 112.2" style="enable-background:new 0 0 112.2 112.2;" xml:space="preserve">
<style type="text/css">
	.st0{fill:#E6E6E6;}
</style>
<path class="st0" d="M55.7,0C24.7,0.2-0.2,25.6,0,56.5c0.2,31,25.6,55.9,56.5,55.6c31-0.2,55.9-25.6,55.6-56.5S86.6-0.2,55.7,0z
	 M88.4,80.4l-9.8,0.2c0,0-2.1,0.4-4.9-1.5c-3.7-2.5-7.2-9-9.9-8.2c-2.7,0.9-2.6,6.8-2.6,6.8s0,1.3-0.6,1.9c-0.7,0.7-2,0.9-2,0.9
	l-4.4,0c0,0-9.7,0.7-18.3-8.2C26.4,62.9,18,43.7,18,43.7s-0.5-1.3,0-1.9c0.6-0.7,2.2-0.7,2.2-0.7l10.5-0.2c0,0,1,0.2,1.7,0.7
	c0.6,0.4,0.9,1.2,0.9,1.2s1.7,4.3,4,8.2c4.5,7.6,6.5,9.2,8,8.4c2.2-1.2,1.4-10.8,1.4-10.8s0-3.5-1.1-5c-0.9-1.2-2.5-1.5-3.3-1.6
	c-0.6-0.1,0.4-1.5,1.6-2.1c1.9-0.9,5.2-1,9.2-1c3.1,0,4,0.2,5.2,0.5c3.6,0.8,2.4,4.2,2.5,12.4c0,2.6-0.4,6.3,1.5,7.5
	c0.8,0.5,2.8,0.1,7.6-8.4c2.3-4,4-8.7,4-8.7s0.4-0.8,1-1.2c0.6-0.4,1.4-0.3,1.4-0.3l11.1-0.2c0,0,3.3-0.4,3.9,1.1
	c0.6,1.6-1.2,5.3-5.7,11.3c-7.4,10-8.2,9-2,14.7c5.9,5.4,7.2,8.1,7.4,8.4C93.6,80.1,88.4,80.4,88.4,80.4z"/>
</svg>
