<?xml version="1.0" encoding="utf-8"?>
<!-- Generator: Adobe Illustrator 23.0.1, SVG Export Plug-In . SVG Version: 6.00 Build 0)  -->
<svg version="1.1" id="Слой_1" xmlns="http://www.w3.org/2000/svg" xmlns:xlink="http://www.w3.org/1999/xlink" x="0px" y="0px"
	 viewBox="0 0 512 512" style="enable-background:new 0 0 512 512;" xml:space="preserve">
<style type="text/css">
	.st0{fill:#FFA500;}
</style>
<path class="st0" d="M294.7,67c32.8,5.1,63.3,16.6,88.1,33.4c24,16.2,41.6,36.5,51,58.8c1.6,3.8,5.3,6.1,9.2,6.1
	c1.3,0,2.6-0.3,3.9-0.8c5.1-2.1,7.5-8,5.3-13.1c-10.9-25.8-31-49.2-58.2-67.6c-27.2-18.4-60.5-31.1-96.2-36.6
	c-5.4-0.8-10.6,2.9-11.4,8.4C285.5,61,289.2,66.1,294.7,67z"/>
<path class="st0" d="M100.4,142c1.6,3.8,5.6,6.4,9.7,6.2c4.1-0.2,7.8-3.1,9-6.9c1.2-3.9-0.1-8.5-3.4-11c-3.4-2.6-8.4-2.7-11.9-0.2
	C100.1,132.6,98.6,137.8,100.4,142z"/>
<path class="st0" d="M148.5,104.7c1.6,3.8,5.7,6.4,9.9,6.2c4-0.3,7.7-3.1,8.9-6.9c1.3-3.9-0.2-8.4-3.4-10.9c-3.4-2.6-8.5-2.8-12-0.2
	C148.3,95.4,146.8,100.6,148.5,104.7z"/>
<path class="st0" d="M200.3,142c1.6,3.8,5.6,6.4,9.7,6.2c4.1-0.2,7.8-3.1,9-6.9c1.2-3.9-0.2-8.5-3.4-11c-3.4-2.6-8.4-2.7-11.9-0.2
	C200,132.6,198.6,137.8,200.3,142z"/>
<path class="st0" d="M512,319.9c0-22-14.1-40.8-33.8-47.7v-25c3.2-1.2,6.2-2.7,9.1-4.6c11.4-7.7,17.9-19.7,17.9-33.1
	c0-8.4-2.6-16.3-7.4-23c2.4-5.8,3.2-12.2,2-18.5c-8.6-45.8-38-87.7-82.8-118.1C372.3,19.6,315.1,3,256,3S139.7,19.6,95.1,49.8
	c-44.8,30.3-74.2,72.3-82.8,118.1c-1.5,7.9,0,16,4.2,22.8c-3.1,5.7-4.7,12.1-4.7,18.8c0,13.4,6.5,25.5,17.9,33.2
	c1.4,0.9,2.8,1.7,4.2,2.5v27.2C14.1,279.2,0,297.9,0,319.9v2c0,14.6,6.2,27.7,16.1,37c-2.9,5.6-4.4,11.8-4.4,18.1
	c0,10,3.6,19.3,10.2,26.5v36.1c0,38.6,31.4,69.9,69.9,69.9h328.3c38.6,0,69.9-31.4,69.9-69.9v-31.6c9.6-7.7,15.1-18.8,15.1-31.1
	c0-7.7-2.2-15-6.2-21.2c8.1-9,13-20.8,13-33.9V319.9z M492,319.9v2c0,10.3-5.1,19.5-13,25c-5.1,3.6-11.3,5.6-17.6,5.6H306.3
	l63.8-63.2h91.3C478.3,289.4,492,303.1,492,319.9z M151.6,289.4l1.6,1.6l10.3,10.3l-21.5,21.5l-33.3-33.3H151.6z M246,355.5
	l-61.4-61.3c0,0,0,0,0,0l-4.8-4.8h161.8l-66.8,66.1c0,0,0,0,0,0c0,0,0,0,0,0l-14.4,14.4L246,355.5z M31.9,171.6
	c7.6-40.5,34-77.8,74.4-105.2C147.6,38.4,200.8,23,256,23s108.4,15.4,149.7,43.4c40.4,27.3,66.8,64.7,74.4,105.2
	c1.4,7.5-4.6,14.7-12.2,14.7H44.1C36.5,186.3,30.5,179.1,31.9,171.6z M32.4,204.1c3.7,1.4,7.7,2.2,11.7,2.2h423.7
	c5.5,0,11.1-1.4,15.9-4.1c0.9,2.3,1.4,4.8,1.4,7.3c0,6.6-3.3,12.7-9.1,16.5c-5.9,4-13.4,4.9-20.1,2.8c-3.3-1.1-6.5-2.4-9.9-3.1
	c-3.7-0.8-7.5-1.1-11.3-1.1c-17.9,0-27.4,6.8-35.1,12.2c-6.8,4.8-12.1,8.5-23.6,8.5s-16.9-3.8-23.6-8.5
	c-7.7-5.4-17.3-12.2-35.1-12.2c-17.9,0-27.4,6.8-35.1,12.2c-6.8,4.8-12.1,8.5-23.6,8.5s-16.9-3.8-23.6-8.5
	c-7.7-5.4-17.3-12.2-35.1-12.2s-27.4,6.8-35.1,12.2c-6.8,4.8-12.1,8.5-23.6,8.5c-11.5,0-16.9-3.8-23.6-8.5
	c-7.7-5.4-17.3-12.2-35.1-12.2c-7.1,0-13.4,1.2-19.5,3.7c-7.1,2.9-15.5,2.2-21.9-2.1c-5.8-3.9-9.1-9.9-9.1-16.5
	C31.7,207.6,31.9,205.8,32.4,204.1z M55.8,249.8c5.2-0.3,10.2-1.6,15.1-3.4c4.9-1.9,10.2-2.2,15.3-1.8c8.8,0.8,13.7,4.2,19.6,8.4
	c7.7,5.4,17.3,12.2,35.1,12.2c17.9,0,27.4-6.8,35.1-12.2c6.8-4.8,12.1-8.5,23.6-8.5s16.9,3.8,23.6,8.5c7.7,5.4,17.3,12.2,35.1,12.2
	s27.4-6.8,35.1-12.2c6.8-4.8,12.1-8.5,23.6-8.5c11.5,0,16.9,3.8,23.6,8.5c7.7,5.4,17.3,12.2,35.1,12.2s27.4-6.8,35.1-12.2
	c6.8-4.8,12.1-8.5,23.6-8.5c4.1,0,8.1,0.7,11.9,2.2c3.7,1.5,7.6,2.5,11.6,3v19.8H366c0,0,0,0,0,0h0H155.7c0,0,0,0,0,0c0,0,0,0,0,0
	H53.8v-19.5C54.5,249.9,55.1,249.8,55.8,249.8z M20,319.9c0-16.9,13.7-30.6,30.6-30.6h29.8l54.5,54.5c1.9,1.9,4.4,2.9,7.1,2.9
	s5.2-1.1,7.1-2.9l28.5-28.5l37.2,37.2H50.6c-5.3,0-10.5-1.4-15.1-4C26.2,343.3,20,333.3,20,322V319.9z M33.4,369.5
	c5.5,2,11.4,3,17.2,3h184.2l18.5,18.5c3.8,3.8,10.3,3.8,14.1,0l18.7-18.6h175.2c5.6,0,11.3-1,16.6-2.8c1.1-0.4,2.3-0.8,3.3-1.3
	c0.3-0.2,0.8-0.6,1.2-0.5c0.6,0,0.7,0.7,0.9,1.2c1.1,2.4,1.7,5,1.7,7.6c0.2,9.4-6.6,17.3-15.5,19.9c-5.1,1.5-10.6,1.1-15.5-0.9
	c-6-2.5-12.4-3.7-19.5-3.7c-17.9,0-27.4,6.8-35.1,12.2c-6.8,4.8-12.1,8.5-23.6,8.5c-11.5,0-16.9-3.8-23.6-8.5
	c-7.7-5.4-17.3-12.2-35.1-12.2s-27.4,6.8-35.1,12.2c-6.8,4.8-12.1,8.5-23.6,8.5s-16.9-3.8-23.6-8.5c-7.7-5.4-17.3-12.2-35.1-12.2
	s-27.4,6.8-35.1,12.2c-6.8,4.8-12.1,8.5-23.6,8.5c-11.5,0-16.9-3.8-23.6-8.5c-7.7-5.4-17.3-12.2-35.2-12.2c-7.1,0-13.4,1.2-19.5,3.7
	c-6.5,2.7-14.1,2.3-20.3-1.2c-5.4-3.1-9.5-8.3-10.5-14.6c-0.3-1.8-0.3-3.7-0.1-5.6C31.9,373.9,32.9,369.3,33.4,369.5z M470.1,439.7
	c0,27.5-22.4,49.9-49.9,49.9H91.8c-27.5,0-49.9-22.4-49.9-49.9V416c8.2,2.3,17.1,2.2,25.5-0.6c0.2-0.1,0.3-0.1,0.5-0.2
	c0.8-0.3,1.5-0.5,2.3-0.9c3.6-1.5,7.5-2.2,11.9-2.2c11.5,0,16.9,3.8,23.6,8.5c7.7,5.4,17.3,12.2,35.2,12.2
	c17.9,0,27.4-6.8,35.1-12.2c6.8-4.8,12.1-8.5,23.6-8.5c11.5,0,16.9,3.8,23.6,8.5c7.7,5.4,17.3,12.2,35.1,12.2
	c17.9,0,27.4-6.8,35.1-12.2c6.8-4.8,12.1-8.5,23.6-8.5c11.5,0,16.9,3.8,23.6,8.5c7.7,5.4,17.3,12.2,35.1,12.2s27.4-6.8,35.1-12.2
	c6.8-4.8,12.1-8.5,23.6-8.5c3,0,6,0.3,8.8,1.1c2.7,0.8,5.3,2,8.1,2.7c5.9,1.7,12.4,2,18.5,1L470.1,439.7L470.1,439.7z"/>
<path class="st0" d="M225.9,104.7c1.6,3.8,5.6,6.4,9.7,6.2c4.1-0.2,7.8-3.1,9-6.9c1.3-3.9-0.2-8.5-3.4-11c-3.4-2.6-8.4-2.7-11.9-0.2
	C225.7,95.4,224.2,100.6,225.9,104.7z"/>
<path class="st0" d="M271,148.8c1.6,3.8,5.6,6.4,9.7,6.2c4.1-0.2,7.8-3.1,9-6.9c1.3-3.9-0.2-8.5-3.4-11c-3.4-2.6-8.4-2.7-11.9-0.2
	C270.8,139.5,269.3,144.6,271,148.8z"/>
<path class="st0" d="M245.5,59c3.6,2.4,8.6,2.1,11.9-0.6c3.2-2.6,4.5-7.3,3-11.3c-1.5-3.8-5.3-6.5-9.4-6.5c-4,0-7.9,2.7-9.3,6.5
	C240.1,51.4,241.7,56.5,245.5,59z"/>
</svg>
