<?xml version="1.0" encoding="utf-8"?>
<!-- Generator: Adobe Illustrator 23.0.1, SVG Export Plug-In . SVG Version: 6.00 Build 0)  -->
<svg version="1.1" id="Capa_1" xmlns="http://www.w3.org/2000/svg" xmlns:xlink="http://www.w3.org/1999/xlink" x="0px" y="0px"
	 viewBox="0 0 512 512" style="enable-background:new 0 0 512 512;" xml:space="preserve">
<style type="text/css">
	.st0{fill:#FFA500;}
</style>
<g>
	<g>
		<g>
			<path class="st0" d="M190.5,407.2L190.5,407.2c-38.6-13.2-72.2-38-96.2-70.9c-1.8-2.5-4.8-3.8-7.8-3.5s-5.7,2.2-6.9,5
				c-1.2,2.8-0.9,6,0.9,8.5c26.1,35.8,62.6,62.7,104.5,77c4.5,1.5,9.3-0.9,10.8-5.3C197.3,413.6,194.9,408.8,190.5,407.2z"/>
			<path class="st0" d="M69.1,287.5c-1.5-4.5-6.3-6.9-10.8-5.4c-4.5,1.5-6.9,6.3-5.4,10.8c2,6,4.4,12,7,17.8c1.9,4.3,7,6.2,11.3,4.3
				s6.2-7,4.3-11.3C73,298.4,70.9,292.9,69.1,287.5z"/>
			<path class="st0" d="M294.2,106.7c0,13.5,5.4,26.4,15,35.9c3.3,3.3,8.7,3.3,12,0s3.3-8.7,0-12c-6.4-6.3-10-14.9-10-23.8
				s3.6-17.6,10-23.8c20.5-20.5,10.9-52.3-8.5-71.8c-3.3-3.3-8.7-3.3-12,0c-3.3,3.3-3.3,8.7,0,12c13.6,13.6,21.2,35,8.5,47.7
				C299.6,80.2,294.2,93.2,294.2,106.7z"/>
			<path class="st0" d="M200.3,149.3c0,13.5,5.4,26.4,15,35.9c3.3,3.3,8.7,3.3,12,0c3.3-3.3,3.3-8.7,0-12c-6.4-6.3-10-14.9-10-23.8
				c0-9,3.6-17.6,10-23.8c20.5-20.5,10.9-52.3-8.5-71.8c-3.3-3.3-8.7-3.3-12,0s-3.3,8.7,0,12c13.6,13.6,21.2,35,8.5,47.7
				C205.7,122.9,200.3,135.8,200.3,149.3z"/>
			<path class="st0" d="M110.9,98.1c0,13.5,5.4,26.4,15,35.9c2.2,2.2,5.3,3,8.3,2.3s5.3-3.1,6.1-6.1c0.8-3-0.1-6.1-2.3-8.3
				c-6.4-6.3-10-14.9-10-23.8s3.6-17.6,10-23.8c20.5-20.5,10.9-52.3-8.5-71.8c-3.3-3.3-8.7-3.3-12,0c-3.3,3.3-3.3,8.7,0,12
				c13.6,13.6,21.2,35,8.5,47.7C116.3,71.7,110.9,84.6,110.9,98.1z"/>
			<path class="st0" d="M410.8,210.9c1.7-36.5,5.7-85.5,15.3-109.5c11.8-29.5,47.5-50.9,62.3-58.7c10.7-5.7,15-18.9,9.8-29.8
				C492.8,2,479.9-2.9,468.8,1.8c-33.5,13.7-62.4,36.6-83.3,66.1c-21.8,32.7-30.2,95.1-33.5,139.1c-30.6-1.4-62.7-2.2-95.9-2.2
				c-56.7-0.4-113.4,2.2-169.8,7.5C14.5,220,8.5,229.7,8.5,238.9c0,0.2,0,0.4,0,0.6l0,0l0,0.4c0,0.3,0,0.6,0.1,0.9
				c0.1,2,0.4,5.9,0.7,8.7c5.5,62.8,36,120.7,84.5,160.8v50.5c0,33.6,81.6,51.2,162.1,51.2s162.1-17.6,162.1-51.2v-45.9
				c51.7-40.5,82.8-101.8,85.2-167.4c0-0.7,0.1-4.5,0.1-6.8c0-0.6,0-1.2,0-1.8C503.5,231.5,503.4,219.1,410.8,210.9z M480.1,238.9
				c-23,6-46.6,9.7-70.4,11c0.1-4.9,0.2-12.6,0.5-22C433.7,229.3,457.2,232.9,480.1,238.9z M368.5,216.3L368.5,216.3L368.5,216.3
				c2.7-42.4,10.2-107.6,31.2-139c19.1-26.7,45.3-47.5,75.8-59.9c2.8-1.2,5.9,0,7.2,2.7s0.3,5.9-2.3,7.4
				c-20.4,10.8-56.7,34-70.1,67.4c-15.7,39.2-17.5,133.9-17.6,156.3c-8.2,0.6-16.7,1.2-25.6,1.7C367,247.3,367.3,233.8,368.5,216.3z
				 M256,221.9c32.8,0,64.6,0.8,94.8,2.2c-0.8,14.5-0.9,25.3-1,29.8c-30.6,1.4-62,2.2-93.9,2.2c-119.9,0-200.5-9.1-224.7-17.1
				C55.5,230.9,136.1,221.9,256,221.9z M401.1,460.8c0,11.6-51.2,34.1-145.1,34.1s-145.1-22.5-145.1-34.1v-37.3
				c42.5,29.9,93.1,45.9,145.1,45.9c51.4,0.5,101.9-14.1,145.1-42.1V460.8z M405,403.3c-0.6,0.4-1.2,0.8-1.7,1.3
				c-42.6,31.5-94.4,48.3-147.4,47.6c-116.9,0-216-86-228.9-197c19.3,5.3,39.1,8.7,59.1,10.3c56.5,5.4,113.1,7.9,169.8,7.5
				c35,0,69.7-0.8,103.1-2.5c15.2-0.8,29.7-1.7,42.9-2.8c28.3-1.3,56.3-5.6,83.7-12.7C481.3,313.8,451.9,367.7,405,403.3z"/>
		</g>
	</g>
</g>
</svg>
