<?xml version="1.0" encoding="utf-8"?>
<!-- Generator: Adobe Illustrator 19.1.0, SVG Export Plug-In . SVG Version: 6.00 Build 0)  -->
<svg version="1.1" id="Layer_1" xmlns="http://www.w3.org/2000/svg" xmlns:xlink="http://www.w3.org/1999/xlink" x="0px" y="0px"
	 viewBox="-225 406.8 143.1 29.1" style="enable-background:new -225 406.8 143.1 29.1;" xml:space="preserve">
<style type="text/css">
	.st0{fill:#333333;}
</style>
<g>
	<path class="st0" d="M-204.5,418.8c-0.4,0-0.9,0.1-1.4,0.4s-1,0.6-1.5,1s-1,0.8-1.4,1.2c-0.4,0.5-0.7,0.9-1,1.2
		c0.1-0.5,0.2-1.1,0.5-1.8c0.3-0.7,0.5-1.4,0.8-2.1s0.6-1.4,0.9-2.1c0.3-0.7,0.6-1.3,0.9-1.8c0.6,0.1,1.2,0.3,1.7,0.3s1,0.1,1.5,0.1
		s0.9,0.1,1.3,0.1c0.4,0,0.7,0,1,0c0.4,0,0.8-0.1,1.2-0.2c0.4-0.1,0.8-0.3,1-0.2c0.3-0.3,0.6-0.6,0.8-0.9c0.2-0.4,0.3-0.8,0.3-1.3
		c0-0.8-0.2-1.4-0.7-1.8c-0.4-0.5-1-0.8-1.7-1c-0.8-0.2-1.5-0.3-2.4-0.4c-0.8-0.1-1.7-0.1-2.5-0.1c-0.6,0-1.3,0-2,0s-1.5,0-2.3,0.1
		c-0.8,0-1.6,0.1-2.4,0.2c-0.8,0.1-1.6,0.2-2.4,0.4c-0.8,0.2-1.5,0.4-2.2,0.7c-0.7,0.3-1.3,0.6-1.8,1c-0.9,0.7-1.7,1.7-2.2,2.9
		c-0.5,1.1-0.8,2.3-0.7,3.7c0,1,0.2,2,0.6,2.9c0.3,1,0.9,1.8,1.7,2.5c0.1,0.1,0.3,0.2,0.5,0.2c0.1,0,0.3,0,0.4-0.1
		c0.1-0.1,0.2-0.2,0.2-0.4c0-0.1,0-0.2,0-0.2l-0.1-0.1l-0.1-0.1c-0.6-0.7-1-1.3-1.3-1.9s-0.4-1.2-0.4-1.7c0-0.8,0.2-1.5,0.7-2.1
		c0.5-0.6,1.2-1.1,2.1-1.7c0.8-0.5,1.8-0.8,2.8-1s2.1-0.3,3.2-0.3c0.6,0,1.2,0.1,1.9,0.1c-0.8,0.3-1.7,0.8-2.4,1.4
		c-0.8,0.7-1.5,1.5-2.1,2.6c-0.5,0.8-0.9,1.7-1.2,2.7c-0.4,1-0.6,2-0.9,3.1c-0.3,1.1-0.6,2.1-0.8,3.1c-0.3,1-0.6,1.9-0.9,2.7
		c-0.4,0.8-0.8,1.4-1.3,1.9s-1.2,0.7-1.9,0.7c0,0-0.1,0-0.2,0c-0.1,0-0.1,0-0.2,0c0.3-0.5,0.5-0.9,0.6-1.4c0.1-0.5,0.2-0.9,0.2-1.3
		c0-0.6-0.1-1.2-0.4-1.6c-0.3-0.4-0.7-0.6-1.2-0.6s-0.9,0.2-1.4,0.4c-0.4,0.3-0.7,0.6-1,1.1c-0.3,0.5-0.5,1-0.7,1.5
		c-0.1,0.6-0.2,1,0.1,1.6c0,0.6,0.1,1.2,0.4,1.6s0.7,0.6,1.2,0.6c0.4,0,0.7-0.1,1-0.3c0.3-0.2,0.5-0.4,0.8-0.7
		c0.4,0.2,0.8,0.4,1.2,0.5c0.4,0.1,0.8,0.2,1.2,0.2c0.6,0,1.2-0.2,1.8-0.4c0.6-0.2,1.2-0.5,1.7-0.9c0.5-0.4,1-0.8,1.5-1.3
		s0.9-1,1.3-1.5c0.4-0.5,0.8-1,1.1-1.5c0.4-0.4,0.6-0.9,0.8-1.2c0.3-0.3,0.5-0.8,0.7-1.2c0.2-0.4,0.5-0.8,0.7-1.3s0.5-0.9,0.8-1.4
		s0.6-0.9,1-1.3c-0.1,0.4-0.1,0.7-0.1,1.1c0,0.6,0.1,1.2,0.4,1.6c0.3,0.4,0.7,0.6,1.2,0.6c0.4,0,0.9-0.1,1.2-0.7
		c0.4-0.3,0.7-0.7,1-1.1c0.3-0.4,0.5-0.9,0.7-1.4c0.1-0.5,0.2-1,0.2-1.4c0-0.6-0.1-1.2-0.4-1.6C-203.6,419-204,418.8-204.5,418.8z"
		/>
	<path class="st0" d="M-161.4,423c-0.1,0-0.2,0-0.3,0l-1.7,2.5c-0.4,0.5-0.7,1-1.1,1.3c-0.4,0.3-0.7,0.5-0.9,0.5
		c-0.3,0-0.4-0.2-0.4-0.6c0-0.2,0-0.4,0.1-0.7c0.1-0.3,0.2-0.6,0.3-1c0.3-0.8,0.5-1.5,0.8-2.2c0.3-0.8,0.6-1.6,0.8-2.4
		c0.3-0.8,0.5-1.5,0.7-2.2c0.2-0.7,0.4-1.3,0.6-1.9c0.2-0.6,0.3-1,0.4-1.4c0.1-0.4,0.1-0.7,0.1-0.8c0-0.6-0.2-1-1-1.4
		c-0.4-0.3-0.8-0.4-1.4-0.4c-0.3,0-0.6,0-1,0.1c-0.4,0.1-0.7,0.2-1,0.4c-0.3,0.2-0.6,0.4-0.8,0.6s-0.4,0.4-0.5,0.7
		c-0.2,0.5-0.4,1-0.6,1.6s-0.4,1.3-0.6,1.9c-0.2,0.7-0.4,1.3-0.6,2c-0.2,0.7-0.4,1.3-0.6,2c-0.1,0.4-0.3,0.8-0.5,1.3
		c-0.2,0.5-0.5,1-0.8,1.5c-0.3,0.5-0.6,0.9-0.9,1.3s-0.6,0.6-0.8,0.6c-0.2,0-0.3-0.1-0.4-0.3s-0.1-0.4-0.1-0.6c0-0.3,0-0.6,0.1-1
		c0.1-0.4,0.2-0.8,0.3-1.2c0.2-0.4,0.3-0.8,0.5-1.2c0.2-0.4,0.4-0.8,0.7-1.1c0.2-0.3,0.5-0.6,0.9-0.8c0.4-0.2,0.8-0.3,1.2-0.3
		c0.3-0.2,0.4-0.4,0.4-0.6c0-0.1-0.1-0.3-0.4-0.4c-0.3-0.1-0.6-0.2-1.1-0.2c-1.3,0-2.4,0.3-3.4,0.8s-1.8,1.1-2.5,1.9
		c-0.5,0.6-0.9,1.3-1.3,2c-0.2,0.1-0.4,0.2-0.7,0.2c-0.5,0.2-1,0.3-1.5,0.3c0.2-0.9,0.3-1.8,0.3-2.8c0-0.6,0-1.1-0.2-1.6
		c-0.2-0.4-0.4-0.9-0.6-1.1c-0.2-0.2-0.5-0.5-0.8-0.6s-0.6-0.2-0.9-0.2c-0.3,0-0.7,0.1-1,0.3c-0.3,0.2-0.6,0.5-0.8,0.8
		c-0.9,0.1-1.7,0.4-2.5,0.9c-0.8,0.4-1.5,1-2.1,1.7c-0.6,0.7-1,1.4-1.4,2.2c-0.1,0.1-0.2,0.1-0.3,0.2c-0.5,0.2-1,0.3-1.5,0.3
		c0.2-0.9,0.3-1.8,0.3-2.8c0-0.6,0-1.1-0.2-1.6c-0.2-0.4-0.4-0.9-0.6-1.1s-0.5-0.5-0.8-0.6c-0.3-0.1-0.6-0.2-0.9-0.2
		c-0.3,0-0.7,0.1-1,0.3c-0.3,0.2-0.6,0.5-0.8,0.8c-0.9,0.1-1.7,0.4-2.5,0.9c-0.8,0.4-1.5,1-2.1,1.7c-0.6,0.7-1,1.4-1.4,2.3
		c-0.3,0.8-0.5,1.7-0.5,2.6c0,0.5,0,1,0.2,1.5s0.5,0.9,0.8,1.2s0.8,0.6,1.3,0.8s1.2,0.3,1.9,0.3c0.6,0,1.2-0.1,1.8-0.3
		c0.6-0.2,1.1-0.5,1.7-0.9c0.5-0.4,1-1,1.5-1.6c0.4-0.6,0.8-1.4,1.1-2.3c0.2,0,0.5-0.1,0.8-0.1c0.3,0,0.6,0,0.9-0.1
		c-0.1,0.5-0.2,0.9-0.2,1.4c0,0.5,0,1,0.2,1.5s0.5,0.9,0.8,1.2c0.3,0.3,0.8,0.6,1.3,0.8c0.5,0.2,1.2,0.3,1.9,0.3
		c0.6,0,1.2-0.1,1.8-0.3c0.6-0.2,1.1-0.5,1.7-0.9c0.5-0.4,1-1,1.5-1.6c0.4-0.6,0.8-1.4,1.1-2.3c0.3,0,0.6,0,0.9,0c0.4,0,0.7,0,1-0.2
		c-0.2,0.7-0.3,1.3-0.3,1.9c0,0.5,0.1,0.9,0.2,1.3c0.1,0.4,0.3,0.7,0.5,1c0.2,0.3,0.5,0.5,0.9,0.7c0.4,0.2,0.8,0.3,1.3,0.3
		c0.6,0,1.1-0.2,1.7-0.4c0.5-0.3,1-0.7,1.5-1.1c0.5-0.5,0.9-1,1.3-1.5c0.4-0.5,0.8-1.1,1.1-1.6c-0.1,0.3-0.1,0.6-0.1,0.9
		c0,0.4,0,0.9,0.1,1.3c0.1,0.5,0.3,0.9,0.5,1.2c0.2,0.4,0.5,0.7,0.9,0.9c0.3,0.2,0.8,0.3,1.3,0.3c0.6,0,0.9-0.1,1.4-0.3
		s0.9-0.4,1.4-0.8s0.8-0.7,1.2-1.2s0.7-0.9,1-1.4l1.6-2.6c0.1-0.1,0.1-0.1,0.1-0.2c0-0.1,0-0.1-0.1-0.2
		C-161.2,423.1-161.3,423-161.4,423z M-194.6,426.5c-0.4,0.4-0.9,0.6-1.3,0.6c-0.4,0-0.6-0.1-0.9-0.3c-0.2-0.2-0.4-0.4-0.6-0.8
		c-0.2-0.4-0.3-0.8-0.4-1.2c-0.1-0.5-0.1-0.9-0.1-1.4c0-0.6,0.1-1.3,0.3-1.9c0.2-0.6,0.5-1.1,0.9-1.5c0,0.5,0.1,1,0.2,1.3
		c0.1,0.5,0.3,1,0.6,1.4c0.3,0.5,0.6,0.9,1,1.2c0.3,0.3,0.8,0.6,1.3,0.7C-193.8,425.5-194.2,426.1-194.6,426.5z M-182.7,426.5
		c-0.4,0.4-0.9,0.6-1.3,0.6s-0.6-0.1-0.9-0.3c-0.2-0.2-0.4-0.4-0.6-0.8c-0.2-0.4-0.3-0.8-0.4-1.2c-0.1-0.5-0.1-0.9-0.1-1.4
		c0-0.7,0.1-1.3,0.3-1.9c0.2-0.6,0.5-1.1,0.9-1.5c0,0.5,0.1,1,0.2,1.3c0.1,0.5,0.3,1,0.6,1.4c0.3,0.5,0.6,0.9,1,1.2
		c0.3,0.3,0.8,0.6,1.3,0.7C-181.9,425.5-182.3,426.1-182.7,426.5z"/>
	<path class="st0" d="M-134.1,433.5c-0.4,0-0.7-0.1-1-0.2c-0.3-0.1-0.5-0.3-0.7-0.6s-0.3-0.6-0.4-0.9c-0.1-0.3-0.1-0.7-0.1-1.1
		c0-0.7,0-1.6-0.2-2.5c0-1,0.1-2,0.2-3.1c0.1-1.1,0.2-2.2,0.4-3.3c0.2-1.1,0.4-2.2,0.6-3.3c1-0.3,1.9-0.7,2.7-1.2
		c0.9-0.5,1.6-1.1,2.2-1.8c0.7-0.7,1.1-1.5,1.5-2.4c0.3-0.9,0.5-1.9,0.5-3.1s-0.3-2-0.8-2.5s-1.2-0.7-2-0.7c-0.8,0-1.7,0.4-2.5,1
		c-0.8,0.7-1.6,1.5-2.4,2.6c-0.8,1.1-1.5,2.3-2.2,3.7c-0.7,1.4-1.3,2.9-1.8,4.4c-0.3,0-0.7,0.1-1.1,0.1c-0.3,0-0.7,0.1-1.1,0.1
		c0.3-0.7,0.5-1.5,0.6-2.2c0.1-0.8,0.2-1.4,0.2-2.1s0-1.3-0.2-1.9c-0.2-0.6-0.5-1.1-0.8-1.5c-0.3-0.4-0.8-0.8-1.3-1
		c-0.6-0.3-1.2-0.4-2-0.4c-0.4,0-0.8,0.1-1.2,0.2c-0.4,0.1-0.8,0.4-1.1,0.5c-0.3,0.1-0.6,0.2-0.9,0.4c-0.3,0.1-0.5,0.2-0.7,0.5
		c0-0.5-0.2-1-0.5-1.3c-0.3-0.3-0.7-0.5-1.1-0.5c-0.5,0-0.9,0.1-1.3,0.4c-0.4,0.3-0.7,0.7-1,1.1c-0.3,0.5-0.5,1-0.7,1.5
		c-0.1,0.5-0.2,1-0.2,1.4c0,0.6,0.1,1.2,0.4,1.6c0.3,0.4,0.7,0.6,1.2,0.6c0.4,0,0.8-0.1,1.1-0.3s0.6-0.5,0.9-0.8
		c0.3-0.3,0.5-0.7,0.7-1.1c0.2-0.4,0.3-0.8,0.5-1.2c0.2-0.5,0.7-0.8,1.3-0.8c0.4,0,0.7,0,0.9,0.5s0.3,1,0.3,1.8
		c0,0.7-0.1,1.4-0.2,2.2c-0.1,0.8-0.3,1.6-0.5,2.5c-1.2,0.1-2.3,0.4-3.3,0.7c-1.1,0.4-2,0.8-2.8,1.4c-0.8,0.6-1.4,1.3-1.9,2.2
		c-0.5,0.8-0.7,1.8-0.7,3c0,0.6,0,1.1,0.2,1.6c0.2,0.5,0.4,0.9,0.7,1.3c0.3,0.4,0.7,0.7,1.2,0.9c0.4,0.2,1,0.3,1.6,0.3
		c1,0,2-0.3,3-0.9c1-0.6,2-1.4,2.9-2.4c0.9-1,1.7-2.1,2.5-3.4s1.4-2.6,1.9-3.9c0.3-0.1,0.7-0.1,1.1-0.1c0.4,0,0.8-0.1,1.2-0.1
		c-0.5,1.7-0.9,3.3-1.2,4.9c-0.3,1.6-0.4,3.1-0.4,4.5c0,1.3,0.1,2.4,0.4,3.3c0.3,0.9,0.6,1.7,1.1,2.2c0.4,0.6,0.9,1,1.5,1.2
		c0.6,0.3,1.1,0.4,1.7,0.4c0.4,0,0.9-0.1,1.3-0.2c0.4-0.1,0.8-0.3,1.1-0.5c0.4-0.3,0.6-0.5,0.8-0.8s0.3-0.6,0.3-0.9
		c-0.1,0-0.1,0-0.2,0C-134,433.5-134,433.5-134.1,433.5z M-134,414.4c0.3-1,0.6-1.8,1-2.5s0.8-1.3,1.3-1.7s1-0.6,1.5-0.6
		c0.2,0,0.4,0.1,0.5,0.3c0.1,0.2,0.2,0.6,0.2,1.1c0,0.8-0.1,1.6-0.4,2.3c-0.3,0.7-0.6,1.3-1.1,1.8c-0.4,0.5-1,1-1.7,1.4
		c-0.6,0.4-1.3,0.7-2.1,1C-134.6,416.4-134.3,415.4-134,414.4z M-149.5,423.2c-0.4,1-0.9,2-1.4,2.8s-1,1.5-1.6,2
		c-0.5,0.5-1.1,0.8-1.6,0.8c-0.3,0-0.6-0.1-0.7-0.4c-0.1-0.3-0.2-0.6-0.2-1.1c0-1,0.2-2,0.5-3c0.3-0.8,0.8-1.5,1.4-2.1
		c0.6-0.6,1.3-1,2.1-1.4c0.8-0.3,1.7-0.6,2.7-0.8C-148.7,421.1-149.1,422.2-149.5,423.2z"/>
	<path class="st0" d="M-82,423c0,0-0.1-0.1-0.2-0.1c-0.1,0-0.2,0-0.3,0l-1.7,2.5c-0.2,0.3-0.4,0.6-0.7,0.9c-0.3,0.4-0.6,0.7-1,1
		c-0.4,0.3-0.8,0.6-1.2,0.8c-0.4,0.2-0.8,0.3-1.2,0.3c-0.4,0-0.7-0.1-1-0.2c-0.2-0.2-0.4-0.3-0.6-0.6c-0.2-0.3-0.3-0.6-0.4-0.9
		c-0.1-0.4-0.1-0.7-0.1-1.1h0.4c0.7,0,1.4-0.1,2.1-0.4s1.3-0.7,1.8-1.1c0.5-0.4,0.9-0.9,1.2-1.4s0.5-1,0.5-1.5
		c0-0.4-0.1-0.8-0.3-1.1c-0.2-0.3-0.4-0.6-0.7-0.8c-0.3-0.2-0.7-0.4-1.1-0.5c-0.4-0.1-0.8-0.2-1.3-0.2c-0.9,0-1.7,0.2-2.6,0.5
		c-0.9,0.3-1.7,0.8-2.5,1.4c-0.8,0.6-1.4,1.4-1.9,2.3c-0.3,0.5-0.5,1.1-0.6,1.7l-0.7,1.1c-0.5,0.7-0.8,1.2-1.2,1.5
		c-0.4,0.3-0.7,0.5-0.9,0.5c0.3-0.6,0.6-1.2,0.7-1.8c0.1-0.6,0.2-1.2,0.2-1.8c0-0.5,0-0.9-0.1-1.4c-0.1-0.4-0.1-0.9-0.2-1.3
		c-0.1-0.4-0.1-0.8-0.2-1.2c-0.1-0.4-0.1-0.7-0.1-1c0-0.3,0-0.6,0.1-0.8c0.1-0.2,0.2-0.4,0.4-0.5c-0.2-0.2-0.5-0.4-0.9-0.5
		c-0.3-0.1-0.8-0.2-1.2-0.2c-0.5,0-0.9,0.1-1.3,0.2c-0.5,0.2-0.9,0.3-1.2,0.6c-0.3,0.3-0.6,0.6-0.8,1c-0.2,0.4-0.3,0.9-0.3,1.5
		c0,0.5,0.1,1,0.3,1.6s0.4,1.1,0.6,1.7c0.2,0.5,0.4,1.1,0.6,1.7c0.2,0.6,0.3,1.1,0.3,1.7c0,0.3-0.1,0.6-0.1,0.8s-0.1,0.5-0.2,0.7
		c-0.1,0.2-0.2,0.4-0.4,0.5c-0.1,0.1-0.3,0.2-0.6,0.2c-0.5,0-1-0.1-1.4-0.3s-0.8-0.5-1.1-0.9c0.4,0,0.8-0.1,1-0.6
		c0.3-0.2,0.6-0.5,0.8-0.9c0.2-0.4,0.4-0.8,0.5-1.2c0.1-0.4,0.2-0.8,0.2-1.2c0-0.7-0.1-1.2-0.4-1.5s-0.6-0.5-1-0.5
		c-0.3,0-0.6,0.1-0.9,0.3c-0.3,0.2-0.6,0.5-0.8,0.8s-0.4,0.7-0.6,1.2c-0.2,0.5-0.3,1-0.3,1.6v0c-0.2,0.2-0.3,0.3-0.5,0.5
		c-0.2,0.2-0.4,0.3-0.5,0.4c-0.1,0.1-0.2,0.1-0.3,0.1c-0.1,0-0.2,0-0.3-0.2c-0.1-0.1-0.1-0.3-0.1-0.6c0-0.3,0.1-0.8,0.2-1.3
		c0.1-0.5,0.2-1.1,0.4-1.6c0.1-0.6,0.3-1.1,0.4-1.6s0.2-0.9,0.2-1.3c0-0.6-0.2-1.1-0.6-1.4c-0.4-0.3-0.8-0.4-1.4-0.4
		c-0.8,0-1.4,0.2-2,0.6c-0.6,0.4-1,1-1.4,1.6c-0.4,0.6-0.7,1.4-0.9,2.1c-0.2,0.7-0.3,1.4-0.4,2.1c-0.3,0.5-0.5,0.8-0.7,1.1
		s-0.3,0.5-0.5,0.6c-0.2,0.2-0.3,0.3-0.4,0.3c-0.1,0.1-0.2,0.1-0.2,0.1c-0.1,0-0.2,0-0.3-0.2c-0.1-0.1-0.1-0.3-0.1-0.6
		c0-0.4,0.4-1,0.5-1.5c0.1-0.5,0.2-1.1,0.4-1.6c0.1-0.6,0.3-1.1,0.4-1.6c0.1-0.5,0.2-0.9,0.2-1.3c0-0.6-0.2-1.1-0.6-1.4
		c-0.4-0.3-0.8-0.4-1.4-0.4c-0.6,0-1.1,0.2-1.6,0.4c-0.6,0.3-1,0.6-1.3,1.1c-0.3,0.4-0.5,0.8-0.8,1.3c-0.3,0.4-0.5,0.9-0.7,1.4
		c-0.1,0.2-0.2,0.5-0.3,0.7c0,0-0.1,0-0.1,0.1c-0.5,0.2-1,0.3-1.5,0.3c0.2-0.9,0.3-1.8,0.3-2.8c0-0.6,0-1.1-0.2-1.6
		c-0.2-0.4-0.4-0.9-0.6-1.1s-0.5-0.5-0.8-0.6c-0.3-0.1-0.6-0.2-0.9-0.2s-0.7,0.1-1,0.3s-0.6,0.5-0.8,0.8c-0.9,0.1-1.7,0.4-2.5,0.9
		c-0.8,0.4-1.5,1-2.1,1.7c-0.6,0.7-1.1,1.5-1.4,2.3c-0.3,0.8-0.5,1.7-0.5,2.6c0,0.5,0,1,0.2,1.5c0.2,0.5,0.5,0.9,0.8,1.2
		c0.3,0.3,0.8,0.6,1.3,0.8s1.2,0.3,1.9,0.3c0.6,0,1.2-0.1,1.8-0.3c0.6-0.2,1.1-0.5,1.7-0.9c0.5-0.4,1-1,1.5-1.6
		c0.4-0.6,0.8-1.4,1.1-2.3c0.2,0,0.5-0.1,0.8-0.1c0.3,0,0.5-0.1,0.7-0.1c-0.1,0.4-0.1,0.7-0.1,1.1c0,0.6,0.1,1.2,0.3,1.7
		s0.5,0.9,0.8,1.2s0.7,0.6,1.1,0.7c0.4,0.1,0.7,0.2,1.1,0.2c0.9,0,1.8-0.3,2.5-0.8s1.4-1.3,2.1-2.3c0.1,0.5,0.2,1,0.4,1.4
		c0.2,0.4,0.4,0.7,0.7,1c0.3,0.2,0.6,0.4,0.9,0.5c0.3,0.1,0.7,0.2,1,0.2c0.6,0,1.2-0.1,1.7-0.3c0.6-0.2,1.1-0.5,1.5-0.8
		c0.4-0.4,0.7-0.7,1.1-1.1c0,0.1,0.1,0.2,0.1,0.4c0.2,0.4,0.4,0.8,0.7,1.1c0.2,0.3,0.6,0.5,0.9,0.7c0.4,0.2,0.7,0.4,1,0.4
		s0.5,0.1,0.8,0.1c0.3,0,0.4,0,0.5,0c0.7,0,1.4-0.1,2.1-0.3c0.7-0.2,1.4-0.5,2-0.9c0.6-0.4,1.1-0.8,1.6-1.3s0.9-0.9,1.2-1.4l0,0
		c0,0.5,0.1,1,0.3,1.4c0.2,0.5,0.4,0.9,0.8,1.3c0.4,0.4,0.8,0.7,1.4,0.9c0.6,0.2,1.3,0.3,2.1,0.3c0.7,0,1.4-0.1,2.1-0.3
		c0.8-0.2,1.5-0.5,2.1-0.9c0.7-0.3,1.3-0.8,1.8-1.3s0.9-1,1.3-1.6l1.6-2.6c0.1-0.1,0.1-0.1,0.1-0.2S-81.9,423.1-82,423z M-90,423
		c0.2-0.6,0.4-1.1,0.6-1.5c0.2-0.4,0.5-0.7,0.7-1s0.4-0.4,0.6-0.4c0.1,0,0.3,0.2,0.4,0.4c0.1,0.3,0.2,0.7,0.2,1.2
		c0,0.4,0.1,0.8,0,1.1c-0.1,0.3-0.3,0.7-0.5,1c-0.2,0.3-0.5,0.6-0.9,0.8c-0.4,0.2-0.8,0.3-1.4,0.3C-90.3,424.2-90.2,423.6-90,423z
		 M-125.2,426.5c-0.4,0.4-0.9,0.6-1.3,0.6s-0.6-0.1-0.9-0.3c-0.2-0.2-0.4-0.5-0.6-0.8c-0.2-0.4-0.3-0.8-0.4-1.2
		c-0.1-0.5-0.1-0.9-0.1-1.4c0-0.6,0.1-1.3,0.3-1.9c0.2-0.6,0.5-1.1,0.9-1.5c0,0.5,0,1,0.2,1.3c0.1,0.5,0.3,1,0.6,1.4
		c0.3,0.5,0.7,0.9,1,1.2s0.8,0.6,1.3,0.7C-124.4,425.5-124.8,426.1-125.2,426.5z"/>
</g>
</svg>
