<?xml version="1.0" encoding="utf-8"?>
<!-- Generator: Adobe Illustrator 23.0.1, SVG Export Plug-In . SVG Version: 6.00 Build 0)  -->
<svg version="1.1" id="Capa_1" xmlns="http://www.w3.org/2000/svg" xmlns:xlink="http://www.w3.org/1999/xlink" x="0px" y="0px"
	 viewBox="0 0 512 512" style="enable-background:new 0 0 512 512;" xml:space="preserve">
<style type="text/css">
	.st0{fill:#FFFFFF;}
</style>
<g>
	<g>
		<path class="st0" d="M232.1,93.9h248.7c6.8,0.1,13.2-2.6,18-7.5c5.4-5.3,8.2-12.8,7.5-20.4c-1.5-13.4-12.9-23.6-26.5-23.4
			L232,43.1c-3.5-10.5-13.3-17.5-24.3-17.5h-71.2l-6-19.6c-1.4-4.5-6.2-7-10.7-5.7s-7,6.2-5.7,10.7l4.5,14.6h-16.3L96.4,6
			C95,1.5,90.3-1,85.8,0.4s-7,6.2-5.7,10.7l4.5,14.6H71.2c-4.7,0-8.5,3.8-8.5,8.5s3.8,8.5,8.5,8.5h18.6l5.3,17.1H71.2
			c-4.7,0-8.5,3.8-8.5,8.5s3.8,8.5,8.5,8.5h29.1l5.3,17.1H71.2c-4.7,0-8.5,3.8-8.5,8.5s3.8,8.5,8.5,8.5h39.6l3.4,11
			c0.9,2.9,3.3,5.1,6.3,5.8s6.1-0.3,8.2-2.5c2.1-2.2,2.8-5.4,1.9-8.3l-1.9-6h16.4c3.8,11.9,8.8,23.3,15,34
			c7.3,12.4,27,42.1,53.4,50.9c8.6,2.6,15.3,9.3,18.1,17.8c-2.3-0.1-4.5-0.3-6.8-0.3c-34.5-0.7-67.8,12.4-92.5,36.4
			c-60.5,11.6-85.7,64.7-92.7,83.1h-8.3c-9,0-17.3,4.7-21.9,12.4c-4.6,7.7-4.9,17.2-0.7,25.2l45.8,87C72,491,106.9,512.1,144.9,512
			h210.9c38,0.1,72.9-21,90.6-54.7l45.8-87c4.2-7.9,3.9-17.5-0.7-25.1c-4.6-7.7-12.9-12.4-21.9-12.4c-9.1-22.6-46.2-102.4-119-102.4
			c-16.9-0.1-33.6,3.6-48.9,11c-15.2-12.3-32.9-21-52-25.3c-2.6-17-14.5-31.1-30.9-36.4c-21.5-7.2-39.2-35-44.1-43.3
			c-4.6-8.1-8.5-16.6-11.5-25.4h44.4C218.6,110.9,228.3,104.1,232.1,93.9z M156.8,264.5c62.4,0,94.1,46.1,105.8,68.3h-19.7
			c-17.6-31.1-50.4-50.6-86.1-51.2c-34.5-0.1-65.8,19.9-80.2,51.2H57.8C67.1,311.1,94.3,264.5,156.8,264.5z M221.2,264.7
			c1.2,0,2.4-0.1,3.6-0.1c42,0,71.1,41.2,85.6,68.3h-28.8C268.5,304.7,247.5,281.1,221.2,264.7z M222.2,332.8h-126
			c12.6-21.5,35.8-34.6,60.7-34.1C182.8,298.9,207.1,311.6,222.2,332.8z M476.9,354c1.6,2.6,1.7,5.7,0.2,8.4l-45.8,87
			c-14.7,28.1-43.8,45.6-75.5,45.6H144.9c-31.7,0-60.8-17.5-75.5-45.6l-45.8-87c-1.4-2.6-1.3-5.8,0.2-8.4s4.3-4.1,7.3-4.1h395.4h0.1
			h0.1h42.8C472.6,349.8,475.4,351.4,476.9,354z M367.2,332.8c-7.4-17.7-16.6-34.6-27.5-50.3c3.7-0.6,7.3-0.9,11-0.9
			c28.7,0,50.4,30,62.1,51.2L367.2,332.8L367.2,332.8z M350.7,247.5c55.9,0,88.8,59.8,100.3,85.3h-18.9
			c-13.7-27.6-40.8-68.3-81.4-68.3c-7.6,0-15.1,1-22.4,3c-3.9-4.7-8.1-9.3-12.6-13.8C326.8,249.5,338.7,247.4,350.7,247.5z
			 M348.5,332.8h-18.9c-14.4-29.2-49.3-85.3-104.8-85.3c-11-0.1-22,1.6-32.5,4.9c-9.8-2.8-20-4.4-30.2-4.7
			c18.8-11.7,40.5-17.7,62.6-17.2C294.8,230.4,335.3,304,348.5,332.8z M113,59.7l-5.3-17.1H124l5.3,17.1
			C129.3,59.7,113,59.7,113,59.7z M123.5,93.9l-5.3-17.1h16.3l5.3,17.1H123.5z M165.1,93.9h-7.5l-5.3-17.1H165
			c2.3,0,4.5,0.9,6.1,2.6c1.6,1.6,2.5,3.7,2.4,5.9C173.6,90,169.8,93.9,165.1,93.9z M165.1,59.7h-18l-5.3-17.1H165
			c2.3,0,4.5,0.9,6.1,2.6c1.6,1.6,2.5,3.7,2.4,5.9C173.6,55.9,169.8,59.7,165.1,59.7z M184.1,68.3c4.2-4.7,6.5-10.8,6.5-17.1
			c0-2.9-0.5-5.8-1.4-8.5h18.5c3.7,0,6.9,2.4,8.1,5.9c2.4,6.8,9,11.3,16.2,11.2h247.8c4.7-0.2,8.7,3.1,9.5,7.7l0,0
			c0.2,2.6-0.7,5.1-2.6,6.9c-1.6,1.6-3.7,2.5-5.9,2.5H232.1c-7.3-0.1-13.8,4.4-16.2,11.2c-1.2,3.5-4.4,5.9-8.1,5.9h-18.5
			c1-2.7,1.5-5.6,1.5-8.5C190.7,79,188.4,72.9,184.1,68.3z"/>
	</g>
</g>
</svg>
