<?xml version="1.0" encoding="utf-8"?>
<!-- Generator: Adobe Illustrator 23.0.1, SVG Export Plug-In . SVG Version: 6.00 Build 0)  -->
<svg version="1.1" id="Capa_1" xmlns="http://www.w3.org/2000/svg" xmlns:xlink="http://www.w3.org/1999/xlink" x="0px" y="0px"
	 viewBox="0 0 512 512" style="enable-background:new 0 0 512 512;" xml:space="preserve">
<style type="text/css">
	.st0{fill:#FFA500;}
</style>
<g>
	<g>
		<path class="st0" d="M504.1,242.7c-6.4-8.4-15.6-13.7-25.9-14.9l-34-58.9l-5.4-82.5c-0.6-9.4-6-17.5-14.5-21.6
			c-8.4-4.2-18.1-3.5-26,1.7l-62.5,41.8c-3.1-3.2-7.1-5.5-11.5-6.8c-7.2-2-14.9-0.8-21.2,3.3c-3.4-4.3-8.2-7.5-13.7-9L180.6,66.6
			c-9.1-2.4-18.5,0.1-25.1,6.7c-6.7,6.7-9.2,16.1-6.7,25.1l2.7,10.2l-49.3-32.8c-7.8-5.2-17.5-5.8-26-1.6
			c-8.4,4.2-13.8,12.3-14.4,21.7l-3.6,56.7l-0.6-0.2c-9.1-2.4-18.5,0.1-25.1,6.7c-6.7,6.7-9.2,16.1-6.7,25.1l11.6,43.3
			c-11.6,0.3-22.3,5.8-29.4,15.2c-7.4,9.8-9.7,22.1-6.4,33.9c13.7,48.5,50.6,90.7,104.2,119.4c1.1,14.3,7.4,27.5,17.9,37.5
			c11,10.5,25.5,16.3,40.7,16.3h183.4c15.2,0,29.6-5.8,40.7-16.3c10.5-10,16.8-23.2,17.9-37.5c53.5-28.6,90.5-70.8,104.2-119.2
			C513.9,265,511.5,252.6,504.1,242.7z M430,175.3l30.2,52.3H408c1.8-1.4,2.9-3.6,2.9-6c0-4.3-3.5-7.8-7.8-7.8s-7.8,3.5-7.8,7.8
			c0,2.4,1.1,4.6,2.9,6h-8.2l8.3-30.1c2.2-8.1,0.5-16.5-4.7-23.1c-2.5-3.1-5.6-5.6-9.1-7.3l11.2-19.4c1.9-3.3,5.3-5.3,9.1-5.3
			s7.2,2,9.1,5.3L430,175.3C430,175.3,430,175.3,430,175.3z M407,79.4c3.2-2.1,7.1-2.4,10.5-0.7c3.4,1.7,5.6,4.9,5.8,8.7l3.4,51.3
			c-4.8-7.4-12.9-11.8-21.8-11.8c-9.4,0-17.8,4.9-22.5,13l-14.5,25.2c-0.4,0.1-0.8,0.2-1.1,0.3l-20.3,5.3l-3-45.8
			c-0.1-0.9-0.2-1.8-0.3-2.7L407,79.4z M341.3,188C341.3,188,341.4,188,341.3,188l29.3-7.6c0.8-0.2,1.5-0.3,2.3-0.3
			c3.3-0.1,6.5,1.4,8.6,4c1.2,1.5,3.1,4.8,1.9,9.3l-9.5,34.2h-14.6c1.8-1.4,2.9-3.6,2.9-6c0-4.3-3.5-7.8-7.8-7.8s-7.8,3.5-7.8,7.8
			c0,2.4,1.1,4.6,2.9,6h-67.6c-0.1-4.3-1.3-8.5-3.5-12.4l-5.5-9.5L341.3,188z M304.4,122.6C304.5,122.6,304.5,122.5,304.4,122.6
			l7.1-4.8c2.6-1.7,5.7-2.2,8.6-1.4c3,0.8,5.5,2.9,6.8,5.7c0.5,1.2,0.9,2.4,0.9,3.8l3.2,48.7l-66.1,17.2l-17.8-30.9L304.4,122.6z
			 M266.6,227.6H132.9c0.1-1.4,0.5-3,1.4-4.6l56.3-97.5c1.9-3.3,5.3-5.3,9.1-5.3s7.2,2,9.1,5.3l56.3,97.5
			C266.1,224.6,266.5,226.1,266.6,227.6z M166.4,84.3c2.7-2.7,6.5-3.7,10.2-2.7l108.8,29.1c1.9,0.5,3.5,1.4,4.8,2.7l-50.7,33.9
			l-17.2-29.8c-4.7-8.2-13.1-13-22.5-13s-17.8,4.9-22.5,13l-3.4,5.9l-2.8-1.9l-7.3-27.2C162.7,90.8,163.7,87,166.4,84.3z M77.2,96.9
			c0.2-3.8,2.4-7.1,5.8-8.8c3.4-1.7,7.3-1.4,10.5,0.7L166,137l-22.3,38.6l-70.3-18.8L77.2,96.9z M43.4,170.2
			c2.7-2.7,6.5-3.7,10.2-2.7l9.7,2.6c0,0,0,0,0.1,0l72.5,19.4l-14.8,25.7c-2.2,3.9-3.4,8.1-3.5,12.4H53.3l-12.7-47.2
			C39.6,176.6,40.7,172.8,43.4,170.2z M495.6,272.7c-12.6,44.5-47,83.4-97.1,110.1H183.6c-4.3,0-7.8,3.5-7.8,7.8s3.5,7.8,7.8,7.8
			h206.8c-3.3,20.4-21.5,36.2-42.7,36.2H164.3c-21.2,0-39.4-15.8-42.7-36.2h31c4.3,0,7.8-3.5,7.8-7.8s-3.5-7.8-7.8-7.8h-39
			C63.4,356,29,317,16.4,272.5c-2-7.1-0.6-14.5,3.8-20.4c4.3-5.7,10.9-9,18-9h9c0,0,0,0,0,0c0,0,0,0,0,0h79.2c0,0,0.1,0,0.1,0h146.2
			c0,0,0,0,0,0c0,0,0,0,0,0h106.9c0,0,0,0,0,0c0,0,0,0,0,0h93.7c0,0,0,0,0,0s0,0,0,0h0.1c7.1,0,13.7,3.3,18,9
			C496.2,258,497.6,265.5,495.6,272.7z"/>
	</g>
</g>
<g>
	<g>
		<circle class="st0" cx="359.7" cy="147.6" r="7.8"/>
	</g>
</g>
<g>
	<g>
		<circle class="st0" cx="378.3" cy="118.1" r="7.8"/>
	</g>
</g>
<g>
	<g>
		<circle class="st0" cx="407.3" cy="103.6" r="7.8"/>
	</g>
</g>
<g>
	<g>
		<circle class="st0" cx="176.6" cy="96.4" r="7.8"/>
	</g>
</g>
<g>
	<g>
		<circle class="st0" cx="242.8" cy="121.2" r="7.8"/>
	</g>
</g>
<g>
	<g>
		<circle class="st0" cx="279" cy="176" r="7.8"/>
	</g>
</g>
<g>
	<g>
		<circle class="st0" cx="310.1" cy="165.7" r="7.8"/>
	</g>
</g>
<g>
	<g>
		<circle class="st0" cx="287.3" cy="152.2" r="7.8"/>
	</g>
</g>
<g>
	<g>
		<circle class="st0" cx="125" cy="157.4" r="7.8"/>
	</g>
</g>
<g>
	<g>
		<circle class="st0" cx="93.9" cy="146.1" r="7.8"/>
	</g>
</g>
<g>
	<g>
		<circle class="st0" cx="93.8" cy="118.2" r="7.8"/>
	</g>
</g>
<g>
	<g>
		<circle class="st0" cx="124.9" cy="133.6" r="7.8"/>
	</g>
</g>
<g>
	<g>
		<circle class="st0" cx="111.5" cy="211.2" r="7.8"/>
	</g>
</g>
<g>
	<g>
		<circle class="st0" cx="90.8" cy="190.5" r="7.8"/>
	</g>
</g>
<g>
	<g>
		<circle class="st0" cx="426.9" cy="205" r="7.8"/>
	</g>
</g>
<g>
	<g>
		<circle class="st0" cx="407.3" cy="180.1" r="7.8"/>
	</g>
</g>
<g>
	<g>
		<circle class="st0" cx="302.8" cy="215.3" r="7.8"/>
	</g>
</g>
<g>
	<g>
		<circle class="st0" cx="333.9" cy="203.9" r="7.8"/>
	</g>
</g>
<g>
	<g>
		<circle class="st0" cx="173.5" cy="194.6" r="7.8"/>
	</g>
</g>
<g>
	<g>
		<circle class="st0" cx="198.4" cy="155.3" r="7.8"/>
	</g>
</g>
<g>
	<g>
		<circle class="st0" cx="204.6" cy="215.3" r="7.8"/>
	</g>
</g>
<g>
	<g>
		<circle class="st0" cx="214.9" cy="184.3" r="7.8"/>
	</g>
</g>
<g>
	<g>
		<circle class="st0" cx="235.6" cy="215.3" r="7.8"/>
	</g>
</g>
</svg>
