<?xml version="1.0" encoding="utf-8"?>
<!-- Generator: Adobe Illustrator 23.0.1, SVG Export Plug-In . SVG Version: 6.00 Build 0)  -->
<svg version="1.1" id="Слой_1" xmlns="http://www.w3.org/2000/svg" xmlns:xlink="http://www.w3.org/1999/xlink" x="0px" y="0px"
	 viewBox="0 0 480 480" style="enable-background:new 0 0 480 480;" xml:space="preserve">
<style type="text/css">
	.st0{fill:#FFA500;}
</style>
<path class="st0" d="M166.2,154.1l-129.7-35c-2.1-0.6-4.2-0.9-6.4-0.9c-12.1-0.1-22.3,8.9-23.9,20.9s6,23.3,17.6,26.4l126.9,34.3
	c0.5,39.3,27,73.6,64.9,83.9L339.3,317c22.5,6.1,46.6,3,66.8-8.6c20.2-11.6,35-30.8,41.1-53.4l3.1-11.6c3.2-12-9.4-24.5-39.7-39.4
	c-31.4-14.6-64.1-26.3-97.6-35C299.9,165.4,198.5,138.8,166.2,154.1z M28.1,150c-4.3-1.2-6.8-5.6-5.6-9.8s5.6-6.8,9.8-5.6
	l123.6,33.4l-2.1,7.7c-0.7,2.6-1.2,5.2-1.7,7.8L28.1,150z M343.5,301.5l-123.6-33.4c-21.8-5.9-39.5-21.7-47.8-42.6
	c16.6,9.5,34,17.6,52.1,24.1c0.9,0.3,1.9,0.5,2.8,0.5c3.9,0,7.2-2.8,7.9-6.6s-1.4-7.6-5.1-8.9c-30.5-11.5-53.3-23.3-62.6-32.3
	c-0.1-0.1-0.2-0.1-0.3-0.2c-0.3-5.4,0.1-10.9,1.1-16.3c18.7,13.5,39.3,24.2,61.2,31.6l3.4,1.2c2.1,0.8,4.1,1.5,6.2,2.3
	c13.4,4.9,27.7,9.6,42.7,13.9c6.1,1.8,10.7,3,12.8,3.6c5.3,1.4,10.6,2.8,15.9,4.1c1.2,0.3,2.4,0.6,3.6,0.9c4.3,1,8.5,2,12.7,3
	l2.8,0.6c4.7,1.1,9.4,2,14,2.9c0.3,0.1,0.6,0.1,1,0.2c15.7,3,30.4,5.2,43.7,6.5l0.4,0c2.6,0.3,5.3,0.5,7.8,0.7
	c1.5,0.1,2.9,0.2,4.4,0.2h0.4c4,0.2,7.9,0.4,11.4,0.4c5.8,0.1,11.7-0.4,17.5-1.3C417,291.7,379.5,311.2,343.5,301.5z M367.6,237.9
	c-4.1-0.6-8.2-1.3-12.4-2.1l-2.2-0.4c-5.5-1-11-2.1-16.7-3.3l-1.4-0.3c-5.1-1.1-10.3-2.3-15.5-3.5l-3.5-0.8
	c-5.8-1.4-11.6-2.9-17.5-4.5c-5.9-1.6-11.7-3.2-17.4-4.9c-1.1-0.3-2.2-0.7-3.4-1c-5.1-1.6-10.2-3.1-15.1-4.8l-1.4-0.5
	c-5.5-1.8-10.9-3.7-16.1-5.6l-2.2-0.8c-4-1.5-7.9-3-11.7-4.5c-0.9-0.3-1.7-0.7-2.6-1c24.3,3.7,48.3,8.8,71.9,15.3
	c23.7,6.3,47,14,69.9,23L367.6,237.9z M434.4,239.1c-6,2.3-12.5,3.3-19,2.9c-35.2-18.3-72.4-32.5-110.8-42.1
	c-38.1-11.1-77.3-17.6-116.9-19.4c-5.8-2.9-10.9-7-15-12c8.9-5.5,58.9-4.8,136.1,16.1C386,205.2,429.5,229.9,434.4,239.1
	L434.4,239.1z"/>
<path class="st0" d="M274.8,249.6c-5.2-1.5-10.2-3.1-15.1-4.6c-4.2-1.3-8.7,1-10,5.2c-1.3,4.2,1,8.7,5.2,10
	c5.1,1.6,10.2,3.2,15.5,4.7c0.7,0.2,1.5,0.3,2.3,0.3c4,0,7.4-2.9,7.9-6.9C281,254.5,278.6,250.7,274.8,249.6z"/>
<path class="st0" d="M320.7,261.5c-5-1.1-10.2-2.3-15.4-3.6c-4.3-1-8.5,1.6-9.6,5.9c-1.1,4.2,1.5,8.5,5.7,9.7
	c5.3,1.3,10.6,2.6,15.8,3.7c0.6,0.1,1.2,0.2,1.8,0.2c4.1,0,7.5-3.1,7.9-7.1C327.4,266.1,324.7,262.4,320.7,261.5z"/>
<path class="st0" d="M289.7,28c0,10.8,6.3,20.6,16,25.2V80c0,4.4,3.6,8,8,8h32c4.4,0,8-3.6,8-8V53.2c11.8-5.6,18.2-18.6,15.3-31.4
	C366.2,9,354.8,0,341.7,0h-24C302.3,0,289.7,12.5,289.7,28z M321.7,72V56h16v16H321.7z M353.7,28c0,6.6-5.4,12-12,12h-24
	c-6.6,0-12-5.4-12-12s5.4-12,12-12h24C348.4,16,353.7,21.4,353.7,28z"/>
<path class="st0" d="M441.9,103.5c0.2-2.1-0.4-4.2-1.8-5.9l-25.3-31c-1.3-1.6-3.3-2.7-5.4-2.9c-2.1-0.2-4.2,0.4-5.9,1.8l-31,25.3
	c-3.4,2.8-3.9,7.8-1.2,11.3l25.3,31c1.3,1.6,3.3,2.7,5.4,2.9c0.3,0,0.5,0,0.8,0c1.8,0,3.6-0.6,5.1-1.8l31-25.3
	C440.6,107.6,441.6,105.6,441.9,103.5z M404.1,116.7l-15.2-18.6l18.6-15.2l15.2,18.6L404.1,116.7z"/>
<path class="st0" d="M289.7,72c0-17.7-14.3-32-32-32c-17.7,0-32,14.3-32,32s14.3,32,32,32C275.4,104,289.7,89.7,289.7,72z M257.7,88
	c-8.8,0-16-7.2-16-16s7.2-16,16-16c8.8,0,16,7.2,16,16S266.6,88,257.7,88z"/>
<path class="st0" d="M249.7,120h16v16h-16V120z"/>
<path class="st0" d="M321.7,104h16v16h-16V104z"/>
<path class="st0" d="M321.7,136h16v24h-16V136z"/>
<path class="st0" d="M409.7,144h16v16h-16V144z"/>
<path class="st0" d="M409.7,176h16v16h-16V176z"/>
<path class="st0" d="M161.1,380.1l17.8-32l14,7.8l-17.8,32L161.1,380.1z"/>
<path class="st0" d="M146.6,451.6l7.6-2.5L146.6,451.6l7.7,23l15.2-5.1l-7.7-23c-4.6-13.8-3.2-29,3.9-41.7l-14-7.8
	C142.5,413.7,140.6,433.5,146.6,451.6z"/>
<path class="st0" d="M357.2,474.5l7.6-23c6-18.1,4.2-37.9-5.1-54.5l-27.2-48.9c-1.8-3.2-5.5-4.7-9-3.8c-3.5,0.9-6,4.1-6,7.7v44
	c0,1.4-0.1,2.9-0.2,4.3c-1.7-6.1-4.1-12-7.2-17.5l-32.6-58.7c-1.8-3.2-5.5-4.8-9-3.9c-3.5,0.9-6,4.1-6,7.7v52.8
	c0,13.8-4.5,27.3-12.8,38.4c-3,4-5.5,8.2-7.7,12.7c-1-1.6-2-3.2-3.2-4.7c-6.7-9-10.4-20-10.4-31.2v-44c0-3.6-2.5-6.8-6-7.7
	c-3.5-0.9-7.2,0.7-9,3.9l-27.2,48.9c-9.2,16.7-11.1,36.4-5.1,54.5l7.7,23c1.1,3.3,4.1,5.5,7.6,5.5h153
	C353.1,480,356.1,477.8,357.2,474.5z M196.5,446.5c-4.6-13.8-3.2-28.9,3.9-41.7l12.2-22V396c0.1,14.7,4.8,29,13.6,40.8
	c4.1,5.4,7,11.7,8.6,18.3c-0.4,2.9-0.7,5.9-0.8,8.9h-31.7L196.5,446.5z M250,464c0.7-12.7,5.1-25,12.7-35.2c10.4-13.9,16-30.7,16-48
	v-21.9l17.6,31.7c7.5,13.5,9.8,29.2,6.6,44.3c-0.8,3.8,1.3,7.6,4.9,9.1c3.6,1.4,7.7,0.1,9.8-3.2l0.8-1.4c0.5-0.9,1-1.7,1.6-2.5
	c8.8-11.8,13.6-26.1,13.6-40.8v-13.1l12.2,21.9c7.1,12.8,8.5,27.9,3.9,41.7l-5.8,17.5H250z"/>
<path class="st0" d="M352.1,355.9l14-7.8l10.7,19.3l-14,7.8L352.1,355.9z"/>
<path class="st0" d="M393.3,397l-8.4-15.2l-14,7.8l8.4,15.2c4.6,8.2,6.8,17.5,6.5,26.9l16,0.5C402.3,420,399.3,407.8,393.3,397z"/>
<path class="st0" d="M375.6,469.5l5.3-16l15.2,5.1l-5.3,16L375.6,469.5z"/>
<path class="st0" d="M186.7,332.4l8-16l14.3,7.2l-8,16L186.7,332.4z"/>
<path class="st0" d="M463.5,125.7c12-12,13.8-30.8,4.4-44.9l-3.4-5.2l-13.3,8.9l3.4,5.2c5.2,7.8,4.1,18.1-2.4,24.7L463.5,125.7z"/>
</svg>
