<svg id="Слой_1" data-name="Слой 1" xmlns="http://www.w3.org/2000/svg" viewBox="0 0 99.87 99.87"><defs><style>.cls-1{fill:orange;}</style></defs><title>rimskaya</title><path class="cls-1" d="M59.73,37.89a1.73,1.73,0,0,0,1.39.7h.05a1.78,1.78,0,0,0,1.41-.78l7-10.47a1.74,1.74,0,0,0-.49-2.42,1.71,1.71,0,0,0-1.44-.23L55.41,28.18a1.74,1.74,0,0,0-1.2,2.16,1.69,1.69,0,0,0,.28.57ZM64,29.35l-3,4.47-2.23-3Z" transform="translate(-0.06 -0.06)"/><path class="cls-1" d="M61.38,21.88a7,7,0,1,0-7-7A7,7,0,0,0,61.38,21.88Zm0-10.47a3.49,3.49,0,1,1-3.49,3.49A3.49,3.49,0,0,1,61.38,11.41Z" transform="translate(-0.06 -0.06)"/><path class="cls-1" d="M77.47,28.21a1.75,1.75,0,0,0,1.36.65H79A1.75,1.75,0,0,0,80.33,28l5.24-8.72a1.75,1.75,0,0,0-1.5-2.65H71.85a1.75,1.75,0,0,0-1.36,2.84ZM81,20.13l-2.36,3.94-3.15-3.94Z" transform="translate(-0.06 -0.06)"/><path class="cls-1" d="M34.92,73a7,7,0,1,0-7-7A7,7,0,0,0,34.92,73Zm0-10.47A3.49,3.49,0,1,1,31.43,66,3.5,3.5,0,0,1,34.92,62.54Z" transform="translate(-0.06 -0.06)"/><path class="cls-1" d="M28.42,74.82,16.2,71.33a1.76,1.76,0,0,0-2.19,2l1.75,8.73a1.74,1.74,0,0,0,2,1.37,1.76,1.76,0,0,0,.44-.15l10.47-5.24a1.75,1.75,0,0,0-.3-3.24Zm-9.69,4.34L18,75.48,23.15,77Z" transform="translate(-0.06 -0.06)"/><path class="cls-1" d="M36.49,75.72a1.75,1.75,0,0,0-3.22.23L29.78,86.42a1.74,1.74,0,0,0,1.1,2.21,1.76,1.76,0,0,0,.55.09h8.73a1.73,1.73,0,0,0,1.56-2.52Zm-2.63,9.51,1.39-4.18,2.09,4.18Z" transform="translate(-0.06 -0.06)"/><path class="cls-1" d="M73.11,31.53a7,7,0,1,0,7,7A7,7,0,0,0,73.11,31.53Zm0,10.47a3.49,3.49,0,1,1,3.49-3.49A3.49,3.49,0,0,1,73.11,42Z" transform="translate(-0.06 -0.06)"/><path class="cls-1" d="M24.59,60,12.37,56.5a1.74,1.74,0,0,0-2,2.46l5.23,10.47a1.75,1.75,0,0,0,2.35.78,1.8,1.8,0,0,0,.45-.33l7-7A1.74,1.74,0,0,0,24.59,60Zm-7,5.71-2.38-4.76,5.55,1.59Z" transform="translate(-0.06 -0.06)"/><path class="cls-1" d="M85.42,46.7h.14a1.75,1.75,0,0,0,1.61-1.05L92.4,33.43a1.75,1.75,0,0,0-.92-2.3,1.91,1.91,0,0,0-.34-.1l-8.73-1.75a1.75,1.75,0,0,0-2,1.37,1.67,1.67,0,0,0,0,.77l3.49,14A1.74,1.74,0,0,0,85.42,46.7ZM88.35,34,86,39.51l-1.57-6.26Z" transform="translate(-0.06 -0.06)"/><path class="cls-1" d="M75.36,58.42a1.73,1.73,0,0,0,.86,1.75l12.22,7a1.74,1.74,0,0,0,2.38-.65,1.92,1.92,0,0,0,.21-.58l1.74-10.47a1.74,1.74,0,0,0-1.43-2,1.7,1.7,0,0,0-.71,0L76.66,57A1.74,1.74,0,0,0,75.36,58.42Zm13.53-.92L88,62.88l-6.27-3.59Z" transform="translate(-0.06 -0.06)"/><path class="cls-1" d="M73.6,91.08a7,7,0,1,0-7-7A7,7,0,0,0,73.6,91.08Zm0-10.47a3.49,3.49,0,1,1-3.49,3.49A3.49,3.49,0,0,1,73.6,80.61Z" transform="translate(-0.06 -0.06)"/><path class="cls-1" d="M26.43,34.6A1.74,1.74,0,0,0,25.37,33L13.15,27.76a1.74,1.74,0,0,0-2.43,1.6V39.84a1.74,1.74,0,0,0,1.74,1.74,1.81,1.81,0,0,0,.69-.14l12.22-5.23A1.76,1.76,0,0,0,26.43,34.6ZM14.21,37.19V32l6,2.59Z" transform="translate(-0.06 -0.06)"/><path class="cls-1" d="M55.39,83.93a1.73,1.73,0,0,0,1.84-.21l8.73-7a1.75,1.75,0,0,0,.27-2.45,1.8,1.8,0,0,0-.71-.54l-8.73-3.49a1.75,1.75,0,0,0-2.27,1,1.73,1.73,0,0,0-.12.64V82.36A1.73,1.73,0,0,0,55.39,83.93Zm2.5-9.47,3.55,1.42-3.55,2.85Z" transform="translate(-0.06 -0.06)"/><path class="cls-1" d="M61.38,68.39a7,7,0,1,0-7-7A7,7,0,0,0,61.38,68.39Zm0-10.47a3.49,3.49,0,1,1-3.49,3.49A3.49,3.49,0,0,1,61.38,57.92Z" transform="translate(-0.06 -0.06)"/><path class="cls-1" d="M70.11,75.38a1.76,1.76,0,0,0,.55-.09l10.47-3.5a1.73,1.73,0,0,0,1.1-2.2,1.76,1.76,0,0,0-.42-.69l-7-7a1.75,1.75,0,0,0-2.47,0,1.85,1.85,0,0,0-.42.68L68.45,73.08a1.75,1.75,0,0,0,1.1,2.21A1.77,1.77,0,0,0,70.11,75.38Zm4.25-9,3,3-4.48,1.49Z" transform="translate(-0.06 -0.06)"/><path class="cls-1" d="M38,20.13a7,7,0,1,0,7,7A7,7,0,0,0,38,20.13Zm0,10.48a3.5,3.5,0,1,1,3.49-3.49A3.5,3.5,0,0,1,38,30.61Z" transform="translate(-0.06 -0.06)"/><path class="cls-1" d="M14.38,18.24l8.73,7a1.74,1.74,0,0,0,2.83-1.36V11.64A1.74,1.74,0,0,0,24.2,9.9a1.67,1.67,0,0,0-.9.25l-8.73,5.23a1.76,1.76,0,0,0-.6,2.4A2,2,0,0,0,14.38,18.24Zm8.07-3.51v5.5l-3.93-3.15Z" transform="translate(-0.06 -0.06)"/><path class="cls-1" d="M31,20.13a2,2,0,0,0,.48-.06l12.22-3.49a1.76,1.76,0,0,0,1.2-2.16,1.73,1.73,0,0,0-.45-.76l-7-7a1.73,1.73,0,0,0-2.79.45L29.46,17.61A1.74,1.74,0,0,0,31,20.13Zm5.72-9.27L39.91,14l-5.55,1.59Z" transform="translate(-0.06 -0.06)"/><rect class="cls-1" x="0.43" y="46.87" width="99.01" height="3.06"/><rect class="cls-1" x="0.5" y="48.47" width="99.01" height="3.06" transform="translate(-0.06 99.94) rotate(-90)"/><path class="cls-1" d="M79.43,99.94H20.57A20.53,20.53,0,0,1,.06,79.43V20.57A20.53,20.53,0,0,1,20.57.06H79.43A20.53,20.53,0,0,1,99.94,20.57V79.43A20.53,20.53,0,0,1,79.43,99.94ZM20.57,3.06A17.54,17.54,0,0,0,3.06,20.57V79.43A17.54,17.54,0,0,0,20.57,96.94H79.43A17.54,17.54,0,0,0,96.94,79.43V20.57A17.54,17.54,0,0,0,79.43,3.06Z" transform="translate(-0.06 -0.06)"/></svg>