<?xml version="1.0" encoding="utf-8"?>
<!-- Generator: Adobe Illustrator 23.0.1, SVG Export Plug-In . SVG Version: 6.00 Build 0)  -->
<svg version="1.1" id="outline" xmlns="http://www.w3.org/2000/svg" xmlns:xlink="http://www.w3.org/1999/xlink" x="0px" y="0px"
	 viewBox="0 0 512 512" style="enable-background:new 0 0 512 512;" xml:space="preserve">
<style type="text/css">
	.st0{fill:#FFFFFF;}
</style>
<path class="st0" d="M256,16C123.5,16,16,123.5,16,256c0,63.7,25.3,124.7,70.3,169.7c93.7,93.8,245.7,93.8,339.4,0.1
	s93.8-245.7,0.1-339.4l-0.1-0.1C380.8,41.1,319.7,15.8,256,16z M445.9,137.1L264,242.1v-210c56.6,1.9,110.4,25.3,150.4,65.5
	C426.3,109.6,436.9,122.8,445.9,137.1z M97.6,97.6c40-40.2,93.8-63.6,150.4-65.5v210l-181.9-105C75.1,122.8,85.7,109.6,97.6,97.6z
	 M58,150.9L240,256L58,361.1C23.3,295.3,23.3,216.7,58,150.9z M66.1,374.9l181.9-105v210c-56.6-1.9-110.4-25.3-150.4-65.5
	C85.7,402.4,75.1,389.2,66.1,374.9z M414.4,414.4c-40,40.2-93.8,63.6-150.4,65.5v-210l181.9,105
	C436.9,389.2,426.3,402.4,414.4,414.4z M454,361.1L272,256l182-105C488.7,216.7,488.7,295.3,454,361.1z"/>
<path class="st0" d="M81.6,324.8c1.5,2,3.9,3.2,6.4,3.2c0.1,0,0.1,0,0.2,0c2.6-0.1,5-1.4,6.4-3.6l32-48c2.5-3.7,1.5-8.6-2.2-11.1
	c-2-1.3-4.4-1.7-6.6-1l-56,16c-4.2,1.2-6.7,5.6-5.5,9.9c0.3,0.9,0.7,1.8,1.3,2.6L81.6,324.8z M101.3,285.7l-13.7,20.5l-10.2-13.7
	L101.3,285.7z"/>
<path class="st0" d="M80,256c17.7,0,32-14.3,32-32s-14.3-32-32-32s-32,14.3-32,32S62.3,256,80,256z M80,208c8.8,0,16,7.2,16,16
	s-7.2,16-16,16s-16-7.2-16-16S71.2,208,80,208z"/>
<path class="st0" d="M153.8,285c1.5,1.9,3.8,3,6.2,3c0.2,0,0.4,0,0.5,0c2.6-0.2,5-1.6,6.3-3.9l24-40c2.3-3.8,1-8.7-2.7-11
	c-1.2-0.7-2.7-1.1-4.1-1.1h-56c-4.4,0-8,3.6-8,8c0,1.8,0.6,3.6,1.8,5L153.8,285z M169.9,248l-10.8,18l-14.4-18H169.9z"/>
<path class="st0" d="M208,376c17.7,0,32-14.3,32-32s-14.3-32-32-32s-32,14.3-32,32S190.3,376,208,376z M208,328c8.8,0,16,7.2,16,16
	s-7.2,16-16,16s-16-7.2-16-16S199.2,328,208,328z"/>
<path class="st0" d="M178.2,384.3l-56-16c-4.2-1.2-8.7,1.2-9.9,5.5c-0.4,1.2-0.4,2.5-0.2,3.8l8,40c0.9,4.3,5.1,7.1,9.4,6.3
	c0.7-0.1,1.4-0.4,2-0.7l48-24c4-2,5.6-6.8,3.6-10.7C182.2,386.4,180.4,384.9,178.2,384.3L178.2,384.3z M133.8,404.2l-3.4-16.9
	L154,394L133.8,404.2z"/>
<path class="st0" d="M215.2,388.4c-2-4-6.8-5.6-10.7-3.6c-1.9,0.9-3.3,2.6-4,4.6l-16,48c-1.4,4.2,0.9,8.7,5.1,10.1
	c0.8,0.3,1.7,0.4,2.5,0.4h40c4.4,0,8-3.6,8-8c0-1.2-0.3-2.5-0.8-3.6L215.2,388.4z M203.1,432l6.4-19.1l9.6,19.1H203.1z"/>
<path class="st0" d="M312,400c-17.7,0-32,14.3-32,32s14.3,32,32,32s32-14.3,32-32S329.7,400,312,400z M312,448c-8.8,0-16-7.2-16-16
	s7.2-16,16-16s16,7.2,16,16S320.8,448,312,448z"/>
<path class="st0" d="M394.2,368.3l-56-16c-4.2-1.2-8.7,1.2-9.9,5.5c-0.6,1.9-0.4,4,0.5,5.8l24,48c2,4,6.8,5.6,10.7,3.6
	c0.8-0.4,1.5-0.9,2.1-1.5l32-32c3.1-3.1,3.1-8.2,0-11.3C396.7,369.4,395.5,368.7,394.2,368.3L394.2,368.3z M362.2,394.5l-10.9-21.8
	l25.4,7.3L362.2,394.5z"/>
<path class="st0" d="M295.4,392c0.2,0,0.4,0,0.6,0c3.2,0,6.1-1.9,7.4-4.8l24-56c1.7-4.1-0.1-8.8-4.2-10.5c-0.5-0.2-1-0.4-1.6-0.5
	l-40-8c-4.3-0.9-8.5,1.9-9.4,6.3c-0.2,1.2-0.2,2.4,0.1,3.5l16,64C289.1,389.3,291.9,391.7,295.4,392z M308.8,333.9L298,359
	l-7.2-28.7L308.8,333.9z"/>
<path class="st0" d="M392.1,278.9c-0.4,3.2,1.1,6.4,4,8l56,32c3.8,2.2,8.7,0.9,10.9-3c0.5-0.8,0.8-1.7,0.9-2.7l8-48
	c0.7-4.4-2.2-8.5-6.6-9.2c-1.1-0.2-2.2-0.1-3.3,0.1l-64,16C394.9,273,392.5,275.7,392.1,278.9z M454.1,274.7l-4.1,24.6l-28.7-16.4
	L454.1,274.7z"/>
<path class="st0" d="M424,256c17.7,0,32-14.3,32-32s-14.3-32-32-32s-32,14.3-32,32S406.3,256,424,256z M424,208c8.8,0,16,7.2,16,16
	s-7.2,16-16,16s-16-7.2-16-16S415.2,208,424,208z"/>
<path class="st0" d="M400,256c0-3.2-1.9-6.1-4.8-7.4l-56-24c-4.1-1.7-8.8,0.1-10.5,4.2c-0.4,1-0.6,2.1-0.6,3.2v48c0,4.4,3.6,8,8,8
	c1.1,0,2.2-0.2,3.1-0.6l56-24C398.1,262.1,400,259.2,400,256z M344,267.9v-23.7l27.7,11.9L344,267.9z"/>
<path class="st0" d="M284.5,207.2c2.8,1.3,6.1,1,8.5-1l40-32c3.5-2.8,4-7.8,1.3-11.2c-0.9-1.1-2-1.9-3.3-2.4l-40-16
	c-4.1-1.6-8.8,0.4-10.4,4.5c-0.4,0.9-0.6,2-0.6,3v48C280,203.1,281.8,205.9,284.5,207.2z M296,163.8l16.3,6.5l-16.3,13V163.8z"/>
<path class="st0" d="M312,136c17.7,0,32-14.3,32-32s-14.3-32-32-32s-32,14.3-32,32S294.3,136,312,136z M312,88c8.8,0,16,7.2,16,16
	s-7.2,16-16,16s-16-7.2-16-16S303.2,88,312,88z"/>
<path class="st0" d="M352,168c0.9,0,1.7-0.1,2.5-0.4l48-16c4.2-1.4,6.5-5.9,5.1-10.1c-0.4-1.2-1.1-2.2-1.9-3.1l-32-32
	c-3.1-3.1-8.2-3.1-11.3,0c-0.9,0.9-1.5,1.9-1.9,3.1l-16,48c-1.4,4.2,0.9,8.7,5.1,10.1C350.3,167.9,351.1,168,352,168z M371.5,126.8
	l13.7,13.7l-20.5,6.8L371.5,126.8z"/>
<path class="st0" d="M208,112c-17.7,0-32,14.3-32,32s14.3,32,32,32s32-14.3,32-32S225.7,112,208,112z M208,160c-8.8,0-16-7.2-16-16
	s7.2-16,16-16s16,7.2,16,16S216.8,160,208,160z"/>
<path class="st0" d="M107,126.2l40,32c3.5,2.8,8.5,2.2,11.2-1.3c1.1-1.4,1.8-3.2,1.8-5V96c0-4.4-3.6-8-8-8c-1.4,0-2.9,0.4-4.1,1.1
	l-40,24c-3.8,2.3-5,7.2-2.7,11C105.6,124.9,106.3,125.7,107,126.2z M144,110.1v25.2l-18-14.4L144,110.1z"/>
<path class="st0" d="M176,112c0.7,0,1.5-0.1,2.2-0.3l56-16c4.2-1.2,6.7-5.6,5.5-9.9c-0.4-1.3-1.1-2.5-2-3.5l-32-32
	c-3.1-3.1-8.2-3.1-11.3,0c-0.6,0.6-1.1,1.3-1.5,2.1l-24,48c-2,4-0.4,8.8,3.6,10.7C173.5,111.7,174.8,112,176,112z M202.2,69.5
	L216.7,84l-25.4,7.3L202.2,69.5z"/>
</svg>
